<svg width="200" height="22" viewBox="0 0 200 22" fill="none" xmlns="http://www.w3.org/2000/svg">
<path d="M197.556 16.4339C196.221 16.4339 195.231 16.1039 194.586 15.4439C193.94 14.7839 193.618 13.8306 193.618 12.5839V7.6999H191.638V4.6419H193.618V2.4419L197.116 2.0459V4.6419H199.47V7.6999H197.116V11.8579C197.116 12.8846 197.622 13.3979 198.634 13.3979H199.448V16.4339H197.556Z" fill="#015399"/>
<path d="M179.227 16.3019V4.64193H182.505L182.725 5.82993C183.429 4.86193 184.485 4.37793 185.893 4.37793C187.154 4.37793 188.166 4.81793 188.929 5.69793C189.691 6.56326 190.073 7.7366 190.073 9.21793V16.3019H186.553V9.59193C186.553 8.9026 186.391 8.36726 186.069 7.98593C185.761 7.6046 185.284 7.41393 184.639 7.41393C184.052 7.41393 183.583 7.6046 183.231 7.98593C182.893 8.36726 182.725 8.9026 182.725 9.59193V16.3019H179.227Z" fill="#015399"/>
<path d="M171.335 16.5659C170.162 16.5659 169.143 16.3166 168.277 15.8179C167.412 15.3193 166.745 14.6153 166.275 13.7059C165.806 12.7966 165.571 11.7186 165.571 10.4719C165.571 9.23993 165.806 8.16927 166.275 7.25993C166.759 6.3506 167.434 5.6466 168.299 5.14793C169.165 4.6346 170.177 4.37793 171.335 4.37793C172.465 4.37793 173.455 4.61993 174.305 5.10393C175.156 5.58793 175.816 6.26993 176.285 7.14993C176.755 8.02993 176.989 9.07127 176.989 10.2739V11.6819H169.113C169.201 12.4153 169.443 12.9579 169.839 13.3099C170.235 13.6619 170.763 13.8379 171.423 13.8379C171.893 13.8379 172.289 13.7499 172.611 13.5739C172.949 13.3979 173.183 13.1559 173.315 12.8479H176.879C176.747 13.5813 176.425 14.2266 175.911 14.7839C175.398 15.3413 174.745 15.7813 173.953 16.1039C173.176 16.4119 172.303 16.5659 171.335 16.5659ZM171.335 7.17193C170.719 7.17193 170.221 7.3626 169.839 7.74393C169.458 8.12526 169.223 8.65326 169.135 9.32793H173.469C173.499 8.69726 173.315 8.18393 172.919 7.78793C172.523 7.37726 171.995 7.17193 171.335 7.17193Z" fill="#015399"/>
<path d="M146.055 16.3019V4.64193H148.981L149.333 6.02793C150.022 4.92793 151.078 4.37793 152.501 4.37793C153.953 4.37793 155.023 4.97193 155.713 6.15993C156.461 4.97193 157.612 4.37793 159.167 4.37793C160.472 4.37793 161.491 4.8106 162.225 5.67593C162.958 6.5266 163.325 7.6926 163.325 9.17393V16.3019H159.827V9.54793C159.827 8.8586 159.687 8.3306 159.409 7.96393C159.13 7.59726 158.712 7.41393 158.155 7.41393C157.685 7.41393 157.282 7.6046 156.945 7.98593C156.622 8.36726 156.461 8.9026 156.461 9.59193V16.3019H152.941V9.54793C152.941 8.8586 152.794 8.3306 152.501 7.96393C152.222 7.59726 151.804 7.41393 151.247 7.41393C150.777 7.41393 150.374 7.6046 150.037 7.98593C149.714 8.36726 149.553 8.9026 149.553 9.59193V16.3019H146.055Z" fill="#015399"/>
<path d="M138.163 16.5659C136.99 16.5659 135.971 16.3166 135.105 15.8179C134.24 15.3193 133.573 14.6153 133.103 13.7059C132.634 12.7966 132.399 11.7186 132.399 10.4719C132.399 9.23993 132.634 8.16927 133.103 7.25993C133.587 6.3506 134.262 5.6466 135.127 5.14793C135.993 4.6346 137.005 4.37793 138.163 4.37793C139.293 4.37793 140.283 4.61993 141.133 5.10393C141.984 5.58793 142.644 6.26993 143.113 7.14993C143.583 8.02993 143.817 9.07127 143.817 10.2739V11.6819H135.941C136.029 12.4153 136.271 12.9579 136.667 13.3099C137.063 13.6619 137.591 13.8379 138.251 13.8379C138.721 13.8379 139.117 13.7499 139.439 13.5739C139.777 13.3979 140.011 13.1559 140.143 12.8479H143.707C143.575 13.5813 143.253 14.2266 142.739 14.7839C142.226 15.3413 141.573 15.7813 140.781 16.1039C140.004 16.4119 139.131 16.5659 138.163 16.5659ZM138.163 7.17193C137.547 7.17193 137.049 7.3626 136.667 7.74393C136.286 8.12526 136.051 8.65326 135.963 9.32793H140.297C140.327 8.69726 140.143 8.18393 139.747 7.78793C139.351 7.37726 138.823 7.17193 138.163 7.17193Z" fill="#015399"/>
<path d="M124.353 21.3619C123.223 21.3619 122.226 21.1786 121.361 20.8119C120.51 20.4453 119.828 19.9319 119.315 19.2719C118.816 18.6119 118.523 17.8419 118.435 16.9619H121.933C122.006 17.3579 122.241 17.6806 122.637 17.9299C123.033 18.1939 123.605 18.3259 124.353 18.3259C125.071 18.3259 125.636 18.1426 126.047 17.7759C126.457 17.4093 126.663 16.8666 126.663 16.1479V14.9599C125.944 15.7079 124.976 16.0819 123.759 16.0819C122.717 16.0819 121.808 15.8399 121.031 15.3559C120.268 14.8573 119.674 14.1679 119.249 13.2879C118.823 12.4079 118.611 11.3886 118.611 10.2299C118.611 9.0566 118.823 8.02993 119.249 7.14993C119.674 6.26993 120.268 5.58793 121.031 5.10393C121.808 4.61993 122.717 4.37793 123.759 4.37793C125.02 4.37793 126.003 4.7666 126.707 5.54393L126.883 4.64193H130.161V16.1479C130.161 17.2333 129.911 18.1646 129.413 18.9419C128.929 19.7193 128.247 20.3133 127.367 20.7239C126.501 21.1493 125.497 21.3619 124.353 21.3619ZM124.419 13.0459C125.137 13.0459 125.687 12.8039 126.069 12.3199C126.465 11.8359 126.663 11.1393 126.663 10.2299C126.663 9.3646 126.465 8.6826 126.069 8.18393C125.687 7.6706 125.137 7.41393 124.419 7.41393C123.7 7.41393 123.143 7.6706 122.747 8.18393C122.351 8.6826 122.153 9.3646 122.153 10.2299C122.153 11.1539 122.351 11.8579 122.747 12.3419C123.143 12.8113 123.7 13.0459 124.419 13.0459Z" fill="#015399"/>
<path d="M109.68 16.5219C108.404 16.5219 107.392 16.2139 106.644 15.5979C105.911 14.9819 105.544 14.1533 105.544 13.1119C105.544 11.9386 105.947 11.0146 106.754 10.3399C107.575 9.66527 108.756 9.32793 110.296 9.32793H112.694V8.71193C112.694 8.1546 112.533 7.72926 112.21 7.43593C111.902 7.1426 111.477 6.99593 110.934 6.99593C110.421 6.99593 110.01 7.1206 109.702 7.36993C109.394 7.61926 109.24 7.96393 109.24 8.40393H105.918C105.933 7.1426 106.402 6.15993 107.326 5.45593C108.25 4.73726 109.497 4.37793 111.066 4.37793C112.679 4.37793 113.933 4.75193 114.828 5.49993C115.737 6.24793 116.192 7.3186 116.192 8.71193V16.3019H113.112L112.914 15.2899C112.239 16.1113 111.161 16.5219 109.68 16.5219ZM110.538 13.9039C111.183 13.9039 111.704 13.7426 112.1 13.4199C112.496 13.0973 112.694 12.6279 112.694 12.0119V11.6819H110.472C109.504 11.6819 109.02 12.0559 109.02 12.8039C109.02 13.1266 109.152 13.3906 109.416 13.5959C109.68 13.8013 110.054 13.9039 110.538 13.9039Z" fill="#015399"/>
<path d="M92.4727 16.3019V4.64193H95.7507L95.9707 5.82993C96.6747 4.86193 97.7307 4.37793 99.1387 4.37793C100.4 4.37793 101.412 4.81793 102.175 5.69793C102.937 6.56326 103.319 7.7366 103.319 9.21793V16.3019H99.7987V9.59193C99.7987 8.9026 99.6373 8.36726 99.3147 7.98593C99.0067 7.6046 98.53 7.41393 97.8847 7.41393C97.298 7.41393 96.8287 7.6046 96.4767 7.98593C96.1393 8.36726 95.9707 8.9026 95.9707 9.59193V16.3019H92.4727Z" fill="#015399"/>
<path d="M83.1897 16.5219C81.9137 16.5219 80.9017 16.2139 80.1537 15.5979C79.4204 14.9819 79.0537 14.1533 79.0537 13.1119C79.0537 11.9386 79.457 11.0146 80.2637 10.3399C81.085 9.66527 82.2657 9.32793 83.8057 9.32793H86.2037V8.71193C86.2037 8.1546 86.0424 7.72926 85.7197 7.43593C85.4117 7.1426 84.9864 6.99593 84.4437 6.99593C83.9304 6.99593 83.5197 7.1206 83.2117 7.36993C82.9037 7.61926 82.7497 7.96393 82.7497 8.40393H79.4277C79.4424 7.1426 79.9117 6.15993 80.8357 5.45593C81.7597 4.73726 83.0064 4.37793 84.5757 4.37793C86.189 4.37793 87.443 4.75193 88.3377 5.49993C89.247 6.24793 89.7017 7.3186 89.7017 8.71193V16.3019H86.6217L86.4237 15.2899C85.749 16.1113 84.671 16.5219 83.1897 16.5219ZM84.0477 13.9039C84.693 13.9039 85.2137 13.7426 85.6097 13.4199C86.0057 13.0973 86.2037 12.6279 86.2037 12.0119V11.6819H83.9817C83.0137 11.6819 82.5297 12.0559 82.5297 12.8039C82.5297 13.1266 82.6617 13.3906 82.9257 13.5959C83.1897 13.8013 83.5637 13.9039 84.0477 13.9039Z" fill="#015399"/>
<path d="M60.2734 16.3014V0.901367H64.0134L68.2814 8.27137L72.5494 0.901367H76.2894V16.3014H72.7474V6.81937L68.7214 13.8814H67.9074L63.8154 6.86337V16.3014H60.2734Z" fill="#015399"/>
<path d="M40.9102 16.3017V0.637695H44.4082V5.7857C45.1122 4.84703 46.1682 4.37769 47.5762 4.37769C48.8375 4.37769 49.8495 4.8177 50.6122 5.6977C51.3748 6.56303 51.7562 7.73636 51.7562 9.2177V16.3017H48.2362V9.59169C48.2362 8.90236 48.0748 8.36703 47.7522 7.9857C47.4442 7.60436 46.9675 7.4137 46.3222 7.4137C45.7355 7.4137 45.2662 7.60436 44.9142 7.9857C44.5768 8.36703 44.4082 8.90236 44.4082 9.59169V16.3017H40.9102Z" fill="#015399"/>
<path d="M33.5132 16.5219C32.0466 16.5219 30.8512 16.1919 29.9272 15.5319C29.0032 14.8573 28.4826 13.8966 28.3652 12.6499H31.5992C31.7312 13.4126 32.3692 13.7939 33.5132 13.7939C34.0412 13.7939 34.4592 13.7133 34.7672 13.5519C35.0899 13.3759 35.2512 13.1339 35.2512 12.8259C35.2512 12.3713 34.8992 12.0853 34.1952 11.9679L31.9732 11.5939C29.8026 11.2126 28.7172 10.0759 28.7172 8.18393C28.7172 7.02526 29.1426 6.10126 29.9932 5.41193C30.8586 4.7226 32.0319 4.37793 33.5132 4.37793C35.0239 4.37793 36.2119 4.7226 37.0772 5.41193C37.9572 6.0866 38.4486 7.06193 38.5512 8.33793H35.2952C35.1779 7.5166 34.5839 7.10593 33.5132 7.10593C33.0732 7.10593 32.7286 7.1866 32.4792 7.34793C32.2446 7.50926 32.1272 7.7366 32.1272 8.02993C32.1272 8.49926 32.5159 8.78526 33.2932 8.88793L35.0532 9.15193C37.4586 9.53326 38.6612 10.6919 38.6612 12.6279C38.6612 13.8746 38.2139 14.8353 37.3192 15.5099C36.4246 16.1846 35.1559 16.5219 33.5132 16.5219Z" fill="#015399"/>
<path d="M19.8753 16.5219C18.5993 16.5219 17.5873 16.2139 16.8393 15.5979C16.1059 14.9819 15.7393 14.1533 15.7393 13.1119C15.7393 11.9386 16.1426 11.0146 16.9493 10.3399C17.7706 9.66527 18.9513 9.32793 20.4913 9.32793H22.8893V8.71193C22.8893 8.1546 22.7279 7.72926 22.4053 7.43593C22.0973 7.1426 21.6719 6.99593 21.1293 6.99593C20.6159 6.99593 20.2053 7.1206 19.8973 7.36993C19.5893 7.61926 19.4353 7.96393 19.4353 8.40393H16.1133C16.1279 7.1426 16.5973 6.15993 17.5213 5.45593C18.4453 4.73726 19.6919 4.37793 21.2613 4.37793C22.8746 4.37793 24.1286 4.75193 25.0233 5.49993C25.9326 6.24793 26.3873 7.3186 26.3873 8.71193V16.3019H23.3073L23.1093 15.2899C22.4346 16.1113 21.3566 16.5219 19.8753 16.5219ZM20.7333 13.9039C21.3786 13.9039 21.8993 13.7426 22.2953 13.4199C22.6913 13.0973 22.8893 12.6279 22.8893 12.0119V11.6819H20.6673C19.6993 11.6819 19.2153 12.0559 19.2153 12.8039C19.2153 13.1266 19.3473 13.3906 19.6113 13.5959C19.8753 13.8013 20.2493 13.9039 20.7333 13.9039Z" fill="#015399"/>
<path d="M7.25449 16.5657C5.80249 16.5657 4.54116 16.243 3.47049 15.5977C2.39983 14.9377 1.57116 14.0137 0.984492 12.8257C0.397826 11.6377 0.104492 10.2297 0.104492 8.6017C0.104492 6.97369 0.397826 5.56569 0.984492 4.37769C1.57116 3.17503 2.39983 2.25103 3.47049 1.60569C4.54116 0.960362 5.80249 0.637695 7.25449 0.637695C8.54516 0.637695 9.68183 0.872362 10.6645 1.3417C11.6472 1.81103 12.4245 2.47836 12.9965 3.34369C13.5685 4.19436 13.8912 5.20636 13.9645 6.37969H10.5325C10.3858 5.55836 10.0192 4.92036 9.43249 4.46569C8.86049 3.99636 8.13449 3.76169 7.25449 3.76169C6.11049 3.76169 5.22316 4.18703 4.59249 5.03769C3.96183 5.88836 3.64649 7.07636 3.64649 8.6017C3.64649 10.127 3.96183 11.315 4.59249 12.1657C5.22316 13.0164 6.11049 13.4417 7.25449 13.4417C8.13449 13.4417 8.86049 13.207 9.43249 12.7377C10.0192 12.2537 10.3858 11.5864 10.5325 10.7357H13.9645C13.8912 11.9237 13.5685 12.9577 12.9965 13.8377C12.4245 14.703 11.6472 15.3777 10.6645 15.8617C9.68183 16.331 8.54516 16.5657 7.25449 16.5657Z" fill="#015399"/>
</svg>
