<svg width="64" height="64" viewBox="0 0 64 64" fill="none" xmlns="http://www.w3.org/2000/svg">
<path d="M26.3353 53.1589H37.002C47.0586 53.1589 52.0869 53.1589 55.2111 50.0347C58.3353 46.9105 58.3353 41.8822 58.3353 31.8255C58.3353 30.647 58.3309 27.5376 58.3259 26.4922H5.0026C4.99758 27.5376 5.00196 30.647 5.00196 31.8255C5.00196 41.8822 5.00196 46.9105 8.12616 50.0347C11.2504 53.1589 16.2787 53.1589 26.3353 53.1589Z" fill="#00549B"/>
<path d="M13.668 35.8255C13.668 34.721 14.5634 33.8255 15.668 33.8255H21.0013C22.1059 33.8255 23.0013 34.721 23.0013 35.8255C23.0013 36.9301 22.1059 37.8255 21.0013 37.8255H15.668C14.5634 37.8255 13.668 36.9301 13.668 35.8255Z" fill="white"/>
<path d="M13.668 43.8255C13.668 42.721 14.5634 41.8255 15.668 41.8255H26.3346C27.4392 41.8255 28.3346 42.721 28.3346 43.8255C28.3346 44.9301 27.4392 45.8255 26.3346 45.8255H15.668C14.5634 45.8255 13.668 44.9301 13.668 43.8255Z" fill="white"/>
<path fill-rule="evenodd" clip-rule="evenodd" d="M45.5272 32.6077C44.6664 32.4919 43.6081 32.4921 42.454 32.4922H42.2153C41.0611 32.4921 40.0029 32.4919 39.1421 32.6077C38.1941 32.7351 37.1922 33.035 36.3681 33.859C35.5441 34.6831 35.2442 35.685 35.1168 36.633C35.001 37.4938 35.0012 38.552 35.0013 39.7062L35.0013 39.8255L35.0013 39.9449C35.0012 41.099 35.001 42.1573 35.1168 43.0181C35.2442 43.966 35.5441 44.968 36.3681 45.792C37.1922 46.6161 38.1941 46.916 39.1421 47.0434C40.0029 47.1591 41.0611 47.159 42.2153 47.1589L42.3346 47.1589L42.454 47.1589C43.6081 47.159 44.6664 47.1591 45.5272 47.0434C46.4751 46.916 47.4771 46.6161 48.3011 45.792C49.1252 44.968 49.425 43.966 49.5525 43.0181C49.6682 42.1573 49.6681 41.099 49.668 39.9449V39.7062C49.6681 38.552 49.6682 37.4938 49.5525 36.633C49.425 35.685 49.1252 34.6831 48.3011 33.859C47.4771 33.035 46.4751 32.7351 45.5272 32.6077ZM39.2031 36.6838L39.1967 36.6873L39.1929 36.694C39.1902 36.6991 39.1859 36.708 39.1804 36.7214C39.1565 36.7795 39.1157 36.9085 39.0811 37.166C39.0055 37.7279 39.0013 38.5119 39.0013 39.8255C39.0013 41.1392 39.0055 41.9232 39.0811 42.4851C39.1157 42.7426 39.1565 42.8716 39.1804 42.9296C39.1837 42.9378 39.1866 42.9442 39.189 42.9492C39.1906 42.9524 39.1919 42.955 39.1929 42.9571L39.1966 42.9636L39.2031 42.9672C39.2082 42.9699 39.2171 42.9742 39.2305 42.9798C39.2886 43.0037 39.4176 43.0445 39.6751 43.0791C40.237 43.1546 41.021 43.1589 42.3346 43.1589C43.6483 43.1589 44.4323 43.1546 44.9942 43.0791C45.2517 43.0445 45.3806 43.0037 45.4387 42.9798C45.4522 42.9742 45.461 42.9699 45.4662 42.9672L45.4727 42.9636L45.4763 42.9571C45.479 42.9519 45.4833 42.9431 45.4889 42.9296C45.5128 42.8716 45.5536 42.7426 45.5882 42.4851C45.6637 41.9232 45.668 41.1392 45.668 39.8255C45.668 38.5119 45.6637 37.7279 45.5882 37.166C45.5536 36.9085 45.5128 36.7795 45.4889 36.7214C45.4833 36.708 45.479 36.6991 45.4763 36.694L45.4727 36.6875L45.4662 36.6838C45.461 36.6811 45.4522 36.6768 45.4387 36.6713C45.3806 36.6474 45.2517 36.6066 44.9942 36.572C44.4323 36.4965 43.6483 36.4922 42.3346 36.4922C41.021 36.4922 40.237 36.4965 39.6751 36.572C39.4176 36.6066 39.2886 36.6474 39.2305 36.6713C39.2171 36.6768 39.2082 36.6811 39.2031 36.6838Z" fill="white"/>
<path d="M26.3196 10.4922H37.0137C47.0963 10.4922 52.1376 10.4922 55.2698 13.4676C57.5251 15.6099 58.1565 18.6924 58.3333 23.8255V26.4922H5V23.8255C5.1768 18.6924 5.80825 15.6099 8.0635 13.4676C11.1957 10.4922 16.237 10.4922 26.3196 10.4922Z" fill="#F87304"/>
</svg>
