<svg width="64" height="64" viewBox="0 0 64 64" fill="none" xmlns="http://www.w3.org/2000/svg">
<path d="M55.7691 15.7045C56.668 17.0497 56.668 18.9223 56.668 22.6675V56.6675H58.0013C59.1059 56.6675 60.0013 57.5629 60.0013 58.6675C60.0013 59.7721 59.1059 60.6675 58.0013 60.6675H4.66797C3.5634 60.6675 2.66797 59.7721 2.66797 58.6675C2.66797 57.5629 3.5634 56.6675 4.66797 56.6675H6.0013V22.6675C6.0013 18.9223 6.0013 17.0497 6.90013 15.7045C7.28924 15.1221 7.78925 14.6221 8.37159 14.233C9.54819 13.4468 15.1363 13.3483 18.02 13.3359C18.0091 14.113 18.0091 14.9249 18.0092 15.7622V15.7622L18.0093 16.0008V19.3342H11.3346C10.2301 19.3342 9.33463 20.2296 9.33463 21.3342C9.33463 22.4387 10.2301 23.3342 11.3346 23.3342H18.0093V27.3342H11.3346C10.2301 27.3342 9.33463 28.2296 9.33463 29.3342C9.33463 30.4387 10.2301 31.3342 11.3346 31.3342H18.0093V35.3342H11.3346C10.2301 35.3342 9.33463 36.2296 9.33463 37.3342C9.33463 38.4387 10.2301 39.3342 11.3346 39.3342H18.0093V56.6675H44.6758V39.3342H51.3346C52.4392 39.3342 53.3346 38.4387 53.3346 37.3342C53.3346 36.2296 52.4392 35.3342 51.3346 35.3342H44.6758V31.3342H51.3346C52.4392 31.3342 53.3346 30.4387 53.3346 29.3342C53.3346 28.2296 52.4392 27.3342 51.3346 27.3342H44.6758V23.3342H51.3346C52.4392 23.3342 53.3346 22.4387 53.3346 21.3342C53.3346 20.2296 52.4392 19.3342 51.3346 19.3342H44.6758V16.0008L44.6758 15.7622C44.6759 14.925 44.676 14.113 44.665 13.3359C47.5488 13.3483 53.1211 13.4468 54.2977 14.233C54.88 14.6221 55.38 15.1221 55.7691 15.7045Z" fill="#F17125"/>
<path fill-rule="evenodd" clip-rule="evenodd" d="M28.668 5.33398H34.0013C39.0296 5.33398 41.5438 5.33398 43.1059 6.89608C44.668 8.45818 44.668 10.9723 44.668 16.0007V56.6673H48.668H56.668H58.0013C59.1059 56.6673 60.0013 57.5627 60.0013 58.6673C60.0013 59.7719 59.1059 60.6673 58.0013 60.6673H4.66797C3.5634 60.6673 2.66797 59.7719 2.66797 58.6673C2.66797 57.5627 3.5634 56.6673 4.66797 56.6673H6.0013H14.0013H18.0013V16.0007C18.0013 10.9723 18.0013 8.45818 19.5634 6.89608C21.1255 5.33398 23.6397 5.33398 28.668 5.33398ZM31.3346 48.6673C32.4392 48.6673 33.3346 49.5627 33.3346 50.6673V56.6673H29.3346V50.6673C29.3346 49.5627 30.2301 48.6673 31.3346 48.6673ZM26.0013 37.334C24.8967 37.334 24.0013 38.2294 24.0013 39.334C24.0013 40.4386 24.8967 41.334 26.0013 41.334H36.668C37.7725 41.334 38.668 40.4386 38.668 39.334C38.668 38.2294 37.7725 37.334 36.668 37.334H26.0013ZM24.0013 31.334C24.0013 30.2294 24.8967 29.334 26.0013 29.334H36.668C37.7725 29.334 38.668 30.2294 38.668 31.334C38.668 32.4386 37.7725 33.334 36.668 33.334H26.0013C24.8967 33.334 24.0013 32.4386 24.0013 31.334ZM26.0013 22.6673C24.8967 22.6673 24.0013 23.5627 24.0013 24.6673C24.0013 25.7719 24.8967 26.6673 26.0013 26.6673H36.668C37.7725 26.6673 38.668 25.7719 38.668 24.6673C38.668 23.5627 37.7725 22.6673 36.668 22.6673H26.0013ZM24.0013 16.6673C24.0013 15.5627 24.8967 14.6673 26.0013 14.6673H36.668C37.7725 14.6673 38.668 15.5627 38.668 16.6673C38.668 17.7719 37.7725 18.6673 36.668 18.6673H26.0013C24.8967 18.6673 24.0013 17.7719 24.0013 16.6673Z" fill="#00549B"/>
</svg>
