<svg width="160" height="160" viewBox="0 0 160 160" fill="none" xmlns="http://www.w3.org/2000/svg">
<path d="M21.1437 47.8105C26.769 42.1852 34.8635 40.6114 48.3452 40.1711L58.3471 40.0125C60.9566 40 63.7256 40 66.6666 40H93.3333C96.2743 40 99.0433 40 101.653 40.0125L111.655 40.1711C125.136 40.6114 133.231 42.1852 138.856 47.8105C146.667 55.621 146.667 68.1918 146.667 93.3333C146.667 118.475 146.667 131.046 138.856 138.856C131.046 146.667 118.475 146.667 93.3333 146.667H93.3333H66.6665H66.6664C41.5249 146.667 28.9542 146.667 21.1437 138.856C13.3333 131.046 13.3333 118.475 13.3333 93.3333C13.3333 68.1918 13.3333 55.621 21.1437 47.8105Z" fill="#00549B"/>
<path d="M85.0001 66.668C85.0001 63.9065 82.7615 61.668 80.0001 61.668C77.2387 61.668 75.0001 63.9065 75.0001 66.668V66.7362C67.7415 68.5649 61.6667 74.288 61.6667 82.2235C61.6667 91.9363 70.7672 98.3346 80.0001 98.3346C85.4948 98.3346 88.3334 101.886 88.3334 104.446C88.3334 107.006 85.4948 110.557 80.0001 110.557C74.5054 110.557 71.6667 107.006 71.6667 104.446C71.6667 101.684 69.4282 99.4457 66.6667 99.4457C63.9053 99.4457 61.6667 101.684 61.6667 104.446C61.6667 112.381 67.7415 118.104 75.0001 119.933V120.001C75.0001 122.763 77.2387 125.001 80.0001 125.001C82.7615 125.001 85.0001 122.763 85.0001 120.001V119.933C92.2587 118.104 98.3334 112.381 98.3334 104.446C98.3334 94.733 89.233 88.3346 80.0001 88.3346C74.5054 88.3346 71.6667 84.7837 71.6667 82.2235C71.6667 79.6633 74.5054 76.1124 80.0001 76.1124C85.4948 76.1124 88.3334 79.6633 88.3334 82.2235C88.3334 84.9849 90.572 87.2235 93.3334 87.2235C96.0948 87.2235 98.3334 84.9849 98.3334 82.2235C98.3334 74.288 92.2587 68.5649 85.0001 66.7362V66.668Z" fill="white"/>
<path d="M80.3478 8.33204H79.6545C73.6647 8.33185 68.6698 8.33169 64.7046 8.8648C60.5193 9.42749 56.7407 10.6653 53.7042 13.7018C50.6677 16.7382 49.4299 20.5169 48.8672 24.7022C48.4851 27.5446 48.377 34.3419 48.3464 40.1698L58.3483 40.0112C58.3786 34.3669 58.4745 28.2925 58.7781 26.0347C59.1917 22.9583 59.9065 21.6416 60.7753 20.7728C61.644 19.9041 62.9607 19.1892 66.0371 18.7756C69.2573 18.3427 73.5744 18.3321 80.0012 18.3321C86.4279 18.3321 90.745 18.3427 93.9652 18.7756C97.0416 19.1892 98.3583 19.9041 99.2271 20.7728C100.096 21.6416 100.811 22.9583 101.224 26.0347C101.528 28.2925 101.624 34.3669 101.654 40.0112L111.656 40.1698C111.625 34.3419 111.517 27.5446 111.135 24.7022C110.572 20.5169 109.335 16.7382 106.298 13.7018C103.262 10.6653 99.483 9.42749 95.2977 8.8648C91.3325 8.33169 86.3376 8.33185 80.3478 8.33204Z" fill="#F87304"/>
</svg>
