<svg width="98" height="36" viewBox="0 0 98 36" fill="none" xmlns="http://www.w3.org/2000/svg">
<g clip-path="url(#clip0_4636_11477)">
<path d="M18.3266 0.161133C28.2193 0.161133 36.2703 8.004 36.2703 17.647C36.2703 27.29 28.2221 35.1329 18.3266 35.1329C8.43105 35.1329 0.382812 27.2874 0.382812 17.647C0.382812 8.00664 8.43105 0.161133 18.3266 0.161133ZM18.3266 27.9905C24.1803 27.9905 28.9436 23.3487 28.9436 17.6444C28.9436 11.94 24.1803 7.29822 18.3266 7.29822C12.4728 7.29822 7.7095 11.9426 7.7095 17.647C7.7095 23.3514 12.4728 27.9931 18.3266 27.9931V27.9905Z" fill="url(#paint0_linear_4636_11477)"/>
<path d="M25.8319 24.961C31.3981 19.5369 31.3981 10.708 25.8319 5.28119C20.2657 -0.143001 11.2057 -0.143001 5.63672 5.28383C12.6325 -1.53341 24.0172 -1.53341 31.0129 5.28383C38.0087 12.1011 38.0087 23.1953 31.0129 30.0125L25.8319 24.9637V24.961Z" fill="url(#paint1_linear_4636_11477)"/>
<path d="M25.8326 24.9614C20.2664 30.3856 11.2064 30.3856 5.63744 24.9614C0.0712183 19.5372 0.0712183 10.7084 5.63744 5.28418C-1.35831 12.1014 -1.35831 23.1956 5.63744 30.0129C12.6332 36.8301 24.0179 36.8301 31.0137 30.0129L25.8326 24.964V24.9614Z" fill="url(#paint2_linear_4636_11477)"/>
<g style="mix-blend-mode:overlay">
<path d="M7.03747 26.153C5.16579 23.7978 4.04549 20.8478 4.04549 17.6467C4.04549 9.97298 10.4526 3.73199 18.3245 3.73199C21.6095 3.73199 24.6394 4.82106 27.0536 6.64762C26.6793 6.17446 26.2751 5.71716 25.8302 5.28365C20.4973 0.081503 11.9554 -0.129966 6.3539 4.63602C5.87106 5.05896 5.40992 5.50569 4.9759 5.97885C0.0851167 11.44 0.302124 19.7614 5.63777 24.9609C6.08264 25.3944 6.55192 25.7882 7.03747 26.153Z" fill="url(#paint3_linear_4636_11477)"/>
<path d="M25.8319 5.28391C30.7607 10.0869 31.3222 17.5518 27.5273 22.968C27.7795 23.1557 28.0237 23.3566 28.2542 23.5786L30.1802 25.4554C34.6342 19.3308 34.051 10.7662 28.4251 5.28391C22.1401 -0.838126 11.9191 -0.838126 5.63672 5.28391C11.2057 -0.142921 20.2657 -0.142921 25.8319 5.28391Z" fill="url(#paint4_linear_4636_11477)"/>
<path d="M22.8543 28.4136C22.5641 28.1308 22.2575 27.8797 21.9375 27.655C16.6235 30.145 10.0428 29.2516 5.64025 24.9614C0.0713166 19.5372 0.0713171 10.7084 5.63754 5.28418C-0.644805 11.4062 -0.644805 21.3664 5.63754 27.4885C10.786 32.5056 18.5793 33.4069 24.6826 30.2005L22.8516 28.4163L22.8543 28.4136Z" fill="url(#paint5_linear_4636_11477)"/>
</g>
<path d="M28.2519 23.5281C25.3901 20.7393 20.7516 20.7393 17.8899 23.5281L14.1953 27.1257C16.9703 25.6666 20.5075 26.0789 22.8512 28.3628L27.723 33.1103C30.5847 35.899 35.2233 35.899 38.085 33.1103L28.2519 23.5281Z" fill="url(#paint6_linear_4636_11477)"/>
<path d="M17.8907 23.5281C20.7524 20.7393 25.391 20.7393 28.2527 23.5281L36.046 31.1225L38.0886 33.1129C36.659 34.506 33.3171 33.5121 31.8876 32.119L25.5564 25.9494C22.9524 23.4118 18.8672 23.2082 16.0488 25.3309L17.8961 23.5307L17.8907 23.5281Z" fill="url(#paint7_linear_4636_11477)"/>
<path d="M39.6914 0.0634766C43.7386 0.0634766 47.0181 3.25931 47.0181 7.20321V35.1383C42.9709 35.1383 39.6914 31.9425 39.6914 27.9986V0.0634766Z" fill="url(#paint8_linear_4636_11477)"/>
<path d="M69.8768 35.2013C69.893 31.2574 66.6135 28.0483 62.5501 28.0298L47.007 27.9664C42.9435 27.9505 39.664 24.7388 39.6803 20.7949L39.6505 27.9347C39.6342 31.8786 42.9137 35.0876 46.9771 35.1061L69.8795 35.2013H69.8768Z" fill="url(#paint9_linear_4636_11477)"/>
<g opacity="0.37">
<path d="M39.6641 24.3664C39.6478 28.3103 42.9274 31.5193 46.9908 31.5378L63.4616 31.6066C65.4933 31.6145 69.885 33.2322 69.8769 35.2042C69.8932 31.2603 66.6136 28.0512 62.5502 28.0327L47.0071 27.9693C42.9436 27.9534 39.6641 24.7418 39.6804 20.7979L39.6641 24.369V24.3664Z" fill="url(#paint10_linear_4636_11477)"/>
</g>
<path opacity="0.31" d="M43.3308 26.9941L43.4176 6.25685C43.4258 4.2849 41.7982 0.0105735 39.7665 0L39.7421 5.34224L39.6797 20.8218C39.6797 23.4546 41.1445 25.757 43.3308 26.9967V26.9941Z" fill="url(#paint11_linear_4636_11477)"/>
<path d="M66.085 10.0398C67.7912 11.6813 68.6457 13.7643 68.6457 16.2887C68.6457 18.8131 67.7912 20.8961 66.085 22.5376C64.3761 24.1792 62.1816 25.0012 59.5015 25.0012C56.8215 25.0012 54.6243 24.1792 52.9181 22.5376C51.2092 20.8961 50.3574 18.8131 50.3574 16.2887C50.3574 13.7643 51.2119 11.6813 52.9181 10.0398C54.6243 8.39826 56.8215 7.57617 59.5015 7.57617C62.1816 7.57617 64.3788 8.39826 66.085 10.0398ZM55.8721 19.8916C56.7998 20.8194 58.0096 21.282 59.4988 21.282C60.988 21.282 62.1924 20.8194 63.1093 19.8916C64.0261 18.9638 64.4846 17.7637 64.4846 16.2887C64.4846 14.8137 64.0261 13.6136 63.1093 12.6858C62.1924 11.758 60.988 11.2954 59.4988 11.2954C58.0096 11.2954 56.7998 11.758 55.8721 12.6858C54.9444 13.6136 54.4805 14.8137 54.4805 16.2887C54.4805 17.7637 54.9444 18.9638 55.8721 19.8916Z" fill="#015399"/>
<path d="M76.0476 24.5649H71.957V0.0371094H76.0476V24.5649Z" fill="#015399"/>
<path d="M97.5837 16.4228V24.5644H97.0005C95.2536 24.5644 93.8376 23.1846 93.8376 21.4822H93.7698C93.2897 22.5554 92.5193 23.4092 91.4668 24.0463C90.4116 24.6833 89.1747 25.0006 87.7533 25.0006C85.529 25.0006 83.5759 24.2366 81.8914 22.7061C80.2069 21.1756 79.3633 19.0371 79.3633 16.2907C79.3633 13.7662 80.2177 11.6833 81.924 10.0417C83.6302 8.40021 85.8274 7.57812 88.5074 7.57812C91.1874 7.57812 93.4009 8.387 95.0746 10.0074C96.7482 11.6278 97.5837 13.7662 97.5837 16.4228ZM84.878 19.8909C85.8057 20.8187 87.0155 21.2813 88.5047 21.2813C89.9939 21.2813 91.1983 20.8187 92.1151 19.8909C93.032 18.9631 93.4904 17.763 93.4904 16.288C93.4904 14.813 93.032 13.6129 92.1151 12.6851C91.1983 11.7573 89.9939 11.2947 88.5047 11.2947C87.0155 11.2947 85.8057 11.7573 84.878 12.6851C83.9503 13.6129 83.4864 14.813 83.4864 16.288C83.4864 17.763 83.9503 18.9631 84.878 19.8909Z" fill="#015399"/>
<path d="M82.8499 32.593C82.8825 32.5613 82.9205 32.5216 82.9639 32.4714C83.0073 32.4212 83.048 32.363 83.0886 32.2969C83.1266 32.2308 83.1619 32.1542 83.189 32.0722C83.2161 31.9903 83.2297 31.9004 83.2297 31.8079C83.2297 31.6229 83.1972 31.4537 83.1321 31.2924C83.0669 31.1338 82.9693 30.9937 82.8364 30.8748C82.7035 30.7558 82.5353 30.6633 82.3373 30.5946C82.1365 30.5285 81.9032 30.4941 81.6374 30.4941H79.877V35.1993H81.8083C82.0877 35.1993 82.3346 35.1623 82.5434 35.0883C82.7523 35.0143 82.9259 34.9112 83.0642 34.7817C83.2026 34.6522 83.3057 34.5015 83.3708 34.327C83.4386 34.1552 83.4711 33.9702 83.4711 33.7719C83.4711 33.5076 83.4087 33.2723 83.284 33.0661C83.1592 32.86 83.0154 32.7014 82.8499 32.5877V32.593ZM81.9955 31.3585C82.0606 31.3823 82.1148 31.414 82.1582 31.4537C82.2695 31.5568 82.3237 31.6784 82.3237 31.8211C82.3237 31.9506 82.302 32.059 82.2559 32.1436C82.2098 32.2282 82.1637 32.2943 82.1175 32.3366H80.7748V31.303H81.6103C81.7676 31.303 81.8951 31.3215 81.9982 31.3585H81.9955ZM81.8571 33.1507C82.1013 33.1507 82.2803 33.2115 82.3969 33.3358C82.5082 33.4574 82.5624 33.5975 82.5624 33.764C82.5624 33.9305 82.5 34.0785 82.3725 34.2001C82.2478 34.3217 82.0389 34.3799 81.7513 34.3799H80.7721V33.1534H81.8544L81.8571 33.1507Z" fill="#02549A"/>
<path d="M86.7458 33.1748C86.8895 33.0796 87.0116 32.966 87.1093 32.8391C87.2069 32.7122 87.2774 32.5695 87.3236 32.4162C87.3697 32.2628 87.3914 32.1042 87.3914 31.943C87.3914 31.7315 87.3561 31.5386 87.2856 31.3615C87.215 31.1843 87.1065 31.031 86.9655 30.9041C86.8217 30.7773 86.6454 30.6768 86.4311 30.6054C86.2168 30.5341 85.97 30.4971 85.6906 30.4971H83.7891V35.2023H84.7032V33.455H85.2132L86.4745 35.2023H87.546L86.2412 33.3942C86.4338 33.344 86.6047 33.2726 86.7485 33.1748H86.7458ZM85.6933 31.3033C85.7503 31.3033 85.8045 31.3059 85.856 31.3139C86.0188 31.3377 86.1517 31.3958 86.2548 31.4857C86.3931 31.6073 86.4637 31.758 86.4637 31.9377C86.4637 32.0276 86.4474 32.1148 86.4203 32.1994C86.3904 32.284 86.3443 32.358 86.2792 32.4241C86.2141 32.4875 86.1327 32.5404 86.0324 32.5827C85.932 32.6223 85.8099 32.6435 85.6689 32.6435H84.7005V31.3086H85.6933V31.3033Z" fill="#02549A"/>
<path d="M87.8653 30.4971C87.8653 30.4971 87.8464 30.4971 87.8382 30.4971H87.8301V35.2023H88.7632V30.4971H87.8653Z" fill="#02549A"/>
<path d="M71.9062 30.6211H72.6603V32.0776C72.7824 31.993 72.9153 31.9216 73.0618 31.8661C73.2083 31.8106 73.3602 31.7842 73.5202 31.7842C73.7454 31.7842 73.9597 31.8265 74.1604 31.9084C74.3611 31.993 74.5347 32.1067 74.6812 32.2494C74.8277 32.3921 74.9443 32.5613 75.0311 32.7543C75.1179 32.9473 75.1586 33.1561 75.1586 33.3755C75.1586 33.5949 75.1152 33.8037 75.0311 33.9967C74.9443 34.1896 74.8304 34.3588 74.6812 34.5016C74.5347 34.6443 74.3611 34.758 74.1604 34.8425C73.9597 34.9271 73.7454 34.9668 73.5202 34.9668C73.3602 34.9668 73.2083 34.9404 73.0618 34.8848C72.9153 34.8293 72.7824 34.7606 72.6603 34.6734V34.906H71.9062V30.6211ZM72.6603 33.8539C72.7146 33.9306 72.7797 33.9993 72.8557 34.0548C72.9235 34.1077 73.0076 34.1553 73.1133 34.1949C73.2191 34.2346 73.3439 34.2557 73.4904 34.2557C73.6206 34.2557 73.74 34.2319 73.8485 34.1844C73.957 34.1368 74.0519 34.0733 74.1333 33.994C74.2147 33.9147 74.2798 33.8222 74.3259 33.7165C74.372 33.6107 74.3937 33.4971 74.3937 33.3728C74.3937 33.2486 74.372 33.1349 74.3259 33.0292C74.2798 32.9235 74.2147 32.8309 74.1333 32.7516C74.0519 32.6723 73.957 32.6089 73.8485 32.5613C73.74 32.5137 73.6206 32.49 73.4904 32.49C73.3602 32.49 73.2408 32.5085 73.1405 32.5428C73.0401 32.5772 72.9587 32.6168 72.8936 32.6618C72.8258 32.7067 72.7743 32.7516 72.7363 32.7939C72.6983 32.8362 72.6739 32.8653 72.6603 32.8838V33.8513V33.8539Z" fill="#02549A"/>
<path d="M75.538 35.2977H75.6763C75.7767 35.2977 75.8635 35.2792 75.9394 35.2448C76.0154 35.2104 76.0859 35.1285 76.1537 34.9963L76.5362 34.2482L75.2559 31.8428H76.1049L76.9268 33.4817L77.7623 31.8428H78.5923L77.0353 34.9038L76.802 35.3373C76.7179 35.5012 76.6311 35.6281 76.5443 35.7179C76.4575 35.8078 76.3653 35.8739 76.2731 35.9136C76.1809 35.9532 76.0886 35.9796 75.9937 35.9876C75.8987 35.9955 75.8011 36.0008 75.7007 36.0008H75.538V35.2977Z" fill="#02549A"/>
</g>
<defs>
<linearGradient id="paint0_linear_4636_11477" x1="-1.90969" y1="-2.06951" x2="22.7996" y2="23.2868" gradientUnits="userSpaceOnUse">
<stop stop-color="#18AEE5" stop-opacity="0.37"/>
<stop offset="0.18" stop-color="#18AEE5"/>
<stop offset="0.55" stop-color="#005196" stop-opacity="0.63"/>
<stop offset="0.98" stop-color="#005196"/>
</linearGradient>
<linearGradient id="paint1_linear_4636_11477" x1="20.9493" y1="0.282581" x2="20.9493" y2="31.1624" gradientUnits="userSpaceOnUse">
<stop stop-color="#18AEE5" stop-opacity="0.37"/>
<stop offset="0.18" stop-color="#18AEE5"/>
<stop offset="0.55" stop-color="#005196" stop-opacity="0.63"/>
<stop offset="0.98" stop-color="#005196"/>
</linearGradient>
<linearGradient id="paint2_linear_4636_11477" x1="-1.03552" y1="20.2033" x2="26.2802" y2="20.2033" gradientUnits="userSpaceOnUse">
<stop stop-color="#18AEE5" stop-opacity="0.37"/>
<stop offset="0.18" stop-color="#18AEE5"/>
<stop offset="0.55" stop-color="#005196" stop-opacity="0.63"/>
<stop offset="0.98" stop-color="#005196"/>
</linearGradient>
<linearGradient id="paint3_linear_4636_11477" x1="-2.16633" y1="13.6843" x2="17.1717" y2="13.6843" gradientUnits="userSpaceOnUse">
<stop offset="0.06" stop-color="white"/>
<stop offset="0.95" stop-color="#3D3634"/>
</linearGradient>
<linearGradient id="paint4_linear_4636_11477" x1="13.8775" y1="2.20967" x2="29.3281" y2="18.0649" gradientUnits="userSpaceOnUse">
<stop offset="0.06" stop-color="white"/>
<stop offset="0.95" stop-color="#3D3634"/>
</linearGradient>
<linearGradient id="paint5_linear_4636_11477" x1="0.928494" y1="18.6781" x2="24.6853" y2="18.6781" gradientUnits="userSpaceOnUse">
<stop offset="0.06" stop-color="white"/>
<stop offset="0.95" stop-color="#3D3634"/>
</linearGradient>
<linearGradient id="paint6_linear_4636_11477" x1="18.1444" y1="23.0027" x2="39.8561" y2="39.9151" gradientUnits="userSpaceOnUse">
<stop offset="0.18" stop-color="#F17025"/>
<stop offset="0.55" stop-color="#F17025" stop-opacity="0.63"/>
<stop offset="0.98" stop-color="#F17025"/>
</linearGradient>
<linearGradient id="paint7_linear_4636_11477" x1="16.0461" y1="27.6094" x2="38.0886" y2="27.6094" gradientUnits="userSpaceOnUse">
<stop offset="0.06" stop-color="#DEB426"/>
<stop offset="0.74" stop-color="#F17025"/>
</linearGradient>
<linearGradient id="paint8_linear_4636_11477" x1="43.3534" y1="-2.30498" x2="43.3534" y2="28.588" gradientUnits="userSpaceOnUse">
<stop stop-color="#18AEE5"/>
<stop offset="0.18" stop-color="#27B7EA"/>
<stop offset="0.55" stop-color="#0B67B2"/>
<stop offset="0.98" stop-color="#005196"/>
</linearGradient>
<linearGradient id="paint9_linear_4636_11477" x1="39.7567" y1="27.9352" x2="91.5665" y2="28.1579" gradientUnits="userSpaceOnUse">
<stop stop-color="#18AEE5"/>
<stop offset="0.18" stop-color="#27B7EA"/>
<stop offset="0.55" stop-color="#0B67B2"/>
<stop offset="0.98" stop-color="#005196"/>
</linearGradient>
<linearGradient id="paint10_linear_4636_11477" x1="39.6477" y1="27.9359" x2="69.909" y2="28.066" gradientUnits="userSpaceOnUse">
<stop offset="0.06" stop-color="white"/>
<stop offset="0.95" stop-color="#3D3634"/>
</linearGradient>
<linearGradient id="paint11_linear_4636_11477" x1="41.6213" y1="-3.48838" x2="41.5111" y2="23.4896" gradientUnits="userSpaceOnUse">
<stop offset="0.06" stop-color="white"/>
<stop offset="0.95" stop-color="#3D3634"/>
</linearGradient>
<clipPath id="clip0_4636_11477">
<rect width="97.2" height="36" fill="white" transform="translate(0.382812)"/>
</clipPath>
</defs>
</svg>
