<svg width="18" height="17" viewBox="0 0 18 17" fill="none" xmlns="http://www.w3.org/2000/svg">
<path fill-rule="evenodd" clip-rule="evenodd" d="M6.08333 4.4223C6.08333 2.84567 7.38919 1.56757 9 1.56757C10.6108 1.56757 11.9167 2.84567 11.9167 4.4223C11.9167 5.99893 10.6108 7.27703 9 7.27703C7.38919 7.27703 6.08333 5.99893 6.08333 4.4223ZM9 0.25C6.64571 0.25 4.73718 2.118 4.73718 4.4223C4.73718 6.72659 6.64571 8.59459 9 8.59459C11.3543 8.59459 13.2628 6.72659 13.2628 4.4223C13.2628 2.118 11.3543 0.25 9 0.25ZM3.61538 9.91216C1.75673 9.91216 0.25 11.3869 0.25 13.2061C0.25 15.0253 1.75673 16.5 3.61538 16.5H14.3846C16.2433 16.5 17.75 15.0253 17.75 13.2061C17.75 11.3869 16.2433 9.91216 14.3846 9.91216H3.61538ZM1.59615 13.2061C1.59615 12.1146 2.50019 11.2297 3.61538 11.2297H14.3846C15.4998 11.2297 16.4038 12.1146 16.4038 13.2061C16.4038 14.2976 15.4998 15.1824 14.3846 15.1824H3.61538C2.50019 15.1824 1.59615 14.2976 1.59615 13.2061Z" fill="#777777"/>
</svg>
