<svg width="15" height="10" viewBox="0 0 15 10" fill="none" xmlns="http://www.w3.org/2000/svg">
<path d="M3.05264 2.02122C2.8307 1.86938 2.52653 1.92456 2.37328 2.14447C2.22002 2.36438 2.27572 2.66574 2.49767 2.81758L6.06388 5.25727C6.92302 5.84501 8.06425 5.82656 8.90353 5.21133L12.1819 2.8084C12.3987 2.64946 12.4445 2.34646 12.284 2.13162C12.1237 1.91679 11.8178 1.87147 11.601 2.03041L8.32263 4.43333C7.81908 4.80249 7.13432 4.81352 6.61886 4.46088L3.05264 2.02122Z" fill="#00549B"/>
<path fill-rule="evenodd" clip-rule="evenodd" d="M2.77511 0C1.42651 0 0.333252 1.08318 0.333252 2.41935V7.58065C0.333252 8.91684 1.42651 10 2.77511 10H11.8914C13.24 10 14.3333 8.91684 14.3333 7.58065V2.41935C14.3333 1.08318 13.24 0 11.8914 0H2.77511ZM1.31 2.41935C1.31 1.61765 1.96595 0.967742 2.77511 0.967742H11.8914C12.7005 0.967742 13.3565 1.61765 13.3565 2.41935V7.58065C13.3565 8.38232 12.7005 9.03226 11.8914 9.03226H2.77511C1.96595 9.03226 1.31 8.38232 1.31 7.58065V2.41935Z" fill="#00549B"/>
</svg>
