<svg width="15" height="14" viewBox="0 0 15 14" fill="none" xmlns="http://www.w3.org/2000/svg">
<path fill-rule="evenodd" clip-rule="evenodd" d="M12.9272 0.924397C11.583 -0.419776 9.31468 -0.317593 8.37875 1.35945L7.85949 2.28988C7.2483 3.38503 7.50876 4.76682 8.40348 5.67247C8.41539 5.6888 8.47855 5.78075 8.48641 5.94142C8.49645 6.14649 8.42362 6.62076 7.68881 7.35556C6.95425 8.09013 6.48005 8.16314 6.27489 8.15316C6.11409 8.14534 6.02206 8.08215 6.00571 8.07022C5.10006 7.1755 3.71828 6.91505 2.62313 7.52624L1.6927 8.0455C0.0156593 8.98143 -0.086524 11.2497 1.25765 12.5939C1.97664 13.3129 2.93266 13.9518 4.05611 13.9943C5.721 14.0575 8.48544 13.6275 11.2231 10.8898C13.9608 8.15218 14.3907 5.38775 14.3276 3.72286C14.285 2.5994 13.6462 1.64339 12.9272 0.924397ZM9.4267 1.9443C9.90596 1.08555 11.1938 0.888257 12.0786 1.773C12.6989 2.39333 13.1022 3.07804 13.1284 3.76832C13.181 5.15672 12.8382 7.57754 10.3745 10.0412C7.91079 12.505 5.48997 12.8477 4.10157 12.7951C3.41129 12.7689 2.72658 12.3656 2.10625 11.7453C1.22151 10.8606 1.4188 9.5727 2.27755 9.09345L3.20798 8.57419C3.78675 8.25119 4.59972 8.36137 5.17043 8.93205L5.1706 8.93223C5.22666 8.98825 5.58335 9.32105 6.21658 9.35185C6.86481 9.38338 7.64947 9.09212 8.53742 8.20416C9.42566 7.31592 9.71683 6.53105 9.68508 5.88273C9.65408 5.24946 9.32107 4.89295 9.26535 4.83722L9.26532 4.83719C8.69462 4.26649 8.58444 3.45351 8.90744 2.87472L9.4267 1.9443Z" fill="#00549B"/>
</svg>
