<svg width="16" height="12" viewBox="0 0 16 12" fill="none" xmlns="http://www.w3.org/2000/svg">
<path d="M0 2.57143C0 1.15127 1.07452 0 2.4 0H13.6C14.9255 0 16 1.15127 16 2.57143V9.42857C16 10.8488 14.9255 12 13.6 12H2.4C1.07452 12 0 10.8488 0 9.42857V2.57143Z" fill="#1078CA"/>
<path fill-rule="evenodd" clip-rule="evenodd" d="M1.90612 2.20637C2.09441 1.9142 2.46809 1.84089 2.74078 2.04263L7.12206 5.28389C7.75542 5.7524 8.59662 5.73774 9.21534 5.24729L13.243 2.05482C13.5094 1.84367 13.8851 1.90387 14.0822 2.1893C14.2793 2.47472 14.2231 2.87728 13.9567 3.08843L9.92902 6.28091C8.8979 7.09829 7.49574 7.1228 6.44022 6.34194L2.05894 3.10063C1.78626 2.8989 1.71784 2.49852 1.90612 2.20637Z" fill="#BBDEFA"/>
</svg>