<svg width="20" height="20" viewBox="0 0 20 20" fill="none" xmlns="http://www.w3.org/2000/svg">
<path fill-rule="evenodd" clip-rule="evenodd" d="M9.99216 4.43329H10C11.1161 4.43329 12.201 4.66282 13.2 5.0942L10.5932 7.34968C10.4058 7.32268 10.203 7.30243 10 7.30243C8.27512 7.30243 6.87805 8.51085 6.87805 10.0028C6.87805 10.1783 6.90146 10.3539 6.93268 10.5159L4.04488 13.0137C3.26439 12.2306 2.58537 11.2848 2.04683 10.1985C1.98439 10.077 1.98439 9.92851 2.04683 9.80029C3.71707 6.43831 6.69073 4.43329 9.99216 4.43329ZM15.1434 6.26278C16.2751 7.15391 17.2351 8.35557 17.9532 9.80029C18.0156 9.92851 18.0156 10.077 17.9532 10.1985C16.283 13.5605 13.3093 15.5723 10 15.5723H9.99216C8.48584 15.5723 7.04195 15.147 5.76975 14.3706L8.2439 12.2306C8.74344 12.5202 9.35216 12.6964 10 12.6964C11.717 12.6964 13.1142 11.488 13.1142 10.0028C13.1142 9.44248 12.9112 8.91592 12.5756 8.48384L15.1434 6.26278Z" fill="#1078CA"/>
<path d="M16.8242 4.87794C17.0586 4.6771 17.0586 4.35147 16.8242 4.15063C16.5899 3.94979 16.2101 3.94979 15.9758 4.15063L3.17573 15.1221C2.94142 15.3229 2.94142 15.6485 3.17573 15.8494C3.41005 16.0502 3.78995 16.0502 4.02426 15.8494L9.12536 11.477C9.3888 11.5899 9.6864 11.6535 10.0014 11.6535C11.0706 11.6535 11.9448 10.9089 11.9448 9.99788C11.9448 9.726 11.868 9.46926 11.7322 9.24257L16.8242 4.87794Z" fill="#56ADF2"/>
</svg>