<svg width="14" height="14" viewBox="0 0 14 14" fill="none" xmlns="http://www.w3.org/2000/svg">
<path fill-rule="evenodd" clip-rule="evenodd" d="M4.25085 1.49722C4.37964 1.23963 4.64291 1.07692 4.93089 1.07692H9.06913C9.3571 1.07692 9.62037 1.23963 9.74917 1.49722C10.0604 2.11964 10.6966 2.51282 11.3924 2.51282H12.7436C12.8427 2.51282 12.9231 2.59318 12.9231 2.69231C12.9231 2.79144 12.8427 2.87179 12.7436 2.87179H1.25641C1.15728 2.87179 1.07692 2.79144 1.07692 2.69231C1.07692 2.59318 1.15728 2.51282 1.25641 2.51282H2.60757C3.30346 2.51282 3.93963 2.11964 4.25085 1.49722ZM4.93089 0C4.235 0 3.59883 0.393177 3.28762 1.0156C3.15882 1.27319 2.89555 1.4359 2.60757 1.4359H1.25641C0.562513 1.4359 0 1.99841 0 2.69231C0 3.38621 0.562513 3.94872 1.25641 3.94872H12.7436C13.4375 3.94872 14 3.38621 14 2.69231C14 1.99841 13.4375 1.4359 12.7436 1.4359H11.3924C11.1044 1.4359 10.8412 1.27319 10.7124 1.0156C10.4011 0.393177 9.76496 0 9.06913 0H4.93089ZM2.1167 5.02564C1.33281 5.02564 0.740327 5.73555 0.880557 6.50684L1.9482 12.3788C2.11888 13.3176 2.93653 14 3.89071 14H10.1094C11.0635 14 11.8812 13.3176 12.0518 12.3788L13.1195 6.50677C13.2597 5.73555 12.6673 5.02564 11.8833 5.02564H2.1167ZM1.94011 6.31414C1.92007 6.20401 2.00471 6.10256 2.1167 6.10256H11.8833C11.9953 6.10256 12.08 6.20401 12.06 6.31414L10.9923 12.1862C10.9148 12.6129 10.5431 12.9231 10.1094 12.9231H3.89071C3.45699 12.9231 3.08533 12.6129 3.00775 12.1862L1.94011 6.31414Z" fill="#E84040"/>
</svg>
