<svg width="10" height="14" viewBox="0 0 10 14" fill="none" xmlns="http://www.w3.org/2000/svg">
<path fill-rule="evenodd" clip-rule="evenodd" d="M2.41935 0C1.08318 0 0 1.20539 0 2.69231V11.3077C0 12.7946 1.08318 14 2.41935 14H7.58065C8.91684 14 10 12.7946 10 11.3077V2.69231C10 1.20539 8.91684 0 7.58065 0H2.41935ZM4.19355 12.9231H7.58065C8.38232 12.9231 9.03226 12.1998 9.03226 11.3077V2.69231C9.03226 1.80016 8.38232 1.07692 7.58065 1.07692H2.41935C1.61765 1.07692 0.967742 1.80016 0.967742 2.69231V9.69231H1.77419C3.11037 9.69231 4.19355 10.8977 4.19355 12.3846V12.9231ZM0.967742 10.7692H1.77419C2.5759 10.7692 3.22581 11.4925 3.22581 12.3846V12.9231H2.41935C1.61765 12.9231 0.967742 12.1998 0.967742 11.3077V10.7692ZM2.58065 3.41026C2.58065 3.11287 2.79728 2.87179 3.06452 2.87179H6.93548C7.20271 2.87179 7.41935 3.11287 7.41935 3.41026C7.41935 3.70764 7.20271 3.94872 6.93548 3.94872H3.06452C2.79728 3.94872 2.58065 3.70764 2.58065 3.41026ZM3.06452 6.46154C2.79728 6.46154 2.58065 6.70263 2.58065 7C2.58065 7.29737 2.79728 7.53846 3.06452 7.53846H6.93548C7.20271 7.53846 7.41935 7.29737 7.41935 7C7.41935 6.70263 7.20271 6.46154 6.93548 6.46154H3.06452Z" fill="#1078CA"/>
</svg>
