<svg width="20" height="20" viewBox="0 0 20 20" fill="none" xmlns="http://www.w3.org/2000/svg">
<path opacity="0.5" d="M18 10C18 14.4183 14.4183 18 10 18C5.58172 18 2 14.4183 2 10C2 5.58172 5.58172 2 10 2C14.4183 2 18 5.58172 18 10Z" fill="#1078CA"/>
<path d="M9.9999 6.5999C9.50285 6.5999 9.0999 7.00285 9.0999 7.4999C9.0999 7.83127 8.83127 8.0999 8.4999 8.0999C8.16853 8.0999 7.8999 7.83127 7.8999 7.4999C7.8999 6.3401 8.8401 5.3999 9.9999 5.3999C11.1597 5.3999 12.0999 6.3401 12.0999 7.4999C12.0999 8.06857 11.8731 8.58549 11.5063 8.96307C11.4325 9.03905 11.362 9.1094 11.2949 9.17651L11.2949 9.17652C11.1222 9.34903 10.9709 9.50017 10.8382 9.6707C10.663 9.89584 10.5999 10.0613 10.5999 10.1999V10.7999C10.5999 11.1313 10.3313 11.3999 9.9999 11.3999C9.66853 11.3999 9.3999 11.1313 9.3999 10.7999V10.1999C9.3999 9.67575 9.64391 9.25145 9.89124 8.93367C10.0742 8.69854 10.3043 8.46898 10.4909 8.28267C10.5472 8.22647 10.5996 8.17421 10.6455 8.12692C10.8036 7.96425 10.8999 7.74394 10.8999 7.4999C10.8999 7.00285 10.497 6.5999 9.9999 6.5999Z" fill="#1078CA"/>
<path d="M9.9999 13.9999C10.4417 13.9999 10.7999 13.6417 10.7999 13.1999C10.7999 12.7581 10.4417 12.3999 9.9999 12.3999C9.55807 12.3999 9.1999 12.7581 9.1999 13.1999C9.1999 13.6417 9.55807 13.9999 9.9999 13.9999Z" fill="#1078CA"/>
</svg>
