<svg width="19" height="18" viewBox="0 0 19 18" fill="none" xmlns="http://www.w3.org/2000/svg">
<path fill-rule="evenodd" clip-rule="evenodd" d="M8.62485 1.99997C5.24217 1.99997 2.49997 4.74217 2.49997 8.12485C2.49997 11.5075 5.24217 14.2497 8.62485 14.2497C12.0075 14.2497 14.7497 11.5075 14.7497 8.12485C14.7497 4.74217 12.0075 1.99997 8.62485 1.99997ZM0.75 8.12485C0.75 3.77569 4.27569 0.25 8.62485 0.25C12.974 0.25 16.4997 3.77569 16.4997 8.12485C16.4997 12.474 12.974 15.9997 8.62485 15.9997C4.27569 15.9997 0.75 12.474 0.75 8.12485Z" fill="#292929"/>
<path fill-rule="evenodd" clip-rule="evenodd" d="M12.9501 12.4498C13.2918 12.1081 13.8458 12.1081 14.1875 12.4498L17.9937 16.256C18.3354 16.5977 18.3354 17.1517 17.9937 17.4934C17.652 17.8351 17.098 17.8351 16.7563 17.4934L12.9501 13.6872C12.6084 13.3455 12.6084 12.7915 12.9501 12.4498Z" fill="#292929"/>
</svg>
