<svg width="14" height="16" viewBox="0 0 14 16" fill="none" xmlns="http://www.w3.org/2000/svg">
<g id="Lock">
<path id="Vector" d="M7 0C4.37665 0 2.25 1.81474 2.25 4.05333V5.94643L3.75 5.76V4.05333C3.75 2.52166 5.2051 1.28 7 1.28C8.7949 1.28 10.25 2.52166 10.25 4.05333V5.76L11.75 5.93304V4.05333C11.75 1.81474 9.6234 0 7 0Z" fill="#BBDEFA"/>
<path id="Vector_2" d="M0 8.32007C0 6.90618 1.34315 5.76007 3 5.76007H11C12.6569 5.76007 14 6.90618 14 8.32007V13.4401C14 14.854 12.6569 16.0001 11 16.0001H3C1.34315 16.0001 0 14.854 0 13.4401V8.32007Z" fill="#1078CA"/>
<path id="Vector_3" d="M7.75 9.60002C7.75 9.24657 7.4142 8.96002 7 8.96002C6.5858 8.96002 6.25 9.24657 6.25 9.60002V11.3067C6.25 11.6601 6.5858 11.9467 7 11.9467C7.4142 11.9467 7.75 11.6601 7.75 11.3067V9.60002Z" fill="#BBDEFA"/>
</g>
</svg>
