<svg width="19" height="18" viewBox="0 0 19 18" fill="none" xmlns="http://www.w3.org/2000/svg">
<g clip-path="url(#clip0_436_18598)">
<path d="M14.9223 11.4453L13.0173 11.2278C12.5598 11.1753 12.1098 11.3328 11.7873 11.6553L10.4073 13.0353C8.28479 11.9553 6.54479 10.2228 5.46479 8.09281L6.85229 6.70531C7.17479 6.38281 7.33229 5.93281 7.27979 5.47531L7.06229 3.58531C6.97229 2.82781 6.33479 2.25781 5.56979 2.25781H4.27229C3.42479 2.25781 2.71979 2.96281 2.77229 3.81031C3.16979 10.2153 8.29229 15.3303 14.6898 15.7278C15.5373 15.7803 16.2423 15.0753 16.2423 14.2278V12.9303C16.2498 12.1728 15.6798 11.5353 14.9223 11.4453Z" fill="#1078CA"/>
</g>
<defs>
<clipPath id="clip0_436_18598">
<rect width="18" height="18" fill="white" transform="translate(0.5)"/>
</clipPath>
</defs>
</svg>
