<svg width="20" height="20" viewBox="0 0 20 20" fill="none" xmlns="http://www.w3.org/2000/svg">
<path d="M16.8189 5.61382C17.0698 5.95417 17.0698 6.42797 17.0698 7.37556V15.978H17.4419C17.7501 15.978 18 16.2045 18 16.484C18 16.7635 17.7501 16.99 17.4419 16.99H2.55814C2.24989 16.99 2 16.7635 2 16.484C2 16.2045 2.24989 15.978 2.55814 15.978H2.93023V7.37556C2.93023 6.42797 2.93023 5.95417 3.18107 5.61382C3.28966 5.46648 3.42919 5.33997 3.59171 5.24152C3.92006 5.04261 5.47952 5.01768 6.28429 5.01456C6.28123 5.21116 6.28126 5.4166 6.28129 5.62842L6.28129 5.68881V6.53218H4.4186C4.11035 6.53218 3.86047 6.75874 3.86047 7.03821C3.86047 7.31768 4.11035 7.54423 4.4186 7.54423H6.28129V8.55628H4.4186C4.11035 8.55628 3.86047 8.78283 3.86047 9.0623C3.86047 9.34177 4.11035 9.56833 4.4186 9.56833H6.28129V10.5804H4.4186C4.11035 10.5804 3.86047 10.8069 3.86047 11.0864C3.86047 11.3659 4.11035 11.5924 4.4186 11.5924H6.28129V15.978H13.7231V11.5924H15.5814C15.8896 11.5924 16.1395 11.3659 16.1395 11.0864C16.1395 10.8069 15.8896 10.5804 15.5814 10.5804H13.7231V9.56833H15.5814C15.8896 9.56833 16.1395 9.34177 16.1395 9.0623C16.1395 8.78283 15.8896 8.55628 15.5814 8.55628H13.7231V7.54423H15.5814C15.8896 7.54423 16.1395 7.31768 16.1395 7.03821C16.1395 6.75874 15.8896 6.53218 15.5814 6.53218H13.7231V5.68881L13.7231 5.62843C13.7231 5.4166 13.7232 5.21116 13.7201 5.01456C14.5249 5.01768 16.0799 5.04261 16.4083 5.24152C16.5708 5.33997 16.7103 5.46648 16.8189 5.61382Z" fill="#1078CA"/>
<path fill-rule="evenodd" clip-rule="evenodd" d="M9.25581 3H10.7442C12.1474 3 12.8491 3 13.285 3.39523C13.7209 3.79046 13.7209 4.42657 13.7209 5.6988V15.988H14.8372H17.0698H17.4419C17.7501 15.988 18 16.2145 18 16.494C18 16.7734 17.7501 17 17.4419 17H2.55814C2.24989 17 2 16.7734 2 16.494C2 16.2145 2.24989 15.988 2.55814 15.988H2.93023H5.16279H6.27907V5.6988C6.27907 4.42657 6.27907 3.79046 6.715 3.39523C7.15094 3 7.85256 3 9.25581 3ZM10 13.9639C10.3083 13.9639 10.5581 14.1904 10.5581 14.4699V15.988H9.44186V14.4699C9.44186 14.1904 9.69175 13.9639 10 13.9639ZM8.51163 11.0964C8.20338 11.0964 7.95349 11.3229 7.95349 11.6024C7.95349 11.8819 8.20338 12.1084 8.51163 12.1084H11.4884C11.7966 12.1084 12.0465 11.8819 12.0465 11.6024C12.0465 11.3229 11.7966 11.0964 11.4884 11.0964H8.51163ZM7.95349 9.57831C7.95349 9.29884 8.20338 9.07229 8.51163 9.07229H11.4884C11.7966 9.07229 12.0465 9.29884 12.0465 9.57831C12.0465 9.85778 11.7966 10.0843 11.4884 10.0843H8.51163C8.20338 10.0843 7.95349 9.85778 7.95349 9.57831ZM8.51163 7.38554C8.20338 7.38554 7.95349 7.6121 7.95349 7.89157C7.95349 8.17104 8.20338 8.39759 8.51163 8.39759H11.4884C11.7966 8.39759 12.0465 8.17104 12.0465 7.89157C12.0465 7.6121 11.7966 7.38554 11.4884 7.38554H8.51163ZM7.95349 5.86747C7.95349 5.588 8.20338 5.36145 8.51163 5.36145H11.4884C11.7966 5.36145 12.0465 5.588 12.0465 5.86747C12.0465 6.14694 11.7966 6.37349 11.4884 6.37349H8.51163C8.20338 6.37349 7.95349 6.14694 7.95349 5.86747Z" fill="#BBDEFA"/>
</svg>