<svg width="20" height="24" viewBox="0 0 20 24" fill="none" xmlns="http://www.w3.org/2000/svg">
<path d="M1.83214 7.68C1.83214 3.43845 5.48902 0 9.99995 0C14.5111 0 18.1678 3.43845 18.1678 7.68V11.3852C18.1678 12.2911 18.5605 13.1693 19.2417 13.8098C20.8399 15.3125 19.7487 17.92 17.4885 17.92H2.51144C0.251335 17.92 -0.839918 15.3125 0.758219 13.8098C1.43946 13.1693 1.83214 12.2911 1.83214 11.3852V7.68Z" fill="#1078CA"/>
<path fill-rule="evenodd" clip-rule="evenodd" d="M7.27733 19.52C7.84118 19.52 8.29831 19.9498 8.29831 20.48C8.29831 21.3637 9.0601 22.08 9.99995 22.08C10.9398 22.08 11.7016 21.3637 11.7016 20.48C11.7016 19.9498 12.1587 19.52 12.7226 19.52C13.2864 19.52 13.7436 19.9498 13.7436 20.48C13.7436 22.4241 12.0675 24 9.99995 24C7.93239 24 6.25635 22.4241 6.25635 20.48C6.25635 19.9498 6.71346 19.52 7.27733 19.52Z" fill="#BBDEFA"/>
</svg>
