<svg width="298" height="56" viewBox="0 0 298 56" fill="none" xmlns="http://www.w3.org/2000/svg">
<g clip-path="url(#clip0_4999_13579)">
<path d="M15.8955 12.1465C24.659 12.1465 31.7909 19.276 31.7909 28.042C31.7909 36.8079 24.6614 43.9374 15.8955 43.9374C7.12953 43.9374 0 36.8055 0 28.042C0 19.2784 7.12953 12.1465 15.8955 12.1465ZM15.8955 37.4447C21.081 37.4447 25.3006 33.2251 25.3006 28.0396C25.3006 22.854 21.081 18.6344 15.8955 18.6344C10.7099 18.6344 6.49035 22.8564 6.49035 28.042C6.49035 33.2275 10.7099 37.4471 15.8955 37.4471V37.4447Z" fill="url(#paint0_linear_4999_13579)"/>
<path d="M22.5442 34.6907C27.4751 29.7598 27.4751 21.734 22.5442 16.8008C17.6134 11.8699 9.58754 11.8699 4.6543 16.8032C10.8515 10.606 20.9366 10.606 27.1338 16.8032C33.331 23.0004 33.331 33.0855 27.1338 39.2827L22.5442 34.6931V34.6907Z" fill="url(#paint1_linear_4999_13579)"/>
<path d="M22.5446 34.6912C17.6138 39.6221 9.58797 39.6221 4.65473 34.6912C-0.276111 29.7604 -0.276111 21.7346 4.65473 16.8037C-1.54246 23.0009 -1.54246 33.0861 4.65473 39.2832C10.8519 45.4804 20.9371 45.4804 27.1343 39.2832L22.5446 34.6936V34.6912Z" fill="url(#paint2_linear_4999_13579)"/>
<g style="mix-blend-mode:overlay">
<path d="M5.89452 35.7754C4.23649 33.6344 3.24407 30.9527 3.24407 28.0428C3.24407 21.067 8.91983 15.3937 15.8932 15.3937C18.8031 15.3937 21.4872 16.3837 23.6258 18.0441C23.2942 17.614 22.9362 17.1983 22.5421 16.8042C17.8179 12.0752 10.2511 11.883 5.28898 16.2155C4.86125 16.6 4.45275 17.006 4.06828 17.4362C-0.264224 22.4007 -0.0719886 29.9651 4.6546 34.6917C5.04868 35.0858 5.46439 35.4438 5.89452 35.7754Z" fill="url(#paint3_linear_4999_13579)"/>
<path d="M22.5442 16.8038C26.9104 21.1699 27.4078 27.9559 24.0461 32.8795C24.2695 33.0501 24.4858 33.2327 24.69 33.4346L26.3961 35.1407C30.3418 29.573 29.8251 21.7875 24.8414 16.8038C19.2738 11.2386 10.2195 11.2386 4.6543 16.8038C9.58754 11.8706 17.6134 11.8706 22.5442 16.8038Z" fill="url(#paint4_linear_4999_13579)"/>
<path d="M19.9059 37.8295C19.6487 37.5724 19.3772 37.3441 19.0937 37.1398C14.3863 39.4034 8.55676 38.5888 4.65678 34.6912C-0.276459 29.7604 -0.276459 21.7346 4.65438 16.8037C-0.910836 22.3689 -0.910836 31.4232 4.65438 36.9884C9.21517 41.5492 16.1188 42.3686 21.5254 39.4539L19.9035 37.8319L19.9059 37.8295Z" fill="url(#paint5_linear_4999_13579)"/>
</g>
<path d="M24.6874 33.3886C22.1523 30.8535 18.0433 30.8535 15.5082 33.3886L12.2354 36.659C14.6936 35.3326 17.827 35.7075 19.9031 37.7836L24.2188 42.0993C26.7539 44.6344 30.863 44.6344 33.3981 42.0993L24.6874 33.3886Z" fill="url(#paint6_linear_4999_13579)"/>
<path d="M15.5086 33.3886C18.0437 30.8535 22.1527 30.8535 24.6878 33.3886L31.5915 40.2923L33.4009 42.1017C32.1345 43.3681 29.1741 42.4646 27.9077 41.1982L22.2993 35.5897C19.9948 33.2829 16.3736 33.0979 13.877 35.0274L15.5134 33.391L15.5086 33.3886Z" fill="url(#paint7_linear_4999_13579)"/>
<path d="M34.8213 12.0576C38.4065 12.0576 41.3116 14.9628 41.3116 18.548V43.9423C37.7264 43.9423 34.8213 41.0371 34.8213 37.4519V12.0576Z" fill="url(#paint8_linear_4999_13579)"/>
<path d="M61.5612 44.0003C61.5756 40.4151 58.6705 37.498 55.0709 37.4812L41.302 37.4235C37.7024 37.4091 34.7972 34.4895 34.8116 30.9043L34.7852 37.3946C34.7708 40.9798 37.676 43.897 41.2756 43.9138L61.5636 44.0003H61.5612Z" fill="url(#paint9_linear_4999_13579)"/>
<g opacity="0.37">
<path d="M34.7969 34.1502C34.7825 37.7354 37.6877 40.6526 41.2873 40.6694L55.878 40.7319C57.6778 40.7391 61.5681 42.2097 61.5609 44.0023C61.5753 40.4171 58.6702 37.4999 55.0706 37.4831L41.3017 37.4254C37.7021 37.411 34.7969 34.4914 34.8113 30.9062L34.7969 34.1526V34.1502Z" fill="url(#paint10_linear_4999_13579)"/>
</g>
<path opacity="0.31" d="M38.0459 36.5389L38.1228 17.6878C38.13 15.8952 36.6882 12.0096 34.8884 12L34.8668 16.8563L34.8115 30.928C34.8115 33.3213 36.1091 35.4143 38.0459 36.5413V36.5389Z" fill="url(#paint11_linear_4999_13579)"/>
<path d="M58.2018 21.1263C59.7132 22.6185 60.4702 24.512 60.4702 26.8068C60.4702 29.1016 59.7132 30.9952 58.2018 32.4874C56.6879 33.9796 54.744 34.7269 52.3699 34.7269C49.9957 34.7269 48.0494 33.9796 46.5379 32.4874C45.0241 30.9952 44.2695 29.1016 44.2695 26.8068C44.2695 24.512 45.0265 22.6185 46.5379 21.1263C48.0494 19.634 49.9957 18.8867 52.3699 18.8867C54.744 18.8867 56.6903 19.634 58.2018 21.1263ZM49.1547 30.082C49.9765 30.9255 51.0482 31.346 52.3674 31.346C53.6867 31.346 54.7536 30.9255 55.5658 30.082C56.378 29.2386 56.7841 28.1477 56.7841 26.8068C56.7841 25.466 56.378 24.375 55.5658 23.5316C54.7536 22.6882 53.6867 22.2677 52.3674 22.2677C51.0482 22.2677 49.9765 22.6882 49.1547 23.5316C48.3329 24.375 47.922 25.466 47.922 26.8068C47.922 28.1477 48.3329 29.2386 49.1547 30.082Z" fill="#015399"/>
<path d="M67.0279 34.3301H63.4043V12.0332H67.0279V34.3301Z" fill="#015399"/>
<path d="M86.1044 26.9299V34.331H85.5878C84.0403 34.331 82.786 33.0766 82.786 31.5291H82.7259C82.3006 32.5047 81.6181 33.2809 80.6858 33.86C79.7511 34.4391 78.6553 34.7275 77.3962 34.7275C75.4258 34.7275 73.6956 34.033 72.2034 32.6417C70.7112 31.2504 69.9639 29.3064 69.9639 26.8098C69.9639 24.5149 70.7208 22.6214 72.2322 21.1292C73.7437 19.637 75.6901 18.8896 78.0642 18.8896C80.4383 18.8896 82.3991 19.6249 83.8817 21.098C85.3643 22.571 86.1044 24.5149 86.1044 26.9299ZM74.849 30.0826C75.6709 30.926 76.7426 31.3465 78.0618 31.3465C79.381 31.3465 80.4479 30.926 81.2601 30.0826C82.0723 29.2391 82.4784 28.1482 82.4784 26.8073C82.4784 25.4665 82.0723 24.3756 81.2601 23.5321C80.4479 22.6887 79.381 22.2682 78.0618 22.2682C76.7426 22.2682 75.6709 22.6887 74.849 23.5321C74.0272 24.3756 73.6163 25.4665 73.6163 26.8073C73.6163 28.1482 74.0272 29.2391 74.849 30.0826Z" fill="#015399"/>
</g>
<path d="M295.556 33.4339C294.221 33.4339 293.231 33.1039 292.586 32.4439C291.94 31.7839 291.618 30.8306 291.618 29.5839V24.6999H289.638V21.6419H291.618V19.4419L295.116 19.0459V21.6419H297.47V24.6999H295.116V28.8579C295.116 29.8846 295.622 30.3979 296.634 30.3979H297.448V33.4339H295.556Z" fill="#015399"/>
<path d="M277.227 33.3019V21.6419H280.505L280.725 22.8299C281.429 21.8619 282.485 21.3779 283.893 21.3779C285.154 21.3779 286.166 21.8179 286.929 22.6979C287.691 23.5633 288.073 24.7366 288.073 26.2179V33.3019H284.553V26.5919C284.553 25.9026 284.391 25.3673 284.069 24.9859C283.761 24.6046 283.284 24.4139 282.639 24.4139C282.052 24.4139 281.583 24.6046 281.231 24.9859C280.893 25.3673 280.725 25.9026 280.725 26.5919V33.3019H277.227Z" fill="#015399"/>
<path d="M269.335 33.5659C268.162 33.5659 267.143 33.3166 266.277 32.8179C265.412 32.3193 264.745 31.6153 264.275 30.7059C263.806 29.7966 263.571 28.7186 263.571 27.4719C263.571 26.2399 263.806 25.1693 264.275 24.2599C264.759 23.3506 265.434 22.6466 266.299 22.1479C267.165 21.6346 268.177 21.3779 269.335 21.3779C270.465 21.3779 271.455 21.6199 272.305 22.1039C273.156 22.5879 273.816 23.2699 274.285 24.1499C274.755 25.0299 274.989 26.0713 274.989 27.2739V28.6819H267.113C267.201 29.4153 267.443 29.9579 267.839 30.3099C268.235 30.6619 268.763 30.8379 269.423 30.8379C269.893 30.8379 270.289 30.7499 270.611 30.5739C270.949 30.3979 271.183 30.1559 271.315 29.8479H274.879C274.747 30.5813 274.425 31.2266 273.911 31.7839C273.398 32.3413 272.745 32.7813 271.953 33.1039C271.176 33.4119 270.303 33.5659 269.335 33.5659ZM269.335 24.1719C268.719 24.1719 268.221 24.3626 267.839 24.7439C267.458 25.1253 267.223 25.6533 267.135 26.3279H271.469C271.499 25.6973 271.315 25.1839 270.919 24.7879C270.523 24.3773 269.995 24.1719 269.335 24.1719Z" fill="#015399"/>
<path d="M244.055 33.3019V21.6419H246.981L247.333 23.0279C248.022 21.9279 249.078 21.3779 250.501 21.3779C251.953 21.3779 253.023 21.9719 253.713 23.1599C254.461 21.9719 255.612 21.3779 257.167 21.3779C258.472 21.3779 259.491 21.8106 260.225 22.6759C260.958 23.5266 261.325 24.6926 261.325 26.1739V33.3019H257.827V26.5479C257.827 25.8586 257.687 25.3306 257.409 24.9639C257.13 24.5973 256.712 24.4139 256.155 24.4139C255.685 24.4139 255.282 24.6046 254.945 24.9859C254.622 25.3673 254.461 25.9026 254.461 26.5919V33.3019H250.941V26.5479C250.941 25.8586 250.794 25.3306 250.501 24.9639C250.222 24.5973 249.804 24.4139 249.247 24.4139C248.777 24.4139 248.374 24.6046 248.037 24.9859C247.714 25.3673 247.553 25.9026 247.553 26.5919V33.3019H244.055Z" fill="#015399"/>
<path d="M236.163 33.5659C234.99 33.5659 233.971 33.3166 233.105 32.8179C232.24 32.3193 231.573 31.6153 231.103 30.7059C230.634 29.7966 230.399 28.7186 230.399 27.4719C230.399 26.2399 230.634 25.1693 231.103 24.2599C231.587 23.3506 232.262 22.6466 233.127 22.1479C233.993 21.6346 235.005 21.3779 236.163 21.3779C237.293 21.3779 238.283 21.6199 239.133 22.1039C239.984 22.5879 240.644 23.2699 241.113 24.1499C241.583 25.0299 241.817 26.0713 241.817 27.2739V28.6819H233.941C234.029 29.4153 234.271 29.9579 234.667 30.3099C235.063 30.6619 235.591 30.8379 236.251 30.8379C236.721 30.8379 237.117 30.7499 237.439 30.5739C237.777 30.3979 238.011 30.1559 238.143 29.8479H241.707C241.575 30.5813 241.253 31.2266 240.739 31.7839C240.226 32.3413 239.573 32.7813 238.781 33.1039C238.004 33.4119 237.131 33.5659 236.163 33.5659ZM236.163 24.1719C235.547 24.1719 235.049 24.3626 234.667 24.7439C234.286 25.1253 234.051 25.6533 233.963 26.3279H238.297C238.327 25.6973 238.143 25.1839 237.747 24.7879C237.351 24.3773 236.823 24.1719 236.163 24.1719Z" fill="#015399"/>
<path d="M222.353 38.3619C221.223 38.3619 220.226 38.1786 219.361 37.8119C218.51 37.4453 217.828 36.9319 217.315 36.2719C216.816 35.6119 216.523 34.8419 216.435 33.9619H219.933C220.006 34.3579 220.241 34.6806 220.637 34.9299C221.033 35.1939 221.605 35.3259 222.353 35.3259C223.071 35.3259 223.636 35.1426 224.047 34.7759C224.457 34.4093 224.663 33.8666 224.663 33.1479V31.9599C223.944 32.7079 222.976 33.0819 221.759 33.0819C220.717 33.0819 219.808 32.8399 219.031 32.3559C218.268 31.8573 217.674 31.1679 217.249 30.2879C216.823 29.4079 216.611 28.3886 216.611 27.2299C216.611 26.0566 216.823 25.0299 217.249 24.1499C217.674 23.2699 218.268 22.5879 219.031 22.1039C219.808 21.6199 220.717 21.3779 221.759 21.3779C223.02 21.3779 224.003 21.7666 224.707 22.5439L224.883 21.6419H228.161V33.1479C228.161 34.2333 227.911 35.1646 227.413 35.9419C226.929 36.7193 226.247 37.3133 225.367 37.7239C224.501 38.1493 223.497 38.3619 222.353 38.3619ZM222.419 30.0459C223.137 30.0459 223.687 29.8039 224.069 29.3199C224.465 28.8359 224.663 28.1393 224.663 27.2299C224.663 26.3646 224.465 25.6826 224.069 25.1839C223.687 24.6706 223.137 24.4139 222.419 24.4139C221.7 24.4139 221.143 24.6706 220.747 25.1839C220.351 25.6826 220.153 26.3646 220.153 27.2299C220.153 28.1539 220.351 28.8579 220.747 29.3419C221.143 29.8113 221.7 30.0459 222.419 30.0459Z" fill="#015399"/>
<path d="M207.68 33.5219C206.404 33.5219 205.392 33.2139 204.644 32.5979C203.911 31.9819 203.544 31.1533 203.544 30.1119C203.544 28.9386 203.947 28.0146 204.754 27.3399C205.575 26.6653 206.756 26.3279 208.296 26.3279H210.694V25.7119C210.694 25.1546 210.533 24.7293 210.21 24.4359C209.902 24.1426 209.477 23.9959 208.934 23.9959C208.421 23.9959 208.01 24.1206 207.702 24.3699C207.394 24.6193 207.24 24.9639 207.24 25.4039H203.918C203.933 24.1426 204.402 23.1599 205.326 22.4559C206.25 21.7373 207.497 21.3779 209.066 21.3779C210.679 21.3779 211.933 21.7519 212.828 22.4999C213.737 23.2479 214.192 24.3186 214.192 25.7119V33.3019H211.112L210.914 32.2899C210.239 33.1113 209.161 33.5219 207.68 33.5219ZM208.538 30.9039C209.183 30.9039 209.704 30.7426 210.1 30.4199C210.496 30.0973 210.694 29.6279 210.694 29.0119V28.6819H208.472C207.504 28.6819 207.02 29.0559 207.02 29.8039C207.02 30.1266 207.152 30.3906 207.416 30.5959C207.68 30.8013 208.054 30.9039 208.538 30.9039Z" fill="#015399"/>
<path d="M190.473 33.3019V21.6419H193.751L193.971 22.8299C194.675 21.8619 195.731 21.3779 197.139 21.3779C198.4 21.3779 199.412 21.8179 200.175 22.6979C200.937 23.5633 201.319 24.7366 201.319 26.2179V33.3019H197.799V26.5919C197.799 25.9026 197.637 25.3673 197.315 24.9859C197.007 24.6046 196.53 24.4139 195.885 24.4139C195.298 24.4139 194.829 24.6046 194.477 24.9859C194.139 25.3673 193.971 25.9026 193.971 26.5919V33.3019H190.473Z" fill="#015399"/>
<path d="M181.19 33.5219C179.914 33.5219 178.902 33.2139 178.154 32.5979C177.42 31.9819 177.054 31.1533 177.054 30.1119C177.054 28.9386 177.457 28.0146 178.264 27.3399C179.085 26.6653 180.266 26.3279 181.806 26.3279H184.204V25.7119C184.204 25.1546 184.042 24.7293 183.72 24.4359C183.412 24.1426 182.986 23.9959 182.444 23.9959C181.93 23.9959 181.52 24.1206 181.212 24.3699C180.904 24.6193 180.75 24.9639 180.75 25.4039H177.428C177.442 24.1426 177.912 23.1599 178.836 22.4559C179.76 21.7373 181.006 21.3779 182.576 21.3779C184.189 21.3779 185.443 21.7519 186.338 22.4999C187.247 23.2479 187.702 24.3186 187.702 25.7119V33.3019H184.622L184.424 32.2899C183.749 33.1113 182.671 33.5219 181.19 33.5219ZM182.048 30.9039C182.693 30.9039 183.214 30.7426 183.61 30.4199C184.006 30.0973 184.204 29.6279 184.204 29.0119V28.6819H181.982C181.014 28.6819 180.53 29.0559 180.53 29.8039C180.53 30.1266 180.662 30.3906 180.926 30.5959C181.19 30.8013 181.564 30.9039 182.048 30.9039Z" fill="#015399"/>
<path d="M158.273 33.3014V17.9014H162.013L166.281 25.2714L170.549 17.9014H174.289V33.3014H170.747V23.8194L166.721 30.8814H165.907L161.815 23.8634V33.3014H158.273Z" fill="#015399"/>
<path d="M138.91 33.3017V17.6377H142.408V22.7857C143.112 21.847 144.168 21.3777 145.576 21.3777C146.837 21.3777 147.849 21.8177 148.612 22.6977C149.375 23.563 149.756 24.7364 149.756 26.2177V33.3017H146.236V26.5917C146.236 25.9024 146.075 25.367 145.752 24.9857C145.444 24.6044 144.967 24.4137 144.322 24.4137C143.735 24.4137 143.266 24.6044 142.914 24.9857C142.577 25.367 142.408 25.9024 142.408 26.5917V33.3017H138.91Z" fill="#015399"/>
<path d="M131.513 33.5219C130.047 33.5219 128.851 33.1919 127.927 32.5319C127.003 31.8573 126.483 30.8966 126.365 29.6499H129.599C129.731 30.4126 130.369 30.7939 131.513 30.7939C132.041 30.7939 132.459 30.7133 132.767 30.5519C133.09 30.3759 133.251 30.1339 133.251 29.8259C133.251 29.3713 132.899 29.0853 132.195 28.9679L129.973 28.5939C127.803 28.2126 126.717 27.0759 126.717 25.1839C126.717 24.0253 127.143 23.1013 127.993 22.4119C128.859 21.7226 130.032 21.3779 131.513 21.3779C133.024 21.3779 134.212 21.7226 135.077 22.4119C135.957 23.0866 136.449 24.0619 136.551 25.3379H133.295C133.178 24.5166 132.584 24.1059 131.513 24.1059C131.073 24.1059 130.729 24.1866 130.479 24.3479C130.245 24.5093 130.127 24.7366 130.127 25.0299C130.127 25.4993 130.516 25.7853 131.293 25.8879L133.053 26.1519C135.459 26.5333 136.661 27.6919 136.661 29.6279C136.661 30.8746 136.214 31.8353 135.319 32.5099C134.425 33.1846 133.156 33.5219 131.513 33.5219Z" fill="#015399"/>
<path d="M117.875 33.5219C116.599 33.5219 115.587 33.2139 114.839 32.5979C114.106 31.9819 113.739 31.1533 113.739 30.1119C113.739 28.9386 114.143 28.0146 114.949 27.3399C115.771 26.6653 116.951 26.3279 118.491 26.3279H120.889V25.7119C120.889 25.1546 120.728 24.7293 120.405 24.4359C120.097 24.1426 119.672 23.9959 119.129 23.9959C118.616 23.9959 118.205 24.1206 117.897 24.3699C117.589 24.6193 117.435 24.9639 117.435 25.4039H114.113C114.128 24.1426 114.597 23.1599 115.521 22.4559C116.445 21.7373 117.692 21.3779 119.261 21.3779C120.875 21.3779 122.129 21.7519 123.023 22.4999C123.933 23.2479 124.387 24.3186 124.387 25.7119V33.3019H121.307L121.109 32.2899C120.435 33.1113 119.357 33.5219 117.875 33.5219ZM118.733 30.9039C119.379 30.9039 119.899 30.7426 120.295 30.4199C120.691 30.0973 120.889 29.6279 120.889 29.0119V28.6819H118.667C117.699 28.6819 117.215 29.0559 117.215 29.8039C117.215 30.1266 117.347 30.3906 117.611 30.5959C117.875 30.8013 118.249 30.9039 118.733 30.9039Z" fill="#015399"/>
<path d="M105.254 33.5657C103.802 33.5657 102.541 33.243 101.47 32.5977C100.4 31.9377 99.5712 31.0137 98.9845 29.8257C98.3978 28.6377 98.1045 27.2297 98.1045 25.6017C98.1045 23.9737 98.3978 22.5657 98.9845 21.3777C99.5712 20.175 100.4 19.251 101.47 18.6057C102.541 17.9604 103.802 17.6377 105.254 17.6377C106.545 17.6377 107.682 17.8724 108.664 18.3417C109.647 18.811 110.424 19.4784 110.996 20.3437C111.568 21.1944 111.891 22.2064 111.964 23.3797H108.532C108.386 22.5584 108.019 21.9204 107.432 21.4657C106.86 20.9964 106.134 20.7617 105.254 20.7617C104.11 20.7617 103.223 21.187 102.592 22.0377C101.962 22.8884 101.646 24.0764 101.646 25.6017C101.646 27.127 101.962 28.315 102.592 29.1657C103.223 30.0164 104.11 30.4417 105.254 30.4417C106.134 30.4417 106.86 30.207 107.432 29.7377C108.019 29.2537 108.386 28.5864 108.532 27.7357H111.964C111.891 28.9237 111.568 29.9577 110.996 30.8377C110.424 31.703 109.647 32.3777 108.664 32.8617C107.682 33.331 106.545 33.5657 105.254 33.5657Z" fill="#015399"/>
<defs>
<linearGradient id="paint0_linear_4999_13579" x1="-2.03267" y1="10.12" x2="20.4367" y2="32.5894" gradientUnits="userSpaceOnUse">
<stop stop-color="#18AEE5" stop-opacity="0.37"/>
<stop offset="0.18" stop-color="#18AEE5"/>
<stop offset="0.55" stop-color="#005196" stop-opacity="0.63"/>
<stop offset="0.98" stop-color="#005196"/>
</linearGradient>
<linearGradient id="paint1_linear_4999_13579" x1="18.2189" y1="12.2568" x2="18.2189" y2="40.328" gradientUnits="userSpaceOnUse">
<stop stop-color="#18AEE5" stop-opacity="0.37"/>
<stop offset="0.18" stop-color="#18AEE5"/>
<stop offset="0.55" stop-color="#005196" stop-opacity="0.63"/>
<stop offset="0.98" stop-color="#005196"/>
</linearGradient>
<linearGradient id="paint2_linear_4999_13579" x1="-1.25651" y1="30.3659" x2="22.9411" y2="30.3659" gradientUnits="userSpaceOnUse">
<stop stop-color="#18AEE5" stop-opacity="0.37"/>
<stop offset="0.18" stop-color="#18AEE5"/>
<stop offset="0.55" stop-color="#005196" stop-opacity="0.63"/>
<stop offset="0.98" stop-color="#005196"/>
</linearGradient>
<linearGradient id="paint3_linear_4999_13579" x1="-2.25867" y1="24.4408" x2="14.8719" y2="24.4408" gradientUnits="userSpaceOnUse">
<stop offset="0.06" stop-color="white"/>
<stop offset="0.95" stop-color="#3D3634"/>
</linearGradient>
<linearGradient id="paint4_linear_4999_13579" x1="11.9544" y1="14.0092" x2="26.0044" y2="28.0592" gradientUnits="userSpaceOnUse">
<stop offset="0.06" stop-color="white"/>
<stop offset="0.95" stop-color="#3D3634"/>
</linearGradient>
<linearGradient id="paint5_linear_4999_13579" x1="0.482872" y1="28.9794" x2="21.5279" y2="28.9794" gradientUnits="userSpaceOnUse">
<stop offset="0.06" stop-color="white"/>
<stop offset="0.95" stop-color="#3D3634"/>
</linearGradient>
<linearGradient id="paint6_linear_4999_13579" x1="15.7314" y1="32.9082" x2="35.3412" y2="47.791" gradientUnits="userSpaceOnUse">
<stop offset="0.18" stop-color="#F17025"/>
<stop offset="0.55" stop-color="#F17025" stop-opacity="0.63"/>
<stop offset="0.98" stop-color="#F17025"/>
</linearGradient>
<linearGradient id="paint7_linear_4999_13579" x1="13.8746" y1="37.0988" x2="33.4009" y2="37.0988" gradientUnits="userSpaceOnUse">
<stop offset="0.06" stop-color="#DEB426"/>
<stop offset="0.74" stop-color="#F17025"/>
</linearGradient>
<linearGradient id="paint8_linear_4999_13579" x1="38.0653" y1="9.90458" x2="38.0653" y2="37.9854" gradientUnits="userSpaceOnUse">
<stop stop-color="#18AEE5"/>
<stop offset="0.18" stop-color="#27B7EA"/>
<stop offset="0.55" stop-color="#0B67B2"/>
<stop offset="0.98" stop-color="#005196"/>
</linearGradient>
<linearGradient id="paint9_linear_4999_13579" x1="34.8811" y1="37.3928" x2="80.7769" y2="37.585" gradientUnits="userSpaceOnUse">
<stop stop-color="#18AEE5"/>
<stop offset="0.18" stop-color="#27B7EA"/>
<stop offset="0.55" stop-color="#0B67B2"/>
<stop offset="0.98" stop-color="#005196"/>
</linearGradient>
<linearGradient id="paint10_linear_4999_13579" x1="34.7848" y1="37.3951" x2="61.5894" y2="37.5074" gradientUnits="userSpaceOnUse">
<stop offset="0.06" stop-color="white"/>
<stop offset="0.95" stop-color="#3D3634"/>
</linearGradient>
<linearGradient id="paint11_linear_4999_13579" x1="36.5315" y1="8.8289" x2="36.4287" y2="33.3531" gradientUnits="userSpaceOnUse">
<stop offset="0.06" stop-color="white"/>
<stop offset="0.95" stop-color="#3D3634"/>
</linearGradient>
<clipPath id="clip0_4999_13579">
<rect width="86.1047" height="32" fill="white" transform="translate(0 12)"/>
</clipPath>
</defs>
</svg>
