<svg width="87" height="32" viewBox="0 0 87 32" fill="none" xmlns="http://www.w3.org/2000/svg">
<path d="M15.8955 0.146484C24.659 0.146484 31.7909 7.27602 31.7909 16.042C31.7909 24.8079 24.6614 31.9374 15.8955 31.9374C7.12953 31.9374 0 24.8055 0 16.042C0 7.27842 7.12953 0.146484 15.8955 0.146484ZM15.8955 25.4447C21.081 25.4447 25.3006 21.2251 25.3006 16.0396C25.3006 10.854 21.081 6.63443 15.8955 6.63443C10.7099 6.63443 6.49035 10.8564 6.49035 16.042C6.49035 21.2275 10.7099 25.4471 15.8955 25.4471V25.4447Z" fill="url(#paint0_linear_5080_41415)"/>
<path d="M22.5442 22.6917C27.4751 17.7608 27.4751 9.73498 22.5442 4.80174C17.6134 -0.1291 9.58754 -0.1291 4.6543 4.80414C10.8515 -1.39305 20.9366 -1.39305 27.1338 4.80414C33.331 11.0013 33.331 21.0865 27.1338 27.2837L22.5442 22.6941V22.6917Z" fill="url(#paint1_linear_5080_41415)"/>
<path d="M22.5446 22.6902C17.6138 27.6211 9.58797 27.6211 4.65473 22.6902C-0.276111 17.7594 -0.276111 9.73357 4.65473 4.80273C-1.54246 10.9999 -1.54246 21.0851 4.65473 27.2823C10.8519 33.4795 20.9371 33.4795 27.1343 27.2823L22.5446 22.6927V22.6902Z" fill="url(#paint2_linear_5080_41415)"/>
<g style="mix-blend-mode:overlay">
<path d="M5.89452 23.7735C4.23649 21.6325 3.24407 18.9508 3.24407 16.0408C3.24407 9.06507 8.91983 3.39172 15.8932 3.39172C18.8031 3.39172 21.4872 4.38173 23.6258 6.04217C23.2942 5.61204 22.9362 5.19633 22.5421 4.80225C17.8179 0.0732558 10.2511 -0.118979 5.28898 4.21353C4.86125 4.598 4.45275 5.0041 4.06828 5.43422C-0.264224 10.3987 -0.0719886 17.9632 4.6546 22.6898C5.04868 23.0838 5.46439 23.4419 5.89452 23.7735Z" fill="url(#paint3_linear_5080_41415)"/>
<path d="M22.5442 4.80282C26.9104 9.16897 27.4078 15.9549 24.0461 20.8785C24.2695 21.0491 24.4858 21.2317 24.69 21.4336L26.3961 23.1397C30.3418 17.5721 29.8251 9.78652 24.8414 4.80282C19.2738 -0.762398 10.2195 -0.762398 4.6543 4.80282C9.58754 -0.130424 17.6134 -0.130424 22.5442 4.80282Z" fill="url(#paint4_linear_5080_41415)"/>
<path d="M19.9059 25.8285C19.6487 25.5714 19.3772 25.3431 19.0937 25.1388C14.3863 27.4024 8.55676 26.5878 4.65678 22.6902C-0.276459 17.7594 -0.276459 9.73357 4.65438 4.80273C-0.910836 10.368 -0.910836 19.4222 4.65438 24.9875C9.21517 29.5482 16.1188 30.3677 21.5254 27.4529L19.9035 25.8309L19.9059 25.8285Z" fill="url(#paint5_linear_5080_41415)"/>
</g>
<path d="M24.6874 21.3877C22.1523 18.8526 18.0433 18.8526 15.5082 21.3877L12.2354 24.6581C14.6936 23.3316 17.827 23.7065 19.9031 25.7826L24.2188 30.0983C26.7539 32.6334 30.863 32.6334 33.3981 30.0983L24.6874 21.3877Z" fill="url(#paint6_linear_5080_41415)"/>
<path d="M15.5086 21.3877C18.0437 18.8526 22.1527 18.8526 24.6878 21.3877L31.5915 28.2913L33.4009 30.1007C32.1345 31.3671 29.1741 30.4636 27.9077 29.1972L22.2993 23.5888C19.9948 21.2819 16.3736 21.0969 13.877 23.0265L15.5134 21.3901L15.5086 21.3877Z" fill="url(#paint7_linear_5080_41415)"/>
<path d="M34.8213 0.0585938C38.4065 0.0585938 41.3116 2.96375 41.3116 6.54894V31.9432C37.7264 31.9432 34.8213 29.0381 34.8213 25.4529V0.0585938Z" fill="url(#paint8_linear_5080_41415)"/>
<path d="M61.5612 32.0003C61.5756 28.4151 58.6705 25.498 55.0709 25.4812L41.302 25.4235C37.7024 25.4091 34.7972 22.4895 34.8116 18.9043L34.7852 25.3946C34.7708 28.9798 37.676 31.897 41.2756 31.9138L61.5636 32.0003H61.5612Z" fill="url(#paint9_linear_5080_41415)"/>
<g opacity="0.37">
<path d="M34.7969 22.1502C34.7825 25.7354 37.6877 28.6526 41.2873 28.6694L55.878 28.7319C57.6778 28.7391 61.5681 30.2097 61.5609 32.0023C61.5753 28.4171 58.6702 25.4999 55.0706 25.4831L41.3017 25.4254C37.7021 25.411 34.7969 22.4914 34.8113 18.9062L34.7969 22.1526V22.1502Z" fill="url(#paint10_linear_5080_41415)"/>
</g>
<path opacity="0.31" d="M38.0459 24.5389L38.1228 5.68777C38.13 3.89517 36.6882 0.00961177 34.8884 0L34.8668 4.85635L34.8115 18.928C34.8115 21.3213 36.1091 23.4143 38.0459 24.5413V24.5389Z" fill="url(#paint11_linear_5080_41415)"/>
<path d="M58.2018 9.12626C59.7132 10.6185 60.4702 12.512 60.4702 14.8068C60.4702 17.1016 59.7132 18.9952 58.2018 20.4874C56.6879 21.9796 54.744 22.7269 52.3699 22.7269C49.9957 22.7269 48.0494 21.9796 46.5379 20.4874C45.0241 18.9952 44.2695 17.1016 44.2695 14.8068C44.2695 12.512 45.0265 10.6185 46.5379 9.12626C48.0494 7.63403 49.9957 6.88672 52.3699 6.88672C54.744 6.88672 56.6903 7.63403 58.2018 9.12626ZM49.1547 18.082C49.9765 18.9255 51.0482 19.346 52.3674 19.346C53.6867 19.346 54.7536 18.9255 55.5658 18.082C56.378 17.2386 56.7841 16.1477 56.7841 14.8068C56.7841 13.466 56.378 12.375 55.5658 11.5316C54.7536 10.6882 53.6867 10.2677 52.3674 10.2677C51.0482 10.2677 49.9765 10.6882 49.1547 11.5316C48.3329 12.375 47.922 13.466 47.922 14.8068C47.922 16.1477 48.3329 17.2386 49.1547 18.082Z" fill="#015399"/>
<path d="M67.0279 22.3301H63.4043V0.0332031H67.0279V22.3301Z" fill="#015399"/>
<path d="M86.1044 14.9289V22.33H85.5878C84.0403 22.33 82.786 21.0757 82.786 19.5282H82.7259C82.3006 20.5037 81.6181 21.2799 80.6858 21.859C79.7511 22.4381 78.6553 22.7265 77.3962 22.7265C75.4258 22.7265 73.6956 22.032 72.2034 20.6407C70.7112 19.2494 69.9639 17.3054 69.9639 14.8088C69.9639 12.514 70.7208 10.6204 72.2322 9.12822C73.7437 7.63599 75.6901 6.88867 78.0642 6.88867C80.4383 6.88867 82.3991 7.62397 83.8817 9.09698C85.3643 10.57 86.1044 12.514 86.1044 14.9289ZM74.849 18.0816C75.6709 18.925 76.7426 19.3455 78.0618 19.3455C79.381 19.3455 80.4479 18.925 81.2601 18.0816C82.0723 17.2381 82.4784 16.1472 82.4784 14.8064C82.4784 13.4655 82.0723 12.3746 81.2601 11.5312C80.4479 10.6877 79.381 10.2672 78.0618 10.2672C76.7426 10.2672 75.6709 10.6877 74.849 11.5312C74.0272 12.3746 73.6163 13.4655 73.6163 14.8064C73.6163 16.1472 74.0272 17.2381 74.849 18.0816Z" fill="#015399"/>
<defs>
<linearGradient id="paint0_linear_5080_41415" x1="-2.03267" y1="-1.87996" x2="20.4367" y2="20.5894" gradientUnits="userSpaceOnUse">
<stop stop-color="#18AEE5" stop-opacity="0.37"/>
<stop offset="0.18" stop-color="#18AEE5"/>
<stop offset="0.55" stop-color="#005196" stop-opacity="0.63"/>
<stop offset="0.98" stop-color="#005196"/>
</linearGradient>
<linearGradient id="paint1_linear_5080_41415" x1="18.2189" y1="0.257774" x2="18.2189" y2="28.329" gradientUnits="userSpaceOnUse">
<stop stop-color="#18AEE5" stop-opacity="0.37"/>
<stop offset="0.18" stop-color="#18AEE5"/>
<stop offset="0.55" stop-color="#005196" stop-opacity="0.63"/>
<stop offset="0.98" stop-color="#005196"/>
</linearGradient>
<linearGradient id="paint2_linear_5080_41415" x1="-1.25651" y1="18.3649" x2="22.9411" y2="18.3649" gradientUnits="userSpaceOnUse">
<stop stop-color="#18AEE5" stop-opacity="0.37"/>
<stop offset="0.18" stop-color="#18AEE5"/>
<stop offset="0.55" stop-color="#005196" stop-opacity="0.63"/>
<stop offset="0.98" stop-color="#005196"/>
</linearGradient>
<linearGradient id="paint3_linear_5080_41415" x1="-2.25867" y1="12.4388" x2="14.8719" y2="12.4388" gradientUnits="userSpaceOnUse">
<stop offset="0.06" stop-color="white"/>
<stop offset="0.95" stop-color="#3D3634"/>
</linearGradient>
<linearGradient id="paint4_linear_5080_41415" x1="11.9544" y1="2.0082" x2="26.0044" y2="16.0582" gradientUnits="userSpaceOnUse">
<stop offset="0.06" stop-color="white"/>
<stop offset="0.95" stop-color="#3D3634"/>
</linearGradient>
<linearGradient id="paint5_linear_5080_41415" x1="0.482872" y1="16.9784" x2="21.5279" y2="16.9784" gradientUnits="userSpaceOnUse">
<stop offset="0.06" stop-color="white"/>
<stop offset="0.95" stop-color="#3D3634"/>
</linearGradient>
<linearGradient id="paint6_linear_5080_41415" x1="15.7314" y1="20.9072" x2="35.3412" y2="35.79" gradientUnits="userSpaceOnUse">
<stop offset="0.18" stop-color="#F17025"/>
<stop offset="0.55" stop-color="#F17025" stop-opacity="0.63"/>
<stop offset="0.98" stop-color="#F17025"/>
</linearGradient>
<linearGradient id="paint7_linear_5080_41415" x1="13.8746" y1="25.0978" x2="33.4009" y2="25.0978" gradientUnits="userSpaceOnUse">
<stop offset="0.06" stop-color="#DEB426"/>
<stop offset="0.74" stop-color="#F17025"/>
</linearGradient>
<linearGradient id="paint8_linear_5080_41415" x1="38.0653" y1="-2.09444" x2="38.0653" y2="25.9864" gradientUnits="userSpaceOnUse">
<stop stop-color="#18AEE5"/>
<stop offset="0.18" stop-color="#27B7EA"/>
<stop offset="0.55" stop-color="#0B67B2"/>
<stop offset="0.98" stop-color="#005196"/>
</linearGradient>
<linearGradient id="paint9_linear_5080_41415" x1="34.8811" y1="25.3928" x2="80.7769" y2="25.585" gradientUnits="userSpaceOnUse">
<stop stop-color="#18AEE5"/>
<stop offset="0.18" stop-color="#27B7EA"/>
<stop offset="0.55" stop-color="#0B67B2"/>
<stop offset="0.98" stop-color="#005196"/>
</linearGradient>
<linearGradient id="paint10_linear_5080_41415" x1="34.7848" y1="25.3951" x2="61.5894" y2="25.5074" gradientUnits="userSpaceOnUse">
<stop offset="0.06" stop-color="white"/>
<stop offset="0.95" stop-color="#3D3634"/>
</linearGradient>
<linearGradient id="paint11_linear_5080_41415" x1="36.5315" y1="-3.1711" x2="36.4287" y2="21.3531" gradientUnits="userSpaceOnUse">
<stop offset="0.06" stop-color="white"/>
<stop offset="0.95" stop-color="#3D3634"/>
</linearGradient>
</defs>
</svg>
