<svg width="98" height="36" viewBox="0 0 98 36" fill="none" xmlns="http://www.w3.org/2000/svg">
<g clip-path="url(#clip0_5130_1016)">
<path d="M18.3266 0.161621C28.2193 0.161621 36.2703 8.00449 36.2703 17.6475C36.2703 27.2905 28.2221 35.1334 18.3266 35.1334C8.43105 35.1334 0.382812 27.2878 0.382812 17.6475C0.382812 8.00713 8.43105 0.161621 18.3266 0.161621ZM18.3266 27.991C24.1803 27.991 28.9436 23.3492 28.9436 17.6448C28.9436 11.9405 24.1803 7.29871 18.3266 7.29871C12.4728 7.29871 7.7095 11.9431 7.7095 17.6475C7.7095 23.3519 12.4728 27.9936 18.3266 27.9936V27.991Z" fill="url(#paint0_linear_5130_1016)"/>
<path d="M25.8319 24.9615C31.3981 19.5373 31.3981 10.7085 25.8319 5.28167C20.2657 -0.142513 11.2057 -0.142513 5.63672 5.28432C12.6325 -1.53292 24.0172 -1.53292 31.0129 5.28432C38.0087 12.1016 38.0087 23.1958 31.0129 30.013L25.8319 24.9642V24.9615Z" fill="url(#paint1_linear_5130_1016)"/>
<path d="M25.8326 24.9614C20.2664 30.3856 11.2064 30.3856 5.63744 24.9614C0.0712183 19.5372 0.0712183 10.7084 5.63744 5.28418C-1.35831 12.1014 -1.35831 23.1956 5.63744 30.0129C12.6332 36.8301 24.0179 36.8301 31.0137 30.0129L25.8326 24.964V24.9614Z" fill="url(#paint2_linear_5130_1016)"/>
<g style="mix-blend-mode:overlay">
<path d="M7.03747 26.1535C5.16579 23.7983 4.04549 20.8483 4.04549 17.6472C4.04549 9.97347 10.4526 3.73248 18.3245 3.73248C21.6095 3.73248 24.6394 4.82155 27.0536 6.64811C26.6793 6.17495 26.2751 5.71765 25.8302 5.28414C20.4973 0.0819913 11.9554 -0.129478 6.3539 4.63651C5.87106 5.05945 5.40992 5.50618 4.9759 5.97934C0.0851167 11.4405 0.302124 19.7619 5.63777 24.9614C6.08264 25.3949 6.55192 25.7887 7.03747 26.1535Z" fill="url(#paint3_linear_5130_1016)"/>
<path d="M25.8319 5.2844C30.7607 10.0874 31.3222 17.5523 27.5273 22.9685C27.7795 23.1562 28.0237 23.3571 28.2542 23.5791L30.1802 25.4559C34.6342 19.3312 34.051 10.7667 28.4251 5.2844C22.1401 -0.837638 11.9191 -0.837638 5.63672 5.2844C11.2057 -0.142433 20.2657 -0.142433 25.8319 5.2844Z" fill="url(#paint4_linear_5130_1016)"/>
<path d="M22.8543 28.4136C22.5641 28.1308 22.2575 27.8797 21.9375 27.655C16.6235 30.145 10.0428 29.2516 5.64025 24.9614C0.0713166 19.5372 0.0713171 10.7084 5.63754 5.28418C-0.644805 11.4062 -0.644805 21.3664 5.63754 27.4885C10.786 32.5056 18.5793 33.4069 24.6826 30.2005L22.8516 28.4163L22.8543 28.4136Z" fill="url(#paint5_linear_5130_1016)"/>
</g>
<path d="M28.2519 23.5291C25.3901 20.7403 20.7516 20.7403 17.8899 23.5291L14.1953 27.1267C16.9703 25.6675 20.5075 26.0799 22.8512 28.3638L27.723 33.1113C30.5847 35.9 35.2233 35.9 38.085 33.1113L28.2519 23.5291Z" fill="url(#paint6_linear_5130_1016)"/>
<path d="M17.8907 23.5291C20.7524 20.7403 25.391 20.7403 28.2527 23.5291L36.046 31.1235L38.0886 33.1139C36.659 34.507 33.3171 33.5131 31.8876 32.12L25.5564 25.9504C22.9524 23.4128 18.8672 23.2092 16.0488 25.3318L17.8961 23.5317L17.8907 23.5291Z" fill="url(#paint7_linear_5130_1016)"/>
<path d="M39.6914 0.0634766C43.7386 0.0634766 47.0181 3.25931 47.0181 7.20321V35.1383C42.9709 35.1383 39.6914 31.9425 39.6914 27.9986V0.0634766Z" fill="url(#paint8_linear_5130_1016)"/>
<path d="M69.8768 35.2018C69.893 31.2579 66.6135 28.0488 62.5501 28.0303L47.007 27.9669C42.9435 27.951 39.664 24.7393 39.6803 20.7954L39.6505 27.9351C39.6342 31.879 42.9137 35.0881 46.9771 35.1066L69.8795 35.2018H69.8768Z" fill="url(#paint9_linear_5130_1016)"/>
<g opacity="0.37">
<path d="M39.6641 24.3664C39.6478 28.3103 42.9274 31.5193 46.9908 31.5378L63.4616 31.6066C65.4933 31.6145 69.885 33.2322 69.8769 35.2042C69.8932 31.2603 66.6136 28.0512 62.5502 28.0327L47.0071 27.9693C42.9436 27.9534 39.6641 24.7418 39.6804 20.7979L39.6641 24.369V24.3664Z" fill="url(#paint10_linear_5130_1016)"/>
</g>
<path opacity="0.31" d="M43.3308 26.9941L43.4176 6.25685C43.4258 4.2849 41.7982 0.0105735 39.7665 0L39.7421 5.34224L39.6797 20.8218C39.6797 23.4546 41.1445 25.757 43.3308 26.9967V26.9941Z" fill="url(#paint11_linear_5130_1016)"/>
<path d="M66.085 10.0393C67.7912 11.6808 68.6457 13.7638 68.6457 16.2882C68.6457 18.8126 67.7912 20.8956 66.085 22.5371C64.3761 24.1787 62.1816 25.0008 59.5015 25.0008C56.8215 25.0008 54.6243 24.1787 52.9181 22.5371C51.2092 20.8956 50.3574 18.8126 50.3574 16.2882C50.3574 13.7638 51.2119 11.6808 52.9181 10.0393C54.6243 8.39777 56.8215 7.57568 59.5015 7.57568C62.1816 7.57568 64.3788 8.39777 66.085 10.0393ZM55.8721 19.8911C56.7998 20.8189 58.0096 21.2815 59.4988 21.2815C60.988 21.2815 62.1924 20.8189 63.1093 19.8911C64.0261 18.9633 64.4846 17.7632 64.4846 16.2882C64.4846 14.8132 64.0261 13.6131 63.1093 12.6853C62.1924 11.7575 60.988 11.2949 59.4988 11.2949C58.0096 11.2949 56.7998 11.7575 55.8721 12.6853C54.9444 13.6131 54.4805 14.8132 54.4805 16.2882C54.4805 17.7632 54.9444 18.9633 55.8721 19.8911Z" fill="#015399"/>
<path d="M76.0476 24.5649H71.957V0.0371094H76.0476V24.5649Z" fill="#015399"/>
<path d="M97.5837 16.4233V24.5649H97.0005C95.2536 24.5649 93.8376 23.185 93.8376 21.4827H93.7698C93.2897 22.5559 92.5193 23.4097 91.4668 24.0468C90.4116 24.6838 89.1747 25.001 87.7533 25.001C85.529 25.001 83.5759 24.2371 81.8914 22.7066C80.2069 21.1761 79.3633 19.0376 79.3633 16.2911C79.3633 13.7667 80.2177 11.6838 81.924 10.0422C83.6302 8.4007 85.8274 7.57861 88.5074 7.57861C91.1874 7.57861 93.4009 8.38748 95.0746 10.0079C96.7482 11.6283 97.5837 13.7667 97.5837 16.4233ZM84.878 19.8914C85.8057 20.8192 87.0155 21.2818 88.5047 21.2818C89.9939 21.2818 91.1983 20.8192 92.1151 19.8914C93.032 18.9636 93.4904 17.7635 93.4904 16.2885C93.4904 14.8135 93.032 13.6134 92.1151 12.6856C91.1983 11.7578 89.9939 11.2952 88.5047 11.2952C87.0155 11.2952 85.8057 11.7578 84.878 12.6856C83.9503 13.6134 83.4864 14.8135 83.4864 16.2885C83.4864 17.7635 83.9503 18.9636 84.878 19.8914Z" fill="#015399"/>
<path d="M82.8499 32.593C82.8825 32.5613 82.9205 32.5216 82.9639 32.4714C83.0073 32.4212 83.048 32.363 83.0886 32.2969C83.1266 32.2308 83.1619 32.1542 83.189 32.0722C83.2161 31.9903 83.2297 31.9004 83.2297 31.8079C83.2297 31.6229 83.1972 31.4537 83.1321 31.2924C83.0669 31.1338 82.9693 30.9937 82.8364 30.8748C82.7035 30.7558 82.5353 30.6633 82.3373 30.5946C82.1365 30.5285 81.9032 30.4941 81.6374 30.4941H79.877V35.1993H81.8083C82.0877 35.1993 82.3346 35.1623 82.5434 35.0883C82.7523 35.0143 82.9259 34.9112 83.0642 34.7817C83.2026 34.6522 83.3057 34.5015 83.3708 34.327C83.4386 34.1552 83.4711 33.9702 83.4711 33.7719C83.4711 33.5076 83.4087 33.2723 83.284 33.0661C83.1592 32.86 83.0154 32.7014 82.8499 32.5877V32.593ZM81.9955 31.3585C82.0606 31.3823 82.1148 31.414 82.1582 31.4537C82.2695 31.5568 82.3237 31.6784 82.3237 31.8211C82.3237 31.9506 82.302 32.059 82.2559 32.1436C82.2098 32.2282 82.1637 32.2943 82.1175 32.3366H80.7748V31.303H81.6103C81.7676 31.303 81.8951 31.3215 81.9982 31.3585H81.9955ZM81.8571 33.1507C82.1013 33.1507 82.2803 33.2115 82.3969 33.3358C82.5082 33.4574 82.5624 33.5975 82.5624 33.764C82.5624 33.9305 82.5 34.0785 82.3725 34.2001C82.2478 34.3217 82.0389 34.3799 81.7513 34.3799H80.7721V33.1534H81.8544L81.8571 33.1507Z" fill="#02549A"/>
<path d="M86.7458 33.1748C86.8895 33.0796 87.0116 32.966 87.1093 32.8391C87.2069 32.7122 87.2774 32.5695 87.3236 32.4162C87.3697 32.2628 87.3914 32.1042 87.3914 31.943C87.3914 31.7315 87.3561 31.5386 87.2856 31.3615C87.215 31.1843 87.1065 31.031 86.9655 30.9041C86.8217 30.7773 86.6454 30.6768 86.4311 30.6054C86.2168 30.5341 85.97 30.4971 85.6906 30.4971H83.7891V35.2023H84.7032V33.455H85.2132L86.4745 35.2023H87.546L86.2412 33.3942C86.4338 33.344 86.6047 33.2726 86.7485 33.1748H86.7458ZM85.6933 31.3033C85.7503 31.3033 85.8045 31.3059 85.856 31.3139C86.0188 31.3377 86.1517 31.3958 86.2548 31.4857C86.3931 31.6073 86.4637 31.758 86.4637 31.9377C86.4637 32.0276 86.4474 32.1148 86.4203 32.1994C86.3904 32.284 86.3443 32.358 86.2792 32.4241C86.2141 32.4875 86.1327 32.5404 86.0324 32.5827C85.932 32.6223 85.8099 32.6435 85.6689 32.6435H84.7005V31.3086H85.6933V31.3033Z" fill="#02549A"/>
<path d="M87.8653 30.4971C87.8653 30.4971 87.8464 30.4971 87.8382 30.4971H87.8301V35.2023H88.7632V30.4971H87.8653Z" fill="#02549A"/>
<path d="M71.9062 30.6206H72.6603V32.0771C72.7824 31.9925 72.9153 31.9211 73.0618 31.8656C73.2083 31.8101 73.3602 31.7837 73.5202 31.7837C73.7454 31.7837 73.9597 31.826 74.1604 31.9079C74.3611 31.9925 74.5347 32.1062 74.6812 32.2489C74.8277 32.3917 74.9443 32.5608 75.0311 32.7538C75.1179 32.9468 75.1586 33.1556 75.1586 33.375C75.1586 33.5944 75.1152 33.8032 75.0311 33.9962C74.9443 34.1892 74.8304 34.3583 74.6812 34.5011C74.5347 34.6438 74.3611 34.7575 74.1604 34.8421C73.9597 34.9266 73.7454 34.9663 73.5202 34.9663C73.3602 34.9663 73.2083 34.9399 73.0618 34.8844C72.9153 34.8288 72.7824 34.7601 72.6603 34.6729V34.9055H71.9062V30.6206ZM72.6603 33.8534C72.7146 33.9301 72.7797 33.9988 72.8557 34.0543C72.9235 34.1072 73.0076 34.1548 73.1133 34.1944C73.2191 34.2341 73.3439 34.2552 73.4904 34.2552C73.6206 34.2552 73.74 34.2314 73.8485 34.1839C73.957 34.1363 74.0519 34.0728 74.1333 33.9935C74.2147 33.9142 74.2798 33.8217 74.3259 33.716C74.372 33.6103 74.3937 33.4966 74.3937 33.3723C74.3937 33.2481 74.372 33.1344 74.3259 33.0287C74.2798 32.923 74.2147 32.8305 74.1333 32.7512C74.0519 32.6719 73.957 32.6084 73.8485 32.5608C73.74 32.5133 73.6206 32.4895 73.4904 32.4895C73.3602 32.4895 73.2408 32.508 73.1405 32.5423C73.0401 32.5767 72.9587 32.6163 72.8936 32.6613C72.8258 32.7062 72.7743 32.7512 72.7363 32.7935C72.6983 32.8357 72.6739 32.8648 72.6603 32.8833V33.8508V33.8534Z" fill="#02549A"/>
<path d="M75.538 35.2967H75.6763C75.7767 35.2967 75.8635 35.2782 75.9394 35.2438C76.0154 35.2094 76.0859 35.1275 76.1537 34.9953L76.5362 34.2473L75.2559 31.8418H76.1049L76.9268 33.4807L77.7623 31.8418H78.5923L77.0353 34.9028L76.802 35.3363C76.7179 35.5002 76.6311 35.6271 76.5443 35.717C76.4575 35.8068 76.3653 35.8729 76.2731 35.9126C76.1809 35.9522 76.0886 35.9787 75.9937 35.9866C75.8987 35.9945 75.8011 35.9998 75.7007 35.9998H75.538V35.2967Z" fill="#02549A"/>
</g>
<defs>
<linearGradient id="paint0_linear_5130_1016" x1="-1.90969" y1="-2.06902" x2="22.7996" y2="23.2873" gradientUnits="userSpaceOnUse">
<stop stop-color="#18AEE5" stop-opacity="0.37"/>
<stop offset="0.18" stop-color="#18AEE5"/>
<stop offset="0.55" stop-color="#005196" stop-opacity="0.63"/>
<stop offset="0.98" stop-color="#005196"/>
</linearGradient>
<linearGradient id="paint1_linear_5130_1016" x1="20.9493" y1="0.283069" x2="20.9493" y2="31.1629" gradientUnits="userSpaceOnUse">
<stop stop-color="#18AEE5" stop-opacity="0.37"/>
<stop offset="0.18" stop-color="#18AEE5"/>
<stop offset="0.55" stop-color="#005196" stop-opacity="0.63"/>
<stop offset="0.98" stop-color="#005196"/>
</linearGradient>
<linearGradient id="paint2_linear_5130_1016" x1="-1.03552" y1="20.2033" x2="26.2802" y2="20.2033" gradientUnits="userSpaceOnUse">
<stop stop-color="#18AEE5" stop-opacity="0.37"/>
<stop offset="0.18" stop-color="#18AEE5"/>
<stop offset="0.55" stop-color="#005196" stop-opacity="0.63"/>
<stop offset="0.98" stop-color="#005196"/>
</linearGradient>
<linearGradient id="paint3_linear_5130_1016" x1="-2.16633" y1="13.6848" x2="17.1717" y2="13.6848" gradientUnits="userSpaceOnUse">
<stop offset="0.06" stop-color="white"/>
<stop offset="0.95" stop-color="#3D3634"/>
</linearGradient>
<linearGradient id="paint4_linear_5130_1016" x1="13.8775" y1="2.21016" x2="29.3281" y2="18.0653" gradientUnits="userSpaceOnUse">
<stop offset="0.06" stop-color="white"/>
<stop offset="0.95" stop-color="#3D3634"/>
</linearGradient>
<linearGradient id="paint5_linear_5130_1016" x1="0.928494" y1="18.6781" x2="24.6853" y2="18.6781" gradientUnits="userSpaceOnUse">
<stop offset="0.06" stop-color="white"/>
<stop offset="0.95" stop-color="#3D3634"/>
</linearGradient>
<linearGradient id="paint6_linear_5130_1016" x1="18.1444" y1="23.0037" x2="39.8561" y2="39.9161" gradientUnits="userSpaceOnUse">
<stop offset="0.18" stop-color="#F17025"/>
<stop offset="0.55" stop-color="#F17025" stop-opacity="0.63"/>
<stop offset="0.98" stop-color="#F17025"/>
</linearGradient>
<linearGradient id="paint7_linear_5130_1016" x1="16.0461" y1="27.6104" x2="38.0886" y2="27.6104" gradientUnits="userSpaceOnUse">
<stop offset="0.06" stop-color="#DEB426"/>
<stop offset="0.74" stop-color="#F17025"/>
</linearGradient>
<linearGradient id="paint8_linear_5130_1016" x1="43.3534" y1="-2.30498" x2="43.3534" y2="28.588" gradientUnits="userSpaceOnUse">
<stop stop-color="#18AEE5"/>
<stop offset="0.18" stop-color="#27B7EA"/>
<stop offset="0.55" stop-color="#0B67B2"/>
<stop offset="0.98" stop-color="#005196"/>
</linearGradient>
<linearGradient id="paint9_linear_5130_1016" x1="39.7567" y1="27.9357" x2="91.5665" y2="28.1584" gradientUnits="userSpaceOnUse">
<stop stop-color="#18AEE5"/>
<stop offset="0.18" stop-color="#27B7EA"/>
<stop offset="0.55" stop-color="#0B67B2"/>
<stop offset="0.98" stop-color="#005196"/>
</linearGradient>
<linearGradient id="paint10_linear_5130_1016" x1="39.6477" y1="27.9359" x2="69.909" y2="28.066" gradientUnits="userSpaceOnUse">
<stop offset="0.06" stop-color="white"/>
<stop offset="0.95" stop-color="#3D3634"/>
</linearGradient>
<linearGradient id="paint11_linear_5130_1016" x1="41.6213" y1="-3.48838" x2="41.5111" y2="23.4896" gradientUnits="userSpaceOnUse">
<stop offset="0.06" stop-color="white"/>
<stop offset="0.95" stop-color="#3D3634"/>
</linearGradient>
<clipPath id="clip0_5130_1016">
<rect width="97.2" height="36" fill="white" transform="translate(0.382812)"/>
</clipPath>
</defs>
</svg>
