<svg width="373" height="79" viewBox="0 0 373 79" fill="none" xmlns="http://www.w3.org/2000/svg">
<path d="M0.936 0.163998H6.588L14.112 17.768L21.312 1.856L29.232 17.624L35.964 0.163998H41.544L29.268 29.684L21.348 11.972L14.148 29.684L0.936 0.163998ZM62.0452 23.6C61.6372 24.56 61.1092 25.4 60.4612 26.12C59.8132 26.84 59.0932 27.44 58.3012 27.92C57.5092 28.4 56.6572 28.76 55.7452 29C54.8572 29.24 53.9692 29.36 53.0812 29.36C51.7852 29.36 50.5732 29.12 49.4452 28.64C48.3172 28.136 47.3332 27.464 46.4932 26.624C45.6772 25.784 45.0292 24.8 44.5492 23.672C44.0932 22.52 43.8652 21.296 43.8652 20C43.8652 18.704 44.0932 17.492 44.5492 16.364C45.0292 15.212 45.6772 14.216 46.4932 13.376C47.3332 12.536 48.3172 11.876 49.4452 11.396C50.5732 10.892 51.7852 10.64 53.0812 10.64C54.3772 10.64 55.5532 10.844 56.6092 11.252C57.6652 11.636 58.5772 12.188 59.3452 12.908C60.1132 13.604 60.7372 14.432 61.2172 15.392C61.7212 16.328 62.0572 17.336 62.2252 18.416C62.3212 18.968 62.3812 19.52 62.4052 20.072C62.4292 20.6 62.4412 21.176 62.4412 21.8H48.4012C48.4732 22.28 48.6532 22.748 48.9412 23.204C49.2532 23.636 49.6252 24.02 50.0572 24.356C50.4892 24.668 50.9692 24.92 51.4972 25.112C52.0252 25.304 52.5532 25.4 53.0812 25.4C53.8492 25.4 54.4852 25.316 54.9892 25.148C55.5172 24.956 55.9492 24.74 56.2852 24.5C56.6692 24.236 56.9812 23.936 57.2212 23.6H62.0452ZM57.6892 18.452C57.6172 17.948 57.4612 17.468 57.2212 17.012C57.0052 16.556 56.6932 16.16 56.2852 15.824C55.9012 15.464 55.4332 15.188 54.8812 14.996C54.3532 14.78 53.7532 14.672 53.0812 14.672C52.4572 14.672 51.8692 14.78 51.3172 14.996C50.7892 15.212 50.3092 15.5 49.8772 15.86C49.4692 16.196 49.1212 16.592 48.8332 17.048C48.5692 17.48 48.4012 17.948 48.3292 18.452H57.6892ZM65.3273 3.8H69.6473V29H65.3273V3.8ZM90.2295 22.88C89.9655 23.84 89.5455 24.716 88.9695 25.508C88.4175 26.3 87.7575 26.984 86.9895 27.56C86.2455 28.136 85.4055 28.58 84.4695 28.892C83.5335 29.204 82.5615 29.36 81.5535 29.36C80.2575 29.36 79.0335 29.12 77.8815 28.64C76.7295 28.136 75.7335 27.464 74.8935 26.624C74.0535 25.784 73.3815 24.8 72.8775 23.672C72.3975 22.52 72.1575 21.296 72.1575 20C72.1575 18.704 72.3975 17.492 72.8775 16.364C73.3815 15.212 74.0535 14.216 74.8935 13.376C75.7335 12.536 76.7295 11.876 77.8815 11.396C79.0335 10.892 80.2575 10.64 81.5535 10.64C82.5615 10.64 83.5215 10.796 84.4335 11.108C85.3695 11.42 86.2095 11.864 86.9535 12.44C87.7215 13.016 88.3815 13.7 88.9335 14.492C89.4855 15.284 89.8935 16.16 90.1575 17.12H85.3335C85.0215 16.4 84.5055 15.848 83.7855 15.464C83.0895 15.056 82.3455 14.852 81.5535 14.852C80.8335 14.852 80.1735 14.984 79.5735 15.248C78.9735 15.512 78.4455 15.884 77.9895 16.364C77.5575 16.82 77.2095 17.36 76.9455 17.984C76.7055 18.608 76.5855 19.28 76.5855 20C76.5855 20.72 76.7055 21.392 76.9455 22.016C77.2095 22.616 77.5575 23.144 77.9895 23.6C78.4455 24.056 78.9735 24.416 79.5735 24.68C80.1735 24.944 80.8335 25.076 81.5535 25.076C82.3455 25.076 83.1015 24.896 83.8215 24.536C84.5415 24.152 85.0695 23.6 85.4055 22.88H90.2295ZM91.3177 20C91.3177 18.704 91.5577 17.492 92.0377 16.364C92.5417 15.212 93.2137 14.216 94.0537 13.376C94.8937 12.536 95.8777 11.876 97.0057 11.396C98.1577 10.892 99.3817 10.64 100.678 10.64C101.974 10.64 103.186 10.892 104.314 11.396C105.466 11.876 106.462 12.536 107.302 13.376C108.142 14.216 108.802 15.212 109.282 16.364C109.786 17.492 110.038 18.704 110.038 20C110.038 21.296 109.786 22.52 109.282 23.672C108.802 24.8 108.142 25.784 107.302 26.624C106.462 27.464 105.466 28.136 104.314 28.64C103.186 29.12 101.974 29.36 100.678 29.36C99.3817 29.36 98.1577 29.12 97.0057 28.64C95.8777 28.136 94.8937 27.464 94.0537 26.624C93.2137 25.784 92.5417 24.8 92.0377 23.672C91.5577 22.52 91.3177 21.296 91.3177 20ZM100.678 25.148C101.422 25.148 102.094 25.016 102.694 24.752C103.294 24.488 103.81 24.128 104.242 23.672C104.674 23.216 104.998 22.676 105.214 22.052C105.454 21.428 105.574 20.744 105.574 20C105.574 19.256 105.454 18.572 105.214 17.948C104.998 17.324 104.674 16.784 104.242 16.328C103.81 15.872 103.294 15.512 102.694 15.248C102.094 14.984 101.422 14.852 100.678 14.852C99.9337 14.852 99.2617 14.984 98.6617 15.248C98.0617 15.512 97.5457 15.872 97.1137 16.328C96.6817 16.784 96.3457 17.324 96.1057 17.948C95.8657 18.572 95.7457 19.256 95.7457 20C95.7457 20.744 95.8657 21.428 96.1057 22.052C96.3457 22.676 96.6817 23.216 97.1137 23.672C97.5457 24.128 98.0617 24.488 98.6617 24.752C99.2617 25.016 99.9337 25.148 100.678 25.148ZM112.542 29V11H116.862V12.332C117.486 11.852 118.194 11.456 118.986 11.144C119.778 10.808 120.618 10.64 121.506 10.64C124.242 10.64 126.234 11.468 127.482 13.124C128.178 12.38 129.09 11.78 130.218 11.324C131.346 10.868 132.51 10.64 133.71 10.64C136.182 10.64 138.054 11.36 139.326 12.8C140.598 14.216 141.234 16.256 141.234 18.92V29H136.842V18.92C136.842 17.648 136.53 16.64 135.906 15.896C135.306 15.152 134.466 14.78 133.386 14.78C132.594 14.78 131.922 14.9 131.37 15.14C130.818 15.38 130.374 15.644 130.038 15.932C129.702 16.22 129.45 16.496 129.282 16.76C129.114 17.024 129.03 17.168 129.03 17.192V29H124.638V18.92C124.638 17.648 124.338 16.64 123.738 15.896C123.162 15.152 122.31 14.78 121.182 14.78C120.414 14.78 119.766 14.888 119.238 15.104C118.71 15.32 118.278 15.572 117.942 15.86C117.606 16.124 117.342 16.388 117.15 16.652C116.982 16.892 116.886 17.048 116.862 17.12V29H112.542ZM161.924 23.6C161.516 24.56 160.988 25.4 160.34 26.12C159.692 26.84 158.972 27.44 158.18 27.92C157.388 28.4 156.536 28.76 155.624 29C154.736 29.24 153.848 29.36 152.96 29.36C151.664 29.36 150.452 29.12 149.324 28.64C148.196 28.136 147.212 27.464 146.372 26.624C145.556 25.784 144.908 24.8 144.428 23.672C143.972 22.52 143.744 21.296 143.744 20C143.744 18.704 143.972 17.492 144.428 16.364C144.908 15.212 145.556 14.216 146.372 13.376C147.212 12.536 148.196 11.876 149.324 11.396C150.452 10.892 151.664 10.64 152.96 10.64C154.256 10.64 155.432 10.844 156.488 11.252C157.544 11.636 158.456 12.188 159.224 12.908C159.992 13.604 160.616 14.432 161.096 15.392C161.6 16.328 161.936 17.336 162.104 18.416C162.2 18.968 162.26 19.52 162.284 20.072C162.308 20.6 162.32 21.176 162.32 21.8H148.28C148.352 22.28 148.532 22.748 148.82 23.204C149.132 23.636 149.504 24.02 149.936 24.356C150.368 24.668 150.848 24.92 151.376 25.112C151.904 25.304 152.432 25.4 152.96 25.4C153.728 25.4 154.364 25.316 154.868 25.148C155.396 24.956 155.828 24.74 156.164 24.5C156.548 24.236 156.86 23.936 157.1 23.6H161.924ZM157.568 18.452C157.496 17.948 157.34 17.468 157.1 17.012C156.884 16.556 156.572 16.16 156.164 15.824C155.78 15.464 155.312 15.188 154.76 14.996C154.232 14.78 153.632 14.672 152.96 14.672C152.336 14.672 151.748 14.78 151.196 14.996C150.668 15.212 150.188 15.5 149.756 15.86C149.348 16.196 149 16.592 148.712 17.048C148.448 17.48 148.28 17.948 148.208 18.452H157.568ZM175.43 6.284H179.75V11H182.63V15.104H179.75V22.664C179.75 24.152 180.458 24.896 181.874 24.896H183.35V29H181.298C179.474 29 178.034 28.532 176.978 27.596C175.946 26.66 175.43 25.064 175.43 22.808V15.104H172.766V11H175.43V6.284ZM185.15 20C185.15 18.704 185.39 17.492 185.87 16.364C186.374 15.212 187.046 14.216 187.886 13.376C188.726 12.536 189.71 11.876 190.838 11.396C191.99 10.892 193.214 10.64 194.51 10.64C195.806 10.64 197.018 10.892 198.146 11.396C199.298 11.876 200.294 12.536 201.134 13.376C201.974 14.216 202.634 15.212 203.114 16.364C203.618 17.492 203.87 18.704 203.87 20C203.87 21.296 203.618 22.52 203.114 23.672C202.634 24.8 201.974 25.784 201.134 26.624C200.294 27.464 199.298 28.136 198.146 28.64C197.018 29.12 195.806 29.36 194.51 29.36C193.214 29.36 191.99 29.12 190.838 28.64C189.71 28.136 188.726 27.464 187.886 26.624C187.046 25.784 186.374 24.8 185.87 23.672C185.39 22.52 185.15 21.296 185.15 20ZM194.51 25.148C195.254 25.148 195.926 25.016 196.526 24.752C197.126 24.488 197.642 24.128 198.074 23.672C198.506 23.216 198.83 22.676 199.046 22.052C199.286 21.428 199.406 20.744 199.406 20C199.406 19.256 199.286 18.572 199.046 17.948C198.83 17.324 198.506 16.784 198.074 16.328C197.642 15.872 197.126 15.512 196.526 15.248C195.926 14.984 195.254 14.852 194.51 14.852C193.766 14.852 193.094 14.984 192.494 15.248C191.894 15.512 191.378 15.872 190.946 16.328C190.514 16.784 190.178 17.324 189.938 17.948C189.698 18.572 189.578 19.256 189.578 20C189.578 20.744 189.698 21.428 189.938 22.052C190.178 22.676 190.514 23.216 190.946 23.672C191.378 24.128 191.894 24.488 192.494 24.752C193.094 25.016 193.766 25.148 194.51 25.148ZM2.16 45.8H11.34C12.732 45.8 13.944 45.98 14.976 46.34C16.032 46.7 16.908 47.204 17.604 47.852C18.3 48.476 18.816 49.22 19.152 50.084C19.488 50.924 19.656 51.836 19.656 52.82C19.656 53.324 19.584 53.804 19.44 54.26C19.296 54.692 19.116 55.088 18.9 55.448C18.708 55.808 18.492 56.12 18.252 56.384C18.036 56.648 17.844 56.864 17.676 57.032C18.54 57.632 19.296 58.484 19.944 59.588C20.592 60.692 20.916 61.952 20.916 63.368C20.916 64.424 20.736 65.42 20.376 66.356C20.04 67.268 19.512 68.072 18.792 68.768C18.072 69.464 17.16 70.016 16.056 70.424C14.976 70.808 13.704 71 12.24 71H2.16V45.8ZM11.988 66.68C13.5 66.68 14.58 66.356 15.228 65.708C15.9 65.06 16.236 64.28 16.236 63.368C16.236 62.456 15.924 61.676 15.3 61.028C14.7 60.356 13.764 60.02 12.492 60.02H6.84V66.68H11.988ZM13.896 55.7C14.136 55.46 14.376 55.112 14.616 54.656C14.856 54.2 14.976 53.624 14.976 52.928C14.976 52.16 14.688 51.5 14.112 50.948C13.536 50.396 12.564 50.12 11.196 50.12H6.84V55.7H13.896ZM24.1678 45.8H33.9958C35.4598 45.8 36.7438 45.992 37.8478 46.376C38.9758 46.76 39.9118 47.3 40.6558 47.996C41.3998 48.668 41.9518 49.484 42.3118 50.444C42.6958 51.38 42.8878 52.412 42.8878 53.54C42.8878 54.404 42.7678 55.256 42.5278 56.096C42.2878 56.912 41.9158 57.668 41.4118 58.364C40.9078 59.036 40.2718 59.636 39.5038 60.164C38.7598 60.668 37.8838 61.052 36.8758 61.316L43.6798 71H38.1718L31.5838 61.64H28.8478V71H24.1678V45.8ZM34.0318 57.32C34.7758 57.32 35.4118 57.212 35.9398 56.996C36.4678 56.78 36.8998 56.504 37.2358 56.168C37.5718 55.808 37.8118 55.4 37.9558 54.944C38.1238 54.488 38.2078 54.02 38.2078 53.54C38.2078 52.58 37.8358 51.776 37.0918 51.128C36.3718 50.456 35.3518 50.12 34.0318 50.12H28.8478V57.32H34.0318ZM46.7381 45.8H51.4181V71H46.7381V45.8ZM88.9301 62.72C88.4981 64.064 87.8981 65.276 87.1301 66.356C86.3621 67.436 85.4381 68.372 84.3581 69.164C83.3021 69.932 82.1261 70.532 80.8301 70.964C79.5341 71.372 78.1541 71.576 76.6901 71.576C74.8661 71.576 73.1501 71.228 71.5421 70.532C69.9341 69.836 68.5301 68.9 67.3301 67.724C66.1301 66.524 65.1821 65.12 64.4861 63.512C63.7901 61.904 63.4421 60.2 63.4421 58.4C63.4421 56.576 63.7901 54.86 64.4861 53.252C65.1821 51.644 66.1301 50.252 67.3301 49.076C68.5301 47.876 69.9341 46.94 71.5421 46.268C73.1501 45.572 74.8661 45.224 76.6901 45.224C78.0821 45.224 79.4141 45.44 80.6861 45.872C81.9581 46.28 83.1101 46.868 84.1421 47.636C85.1981 48.38 86.1101 49.268 86.8781 50.3C87.6461 51.332 88.2461 52.472 88.6781 53.72H83.4581C82.8101 52.472 81.9101 51.512 80.7581 50.84C79.6301 50.144 78.2741 49.796 76.6901 49.796C75.4661 49.796 74.3381 50.012 73.3061 50.444C72.2981 50.876 71.4221 51.476 70.6781 52.244C69.9581 53.012 69.3941 53.924 68.9861 54.98C68.5781 56.012 68.3741 57.152 68.3741 58.4C68.3741 59.624 68.5781 60.764 68.9861 61.82C69.3941 62.852 69.9581 63.764 70.6781 64.556C71.4221 65.324 72.2981 65.924 73.3061 66.356C74.3381 66.788 75.4661 67.004 76.6901 67.004C78.4181 67.004 79.8581 66.656 81.0101 65.96C82.1861 65.264 83.1221 64.184 83.8181 62.72H88.9301ZM104.134 69.632C103.438 70.136 102.67 70.556 101.83 70.892C100.99 71.204 100.114 71.36 99.2019 71.36C97.9059 71.36 96.6819 71.12 95.5299 70.64C94.3779 70.136 93.3819 69.464 92.5419 68.624C91.7019 67.784 91.0299 66.8 90.5259 65.672C90.0459 64.52 89.8059 63.296 89.8059 62C89.8059 60.704 90.0459 59.492 90.5259 58.364C91.0299 57.212 91.7019 56.216 92.5419 55.376C93.3819 54.536 94.3779 53.876 95.5299 53.396C96.6819 52.892 97.9059 52.64 99.2019 52.64C100.09 52.64 100.954 52.808 101.794 53.144C102.658 53.456 103.438 53.864 104.134 54.368V53H108.454V71H104.134V69.632ZM104.134 59.12C104.086 59.048 103.954 58.892 103.738 58.652C103.522 58.388 103.222 58.124 102.838 57.86C102.454 57.596 101.974 57.356 101.398 57.14C100.846 56.924 100.174 56.816 99.3819 56.816C98.6379 56.816 97.9539 56.96 97.3299 57.248C96.7059 57.512 96.1539 57.884 95.6739 58.364C95.2179 58.82 94.8579 59.36 94.5939 59.984C94.3299 60.608 94.1979 61.28 94.1979 62C94.1979 62.72 94.3299 63.392 94.5939 64.016C94.8579 64.64 95.2179 65.192 95.6739 65.672C96.1539 66.128 96.7059 66.5 97.3299 66.788C97.9539 67.052 98.6379 67.184 99.3819 67.184C100.222 67.184 100.942 67.064 101.542 66.824C102.142 66.584 102.634 66.308 103.018 65.996C103.45 65.66 103.822 65.264 104.134 64.808V59.12ZM115.542 64.88C115.566 65.504 115.77 66.068 116.154 66.572C116.538 67.076 117.114 67.328 117.882 67.328C118.506 67.328 119.034 67.16 119.466 66.824C119.922 66.488 120.15 66.032 120.15 65.456C120.15 64.904 119.874 64.496 119.322 64.232C118.77 63.944 117.87 63.632 116.622 63.296C115.998 63.128 115.398 62.912 114.822 62.648C114.27 62.384 113.766 62.048 113.31 61.64C112.878 61.208 112.53 60.716 112.266 60.164C112.026 59.612 111.906 58.964 111.906 58.22C111.906 57.356 112.062 56.588 112.374 55.916C112.71 55.22 113.154 54.632 113.706 54.152C114.258 53.672 114.906 53.312 115.65 53.072C116.394 52.808 117.186 52.676 118.026 52.676C118.866 52.676 119.658 52.832 120.402 53.144C121.146 53.456 121.794 53.876 122.346 54.404C122.898 54.932 123.33 55.544 123.642 56.24C123.978 56.936 124.146 57.656 124.146 58.4H119.79C119.766 57.848 119.574 57.428 119.214 57.14C118.878 56.828 118.482 56.672 118.026 56.672C117.57 56.672 117.162 56.828 116.802 57.14C116.466 57.428 116.298 57.788 116.298 58.22C116.298 58.748 116.574 59.168 117.126 59.48C117.678 59.792 118.65 60.14 120.042 60.524C120.666 60.692 121.242 60.908 121.77 61.172C122.322 61.436 122.79 61.76 123.174 62.144C123.582 62.528 123.894 62.996 124.11 63.548C124.35 64.076 124.47 64.712 124.47 65.456C124.47 66.248 124.29 67.004 123.93 67.724C123.594 68.42 123.126 69.044 122.526 69.596C121.95 70.124 121.254 70.544 120.438 70.856C119.646 71.168 118.794 71.324 117.882 71.324C117.018 71.324 116.19 71.168 115.398 70.856C114.63 70.544 113.946 70.112 113.346 69.56C112.746 68.984 112.254 68.3 111.87 67.508C111.486 66.716 111.27 65.84 111.222 64.88H115.542ZM127.238 45.8H131.558V54.368C132.254 53.864 133.034 53.456 133.898 53.144C134.762 52.808 135.65 52.64 136.562 52.64C139.346 52.64 141.41 53.396 142.754 54.908C144.122 56.396 144.806 58.52 144.806 61.28V71H140.414V61.28C140.414 59.912 140.102 58.82 139.478 58.004C138.854 57.188 137.798 56.78 136.31 56.78C135.638 56.78 135.038 56.864 134.51 57.032C133.982 57.2 133.514 57.416 133.106 57.68C132.722 57.92 132.398 58.172 132.134 58.436C131.87 58.7 131.678 58.94 131.558 59.156V71H127.238V45.8ZM157.41 44.9L169.29 58.112L181.098 44.9V71H176.418V56.348L169.29 64.628L162.09 56.312V71H157.41V44.9ZM198.318 69.632C197.622 70.136 196.854 70.556 196.014 70.892C195.174 71.204 194.298 71.36 193.386 71.36C192.09 71.36 190.866 71.12 189.714 70.64C188.562 70.136 187.566 69.464 186.726 68.624C185.886 67.784 185.214 66.8 184.71 65.672C184.23 64.52 183.99 63.296 183.99 62C183.99 60.704 184.23 59.492 184.71 58.364C185.214 57.212 185.886 56.216 186.726 55.376C187.566 54.536 188.562 53.876 189.714 53.396C190.866 52.892 192.09 52.64 193.386 52.64C194.274 52.64 195.138 52.808 195.978 53.144C196.842 53.456 197.622 53.864 198.318 54.368V53H202.638V71H198.318V69.632ZM198.318 59.12C198.27 59.048 198.138 58.892 197.922 58.652C197.706 58.388 197.406 58.124 197.022 57.86C196.638 57.596 196.158 57.356 195.582 57.14C195.03 56.924 194.358 56.816 193.566 56.816C192.822 56.816 192.138 56.96 191.514 57.248C190.89 57.512 190.338 57.884 189.858 58.364C189.402 58.82 189.042 59.36 188.778 59.984C188.514 60.608 188.382 61.28 188.382 62C188.382 62.72 188.514 63.392 188.778 64.016C189.042 64.64 189.402 65.192 189.858 65.672C190.338 66.128 190.89 66.5 191.514 66.788C192.138 67.052 192.822 67.184 193.566 67.184C194.406 67.184 195.126 67.064 195.726 66.824C196.326 66.584 196.818 66.308 197.202 65.996C197.634 65.66 198.006 65.264 198.318 64.808V59.12ZM206.234 53H210.554V54.368C211.25 53.864 212.03 53.456 212.894 53.144C213.758 52.808 214.646 52.64 215.558 52.64C218.126 52.64 220.082 53.396 221.426 54.908C222.77 56.396 223.442 58.52 223.442 61.28V71H219.05V61.28C219.05 59.912 218.738 58.82 218.114 58.004C217.514 57.188 216.578 56.78 215.306 56.78C214.634 56.78 214.034 56.864 213.506 57.032C212.978 57.2 212.51 57.416 212.102 57.68C211.718 57.92 211.394 58.172 211.13 58.436C210.866 58.7 210.674 58.94 210.554 59.156V71H206.234V53ZM239.943 69.632C239.247 70.136 238.479 70.556 237.639 70.892C236.799 71.204 235.923 71.36 235.011 71.36C233.715 71.36 232.491 71.12 231.339 70.64C230.187 70.136 229.191 69.464 228.351 68.624C227.511 67.784 226.839 66.8 226.335 65.672C225.855 64.52 225.615 63.296 225.615 62C225.615 60.704 225.855 59.492 226.335 58.364C226.839 57.212 227.511 56.216 228.351 55.376C229.191 54.536 230.187 53.876 231.339 53.396C232.491 52.892 233.715 52.64 235.011 52.64C235.899 52.64 236.763 52.808 237.603 53.144C238.467 53.456 239.247 53.864 239.943 54.368V53H244.263V71H239.943V69.632ZM239.943 59.12C239.895 59.048 239.763 58.892 239.547 58.652C239.331 58.388 239.031 58.124 238.647 57.86C238.263 57.596 237.783 57.356 237.207 57.14C236.655 56.924 235.983 56.816 235.191 56.816C234.447 56.816 233.763 56.96 233.139 57.248C232.515 57.512 231.963 57.884 231.483 58.364C231.027 58.82 230.667 59.36 230.403 59.984C230.139 60.608 230.007 61.28 230.007 62C230.007 62.72 230.139 63.392 230.403 64.016C230.667 64.64 231.027 65.192 231.483 65.672C231.963 66.128 232.515 66.5 233.139 66.788C233.763 67.052 234.447 67.184 235.191 67.184C236.031 67.184 236.751 67.064 237.351 66.824C237.951 66.584 238.443 66.308 238.827 65.996C239.259 65.66 239.631 65.264 239.943 64.808V59.12ZM255.239 74.096H255.887C257.759 74.096 259.091 73.736 259.883 73.016C260.699 72.296 261.107 71.216 261.107 69.776V69.632C260.411 70.136 259.643 70.556 258.803 70.892C257.963 71.204 257.087 71.36 256.175 71.36C254.879 71.36 253.655 71.12 252.503 70.64C251.351 70.136 250.355 69.464 249.515 68.624C248.675 67.784 248.003 66.8 247.499 65.672C247.019 64.52 246.779 63.296 246.779 62C246.779 60.704 247.019 59.492 247.499 58.364C248.003 57.212 248.675 56.216 249.515 55.376C250.355 54.536 251.351 53.876 252.503 53.396C253.655 52.892 254.879 52.64 256.175 52.64C257.063 52.64 257.927 52.808 258.767 53.144C259.631 53.456 260.411 53.864 261.107 54.368V53H265.427V69.128C265.427 72.128 264.635 74.384 263.051 75.896C261.491 77.432 259.103 78.2 255.887 78.2H255.239V74.096ZM261.107 59.12C261.059 59.048 260.927 58.892 260.711 58.652C260.495 58.388 260.195 58.124 259.811 57.86C259.427 57.596 258.947 57.356 258.371 57.14C257.819 56.924 257.147 56.816 256.355 56.816C255.611 56.816 254.927 56.96 254.303 57.248C253.679 57.512 253.127 57.884 252.647 58.364C252.191 58.82 251.831 59.36 251.567 59.984C251.303 60.608 251.171 61.28 251.171 62C251.171 62.72 251.303 63.392 251.567 64.016C251.831 64.64 252.191 65.192 252.647 65.672C253.127 66.128 253.679 66.5 254.303 66.788C254.927 67.052 255.611 67.184 256.355 67.184C257.195 67.184 257.915 67.064 258.515 66.824C259.115 66.584 259.607 66.308 259.991 65.996C260.423 65.66 260.795 65.264 261.107 64.808V59.12ZM286.483 65.6C286.075 66.56 285.547 67.4 284.899 68.12C284.251 68.84 283.531 69.44 282.739 69.92C281.947 70.4 281.095 70.76 280.183 71C279.295 71.24 278.407 71.36 277.519 71.36C276.223 71.36 275.011 71.12 273.883 70.64C272.755 70.136 271.771 69.464 270.931 68.624C270.115 67.784 269.467 66.8 268.987 65.672C268.531 64.52 268.303 63.296 268.303 62C268.303 60.704 268.531 59.492 268.987 58.364C269.467 57.212 270.115 56.216 270.931 55.376C271.771 54.536 272.755 53.876 273.883 53.396C275.011 52.892 276.223 52.64 277.519 52.64C278.815 52.64 279.991 52.844 281.047 53.252C282.103 53.636 283.015 54.188 283.783 54.908C284.551 55.604 285.175 56.432 285.655 57.392C286.159 58.328 286.495 59.336 286.663 60.416C286.759 60.968 286.819 61.52 286.843 62.072C286.867 62.6 286.879 63.176 286.879 63.8H272.839C272.911 64.28 273.091 64.748 273.379 65.204C273.691 65.636 274.063 66.02 274.495 66.356C274.927 66.668 275.407 66.92 275.935 67.112C276.463 67.304 276.991 67.4 277.519 67.4C278.287 67.4 278.923 67.316 279.427 67.148C279.955 66.956 280.387 66.74 280.723 66.5C281.107 66.236 281.419 65.936 281.659 65.6H286.483ZM282.127 60.452C282.055 59.948 281.899 59.468 281.659 59.012C281.443 58.556 281.131 58.16 280.723 57.824C280.339 57.464 279.871 57.188 279.319 56.996C278.791 56.78 278.191 56.672 277.519 56.672C276.895 56.672 276.307 56.78 275.755 56.996C275.227 57.212 274.747 57.5 274.315 57.86C273.907 58.196 273.559 58.592 273.271 59.048C273.007 59.48 272.839 59.948 272.767 60.452H282.127ZM289.765 71V53H294.085V54.332C294.709 53.852 295.417 53.456 296.209 53.144C297.001 52.808 297.841 52.64 298.729 52.64C301.465 52.64 303.457 53.468 304.705 55.124C305.401 54.38 306.313 53.78 307.441 53.324C308.569 52.868 309.733 52.64 310.933 52.64C313.405 52.64 315.277 53.36 316.549 54.8C317.821 56.216 318.457 58.256 318.457 60.92V71H314.065V60.92C314.065 59.648 313.753 58.64 313.129 57.896C312.529 57.152 311.689 56.78 310.609 56.78C309.817 56.78 309.145 56.9 308.593 57.14C308.041 57.38 307.597 57.644 307.261 57.932C306.925 58.22 306.673 58.496 306.505 58.76C306.337 59.024 306.253 59.168 306.253 59.192V71H301.861V60.92C301.861 59.648 301.561 58.64 300.961 57.896C300.385 57.152 299.533 56.78 298.405 56.78C297.637 56.78 296.989 56.888 296.461 57.104C295.933 57.32 295.501 57.572 295.165 57.86C294.829 58.124 294.565 58.388 294.373 58.652C294.205 58.892 294.109 59.048 294.085 59.12V71H289.765ZM339.147 65.6C338.739 66.56 338.211 67.4 337.563 68.12C336.915 68.84 336.195 69.44 335.403 69.92C334.611 70.4 333.759 70.76 332.847 71C331.959 71.24 331.071 71.36 330.183 71.36C328.887 71.36 327.675 71.12 326.547 70.64C325.419 70.136 324.435 69.464 323.595 68.624C322.779 67.784 322.131 66.8 321.651 65.672C321.195 64.52 320.967 63.296 320.967 62C320.967 60.704 321.195 59.492 321.651 58.364C322.131 57.212 322.779 56.216 323.595 55.376C324.435 54.536 325.419 53.876 326.547 53.396C327.675 52.892 328.887 52.64 330.183 52.64C331.479 52.64 332.655 52.844 333.711 53.252C334.767 53.636 335.679 54.188 336.447 54.908C337.215 55.604 337.839 56.432 338.319 57.392C338.823 58.328 339.159 59.336 339.327 60.416C339.423 60.968 339.483 61.52 339.507 62.072C339.531 62.6 339.543 63.176 339.543 63.8H325.503C325.575 64.28 325.755 64.748 326.043 65.204C326.355 65.636 326.727 66.02 327.159 66.356C327.591 66.668 328.071 66.92 328.599 67.112C329.127 67.304 329.655 67.4 330.183 67.4C330.951 67.4 331.587 67.316 332.091 67.148C332.619 66.956 333.051 66.74 333.387 66.5C333.771 66.236 334.083 65.936 334.323 65.6H339.147ZM334.791 60.452C334.719 59.948 334.563 59.468 334.323 59.012C334.107 58.556 333.795 58.16 333.387 57.824C333.003 57.464 332.535 57.188 331.983 56.996C331.455 56.78 330.855 56.672 330.183 56.672C329.559 56.672 328.971 56.78 328.419 56.996C327.891 57.212 327.411 57.5 326.979 57.86C326.571 58.196 326.223 58.592 325.935 59.048C325.671 59.48 325.503 59.948 325.431 60.452H334.791ZM342.429 53H346.749V54.368C347.445 53.864 348.225 53.456 349.089 53.144C349.953 52.808 350.841 52.64 351.753 52.64C354.321 52.64 356.277 53.396 357.621 54.908C358.965 56.396 359.637 58.52 359.637 61.28V71H355.245V61.28C355.245 59.912 354.933 58.82 354.309 58.004C353.709 57.188 352.773 56.78 351.501 56.78C350.829 56.78 350.229 56.864 349.701 57.032C349.173 57.2 348.705 57.416 348.297 57.68C347.913 57.92 347.589 58.172 347.325 58.436C347.061 58.7 346.869 58.94 346.749 59.156V71H342.429V53ZM364.114 48.284H368.434V53H371.314V57.104H368.434V64.664C368.434 66.152 369.142 66.896 370.558 66.896H372.034V71H369.982C368.158 71 366.718 70.532 365.662 69.596C364.63 68.66 364.114 67.064 364.114 64.808V57.104H361.45V53H364.114V48.284Z" fill="white"/>
</svg>