<svg width="309" height="43" viewBox="0 0 309 43" fill="none" xmlns="http://www.w3.org/2000/svg">
<path d="M0.52 0.979999H3.66L7.84 10.76L11.84 1.92L16.24 10.68L19.98 0.979999H23.08L16.26 17.38L11.86 7.54L7.86 17.38L0.52 0.979999ZM34.4695 14C34.2429 14.5333 33.9495 15 33.5895 15.4C33.2295 15.8 32.8295 16.1333 32.3895 16.4C31.9495 16.6667 31.4762 16.8667 30.9695 17C30.4762 17.1333 29.9829 17.2 29.4895 17.2C28.7695 17.2 28.0962 17.0667 27.4695 16.8C26.8429 16.52 26.2962 16.1467 25.8295 15.68C25.3762 15.2133 25.0162 14.6667 24.7495 14.04C24.4962 13.4 24.3695 12.72 24.3695 12C24.3695 11.28 24.4962 10.6067 24.7495 9.98C25.0162 9.34 25.3762 8.78667 25.8295 8.32C26.2962 7.85333 26.8429 7.48667 27.4695 7.22C28.0962 6.94 28.7695 6.8 29.4895 6.8C30.2095 6.8 30.8629 6.91333 31.4495 7.14C32.0362 7.35333 32.5429 7.66 32.9695 8.06C33.3962 8.44667 33.7429 8.90667 34.0095 9.44C34.2895 9.96 34.4762 10.52 34.5695 11.12C34.6229 11.4267 34.6562 11.7333 34.6695 12.04C34.6829 12.3333 34.6895 12.6533 34.6895 13H26.8895C26.9295 13.2667 27.0295 13.5267 27.1895 13.78C27.3629 14.02 27.5695 14.2333 27.8095 14.42C28.0495 14.5933 28.3162 14.7333 28.6095 14.84C28.9029 14.9467 29.1962 15 29.4895 15C29.9162 15 30.2695 14.9533 30.5495 14.86C30.8429 14.7533 31.0829 14.6333 31.2695 14.5C31.4829 14.3533 31.6562 14.1867 31.7895 14H34.4695ZM32.0495 11.14C32.0095 10.86 31.9229 10.5933 31.7895 10.34C31.6695 10.0867 31.4962 9.86667 31.2695 9.68C31.0562 9.48 30.7962 9.32667 30.4895 9.22C30.1962 9.1 29.8629 9.04 29.4895 9.04C29.1429 9.04 28.8162 9.1 28.5095 9.22C28.2162 9.34 27.9495 9.5 27.7095 9.7C27.4829 9.88667 27.2895 10.1067 27.1295 10.36C26.9829 10.6 26.8895 10.86 26.8495 11.14H32.0495ZM36.293 3H38.693V17H36.293V3ZM50.1275 13.6C49.9808 14.1333 49.7475 14.62 49.4275 15.06C49.1208 15.5 48.7542 15.88 48.3275 16.2C47.9142 16.52 47.4475 16.7667 46.9275 16.94C46.4075 17.1133 45.8675 17.2 45.3075 17.2C44.5875 17.2 43.9075 17.0667 43.2675 16.8C42.6275 16.52 42.0742 16.1467 41.6075 15.68C41.1408 15.2133 40.7675 14.6667 40.4875 14.04C40.2208 13.4 40.0875 12.72 40.0875 12C40.0875 11.28 40.2208 10.6067 40.4875 9.98C40.7675 9.34 41.1408 8.78667 41.6075 8.32C42.0742 7.85333 42.6275 7.48667 43.2675 7.22C43.9075 6.94 44.5875 6.8 45.3075 6.8C45.8675 6.8 46.4008 6.88667 46.9075 7.06C47.4275 7.23333 47.8942 7.48 48.3075 7.8C48.7342 8.12 49.1008 8.5 49.4075 8.94C49.7142 9.38 49.9408 9.86667 50.0875 10.4H47.4075C47.2342 10 46.9475 9.69333 46.5475 9.48C46.1608 9.25333 45.7475 9.14 45.3075 9.14C44.9075 9.14 44.5408 9.21333 44.2075 9.36C43.8742 9.50667 43.5808 9.71333 43.3275 9.98C43.0875 10.2333 42.8942 10.5333 42.7475 10.88C42.6142 11.2267 42.5475 11.6 42.5475 12C42.5475 12.4 42.6142 12.7733 42.7475 13.12C42.8942 13.4533 43.0875 13.7467 43.3275 14C43.5808 14.2533 43.8742 14.4533 44.2075 14.6C44.5408 14.7467 44.9075 14.82 45.3075 14.82C45.7475 14.82 46.1675 14.72 46.5675 14.52C46.9675 14.3067 47.2608 14 47.4475 13.6H50.1275ZM50.732 12C50.732 11.28 50.8654 10.6067 51.132 9.98C51.412 9.34 51.7854 8.78667 52.252 8.32C52.7187 7.85333 53.2654 7.48667 53.892 7.22C54.532 6.94 55.212 6.8 55.932 6.8C56.652 6.8 57.3254 6.94 57.952 7.22C58.592 7.48667 59.1454 7.85333 59.612 8.32C60.0787 8.78667 60.4454 9.34 60.712 9.98C60.992 10.6067 61.132 11.28 61.132 12C61.132 12.72 60.992 13.4 60.712 14.04C60.4454 14.6667 60.0787 15.2133 59.612 15.68C59.1454 16.1467 58.592 16.52 57.952 16.8C57.3254 17.0667 56.652 17.2 55.932 17.2C55.212 17.2 54.532 17.0667 53.892 16.8C53.2654 16.52 52.7187 16.1467 52.252 15.68C51.7854 15.2133 51.412 14.6667 51.132 14.04C50.8654 13.4 50.732 12.72 50.732 12ZM55.932 14.86C56.3454 14.86 56.7187 14.7867 57.052 14.64C57.3854 14.4933 57.672 14.2933 57.912 14.04C58.152 13.7867 58.332 13.4867 58.452 13.14C58.5854 12.7933 58.652 12.4133 58.652 12C58.652 11.5867 58.5854 11.2067 58.452 10.86C58.332 10.5133 58.152 10.2133 57.912 9.96C57.672 9.70667 57.3854 9.50667 57.052 9.36C56.7187 9.21333 56.3454 9.14 55.932 9.14C55.5187 9.14 55.1454 9.21333 54.812 9.36C54.4787 9.50667 54.192 9.70667 53.952 9.96C53.712 10.2133 53.5254 10.5133 53.392 10.86C53.2587 11.2067 53.192 11.5867 53.192 12C53.192 12.4133 53.2587 12.7933 53.392 13.14C53.5254 13.4867 53.712 13.7867 53.952 14.04C54.192 14.2933 54.4787 14.4933 54.812 14.64C55.1454 14.7867 55.5187 14.86 55.932 14.86ZM62.5234 17V7H64.9234V7.74C65.2701 7.47333 65.6634 7.25333 66.1034 7.08C66.5434 6.89333 67.0101 6.8 67.5034 6.8C69.0234 6.8 70.1301 7.26 70.8234 8.18C71.2101 7.76667 71.7168 7.43333 72.3434 7.18C72.9701 6.92667 73.6168 6.8 74.2834 6.8C75.6568 6.8 76.6968 7.2 77.4034 8C78.1101 8.78667 78.4634 9.92 78.4634 11.4V17H76.0234V11.4C76.0234 10.6933 75.8501 10.1333 75.5034 9.72C75.1701 9.30667 74.7034 9.1 74.1034 9.1C73.6634 9.1 73.2901 9.16667 72.9834 9.3C72.6768 9.43333 72.4301 9.58 72.2434 9.74C72.0568 9.9 71.9168 10.0533 71.8234 10.2C71.7301 10.3467 71.6834 10.4267 71.6834 10.44V17H69.2434V11.4C69.2434 10.6933 69.0768 10.1333 68.7434 9.72C68.4234 9.30667 67.9501 9.1 67.3234 9.1C66.8968 9.1 66.5368 9.16 66.2434 9.28C65.9501 9.4 65.7101 9.54 65.5234 9.7C65.3368 9.84667 65.1901 9.99333 65.0834 10.14C64.9901 10.2733 64.9368 10.36 64.9234 10.4V17H62.5234ZM89.9578 14C89.7311 14.5333 89.4378 15 89.0778 15.4C88.7178 15.8 88.3178 16.1333 87.8778 16.4C87.4378 16.6667 86.9645 16.8667 86.4578 17C85.9645 17.1333 85.4711 17.2 84.9778 17.2C84.2578 17.2 83.5845 17.0667 82.9578 16.8C82.3311 16.52 81.7845 16.1467 81.3178 15.68C80.8645 15.2133 80.5045 14.6667 80.2378 14.04C79.9845 13.4 79.8578 12.72 79.8578 12C79.8578 11.28 79.9845 10.6067 80.2378 9.98C80.5045 9.34 80.8645 8.78667 81.3178 8.32C81.7845 7.85333 82.3311 7.48667 82.9578 7.22C83.5845 6.94 84.2578 6.8 84.9778 6.8C85.6978 6.8 86.3511 6.91333 86.9378 7.14C87.5245 7.35333 88.0311 7.66 88.4578 8.06C88.8845 8.44667 89.2311 8.90667 89.4978 9.44C89.7778 9.96 89.9645 10.52 90.0578 11.12C90.1111 11.4267 90.1445 11.7333 90.1578 12.04C90.1711 12.3333 90.1778 12.6533 90.1778 13H82.3778C82.4178 13.2667 82.5178 13.5267 82.6778 13.78C82.8511 14.02 83.0578 14.2333 83.2978 14.42C83.5378 14.5933 83.8045 14.7333 84.0978 14.84C84.3911 14.9467 84.6845 15 84.9778 15C85.4045 15 85.7578 14.9533 86.0378 14.86C86.3311 14.7533 86.5711 14.6333 86.7578 14.5C86.9711 14.3533 87.1445 14.1867 87.2778 14H89.9578ZM87.5378 11.14C87.4978 10.86 87.4111 10.5933 87.2778 10.34C87.1578 10.0867 86.9845 9.86667 86.7578 9.68C86.5445 9.48 86.2845 9.32667 85.9778 9.22C85.6845 9.1 85.3511 9.04 84.9778 9.04C84.6311 9.04 84.3045 9.1 83.9978 9.22C83.7045 9.34 83.4378 9.5 83.1978 9.7C82.9711 9.88667 82.7778 10.1067 82.6178 10.36C82.4711 10.6 82.3778 10.86 82.3378 11.14H87.5378ZM97.4613 4.38H99.8613V7H101.461V9.28H99.8613V13.48C99.8613 14.3067 100.255 14.72 101.041 14.72H101.861V17H100.721C99.7079 17 98.9079 16.74 98.3213 16.22C97.7479 15.7 97.4613 14.8133 97.4613 13.56V9.28H95.9813V7H97.4613V4.38ZM102.861 12C102.861 11.28 102.994 10.6067 103.261 9.98C103.541 9.34 103.914 8.78667 104.381 8.32C104.848 7.85333 105.394 7.48667 106.021 7.22C106.661 6.94 107.341 6.8 108.061 6.8C108.781 6.8 109.454 6.94 110.081 7.22C110.721 7.48667 111.274 7.85333 111.741 8.32C112.208 8.78667 112.574 9.34 112.841 9.98C113.121 10.6067 113.261 11.28 113.261 12C113.261 12.72 113.121 13.4 112.841 14.04C112.574 14.6667 112.208 15.2133 111.741 15.68C111.274 16.1467 110.721 16.52 110.081 16.8C109.454 17.0667 108.781 17.2 108.061 17.2C107.341 17.2 106.661 17.0667 106.021 16.8C105.394 16.52 104.848 16.1467 104.381 15.68C103.914 15.2133 103.541 14.6667 103.261 14.04C102.994 13.4 102.861 12.72 102.861 12ZM108.061 14.86C108.474 14.86 108.848 14.7867 109.181 14.64C109.514 14.4933 109.801 14.2933 110.041 14.04C110.281 13.7867 110.461 13.4867 110.581 13.14C110.714 12.7933 110.781 12.4133 110.781 12C110.781 11.5867 110.714 11.2067 110.581 10.86C110.461 10.5133 110.281 10.2133 110.041 9.96C109.801 9.70667 109.514 9.50667 109.181 9.36C108.848 9.21333 108.474 9.14 108.061 9.14C107.648 9.14 107.274 9.21333 106.941 9.36C106.608 9.50667 106.321 9.70667 106.081 9.96C105.841 10.2133 105.654 10.5133 105.521 10.86C105.388 11.2067 105.321 11.5867 105.321 12C105.321 12.4133 105.388 12.7933 105.521 13.14C105.654 13.4867 105.841 13.7867 106.081 14.04C106.321 14.2933 106.608 14.4933 106.941 14.64C107.274 14.7867 107.648 14.86 108.061 14.86ZM1.2 25H6.3C7.07333 25 7.74667 25.1 8.32 25.3C8.90667 25.5 9.39333 25.78 9.78 26.14C10.1667 26.4867 10.4533 26.9 10.64 27.38C10.8267 27.8467 10.92 28.3533 10.92 28.9C10.92 29.18 10.88 29.4467 10.8 29.7C10.72 29.94 10.62 30.16 10.5 30.36C10.3933 30.56 10.2733 30.7333 10.14 30.88C10.02 31.0267 9.91333 31.1467 9.82 31.24C10.3 31.5733 10.72 32.0467 11.08 32.66C11.44 33.2733 11.62 33.9733 11.62 34.76C11.62 35.3467 11.52 35.9 11.32 36.42C11.1333 36.9267 10.84 37.3733 10.44 37.76C10.04 38.1467 9.53333 38.4533 8.92 38.68C8.32 38.8933 7.61333 39 6.8 39H1.2V25ZM6.66 36.6C7.5 36.6 8.1 36.42 8.46 36.06C8.83333 35.7 9.02 35.2667 9.02 34.76C9.02 34.2533 8.84667 33.82 8.5 33.46C8.16667 33.0867 7.64667 32.9 6.94 32.9H3.8V36.6H6.66ZM7.72 30.5C7.85333 30.3667 7.98667 30.1733 8.12 29.92C8.25333 29.6667 8.32 29.3467 8.32 28.96C8.32 28.5333 8.16 28.1667 7.84 27.86C7.52 27.5533 6.98 27.4 6.22 27.4H3.8V30.5H7.72ZM13.4266 25H18.8866C19.6999 25 20.4132 25.1067 21.0266 25.32C21.6532 25.5333 22.1732 25.8333 22.5866 26.22C22.9999 26.5933 23.3066 27.0467 23.5066 27.58C23.7199 28.1 23.8266 28.6733 23.8266 29.3C23.8266 29.78 23.7599 30.2533 23.6266 30.72C23.4932 31.1733 23.2866 31.5933 23.0066 31.98C22.7266 32.3533 22.3732 32.6867 21.9466 32.98C21.5332 33.26 21.0466 33.4733 20.4866 33.62L24.2666 39H21.2066L17.5466 33.8H16.0266V39H13.4266V25ZM18.9066 31.4C19.3199 31.4 19.6732 31.34 19.9666 31.22C20.2599 31.1 20.4999 30.9467 20.6866 30.76C20.8732 30.56 21.0066 30.3333 21.0866 30.08C21.1799 29.8267 21.2266 29.5667 21.2266 29.3C21.2266 28.7667 21.0199 28.32 20.6066 27.96C20.2066 27.5867 19.6399 27.4 18.9066 27.4H16.0266V31.4H18.9066ZM25.9656 25H28.5656V39H25.9656V25ZM49.4056 34.4C49.1656 35.1467 48.8323 35.82 48.4056 36.42C47.979 37.02 47.4656 37.54 46.8656 37.98C46.279 38.4067 45.6256 38.74 44.9056 38.98C44.1856 39.2067 43.419 39.32 42.6056 39.32C41.5923 39.32 40.639 39.1267 39.7456 38.74C38.8523 38.3533 38.0723 37.8333 37.4056 37.18C36.739 36.5133 36.2123 35.7333 35.8256 34.84C35.439 33.9467 35.2456 33 35.2456 32C35.2456 30.9867 35.439 30.0333 35.8256 29.14C36.2123 28.2467 36.739 27.4733 37.4056 26.82C38.0723 26.1533 38.8523 25.6333 39.7456 25.26C40.639 24.8733 41.5923 24.68 42.6056 24.68C43.379 24.68 44.119 24.8 44.8256 25.04C45.5323 25.2667 46.1723 25.5933 46.7456 26.02C47.3323 26.4333 47.839 26.9267 48.2656 27.5C48.6923 28.0733 49.0256 28.7067 49.2656 29.4H46.3656C46.0056 28.7067 45.5056 28.1733 44.8656 27.8C44.239 27.4133 43.4856 27.22 42.6056 27.22C41.9256 27.22 41.299 27.34 40.7256 27.58C40.1656 27.82 39.679 28.1533 39.2656 28.58C38.8656 29.0067 38.5523 29.5133 38.3256 30.1C38.099 30.6733 37.9856 31.3067 37.9856 32C37.9856 32.68 38.099 33.3133 38.3256 33.9C38.5523 34.4733 38.8656 34.98 39.2656 35.42C39.679 35.8467 40.1656 36.18 40.7256 36.42C41.299 36.66 41.9256 36.78 42.6056 36.78C43.5656 36.78 44.3656 36.5867 45.0056 36.2C45.659 35.8133 46.179 35.2133 46.5656 34.4H49.4056ZM57.8522 38.24C57.4655 38.52 57.0389 38.7533 56.5722 38.94C56.1055 39.1133 55.6189 39.2 55.1122 39.2C54.3922 39.2 53.7122 39.0667 53.0722 38.8C52.4322 38.52 51.8789 38.1467 51.4122 37.68C50.9455 37.2133 50.5722 36.6667 50.2922 36.04C50.0255 35.4 49.8922 34.72 49.8922 34C49.8922 33.28 50.0255 32.6067 50.2922 31.98C50.5722 31.34 50.9455 30.7867 51.4122 30.32C51.8789 29.8533 52.4322 29.4867 53.0722 29.22C53.7122 28.94 54.3922 28.8 55.1122 28.8C55.6055 28.8 56.0855 28.8933 56.5522 29.08C57.0322 29.2533 57.4655 29.48 57.8522 29.76V29H60.2522V39H57.8522V38.24ZM57.8522 32.4C57.8255 32.36 57.7522 32.2733 57.6322 32.14C57.5122 31.9933 57.3455 31.8467 57.1322 31.7C56.9189 31.5533 56.6522 31.42 56.3322 31.3C56.0255 31.18 55.6522 31.12 55.2122 31.12C54.7989 31.12 54.4189 31.2 54.0722 31.36C53.7255 31.5067 53.4189 31.7133 53.1522 31.98C52.8989 32.2333 52.6989 32.5333 52.5522 32.88C52.4055 33.2267 52.3322 33.6 52.3322 34C52.3322 34.4 52.4055 34.7733 52.5522 35.12C52.6989 35.4667 52.8989 35.7733 53.1522 36.04C53.4189 36.2933 53.7255 36.5 54.0722 36.66C54.4189 36.8067 54.7989 36.88 55.2122 36.88C55.6789 36.88 56.0789 36.8133 56.4122 36.68C56.7455 36.5467 57.0189 36.3933 57.2322 36.22C57.4722 36.0333 57.6789 35.8133 57.8522 35.56V32.4ZM64.19 35.6C64.2033 35.9467 64.3167 36.26 64.53 36.54C64.7433 36.82 65.0633 36.96 65.49 36.96C65.8367 36.96 66.13 36.8667 66.37 36.68C66.6233 36.4933 66.75 36.24 66.75 35.92C66.75 35.6133 66.5967 35.3867 66.29 35.24C65.9833 35.08 65.4833 34.9067 64.79 34.72C64.4433 34.6267 64.11 34.5067 63.79 34.36C63.4833 34.2133 63.2033 34.0267 62.95 33.8C62.71 33.56 62.5167 33.2867 62.37 32.98C62.2367 32.6733 62.17 32.3133 62.17 31.9C62.17 31.42 62.2567 30.9933 62.43 30.62C62.6167 30.2333 62.8633 29.9067 63.17 29.64C63.4767 29.3733 63.8367 29.1733 64.25 29.04C64.6633 28.8933 65.1033 28.82 65.57 28.82C66.0367 28.82 66.4767 28.9067 66.89 29.08C67.3033 29.2533 67.6633 29.4867 67.97 29.78C68.2767 30.0733 68.5167 30.4133 68.69 30.8C68.8767 31.1867 68.97 31.5867 68.97 32H66.55C66.5367 31.6933 66.43 31.46 66.23 31.3C66.0433 31.1267 65.8233 31.04 65.57 31.04C65.3167 31.04 65.09 31.1267 64.89 31.3C64.7033 31.46 64.61 31.66 64.61 31.9C64.61 32.1933 64.7633 32.4267 65.07 32.6C65.3767 32.7733 65.9167 32.9667 66.69 33.18C67.0367 33.2733 67.3567 33.3933 67.65 33.54C67.9567 33.6867 68.2167 33.8667 68.43 34.08C68.6567 34.2933 68.83 34.5533 68.95 34.86C69.0833 35.1533 69.15 35.5067 69.15 35.92C69.15 36.36 69.05 36.78 68.85 37.18C68.6633 37.5667 68.4033 37.9133 68.07 38.22C67.75 38.5133 67.3633 38.7467 66.91 38.92C66.47 39.0933 65.9967 39.18 65.49 39.18C65.01 39.18 64.55 39.0933 64.11 38.92C63.6833 38.7467 63.3033 38.5067 62.97 38.2C62.6367 37.88 62.3633 37.5 62.15 37.06C61.9367 36.62 61.8167 36.1333 61.79 35.6H64.19ZM70.6875 25H73.0875V29.76C73.4742 29.48 73.9075 29.2533 74.3875 29.08C74.8675 28.8933 75.3608 28.8 75.8675 28.8C77.4142 28.8 78.5608 29.22 79.3075 30.06C80.0675 30.8867 80.4475 32.0667 80.4475 33.6V39H78.0075V33.6C78.0075 32.84 77.8342 32.2333 77.4875 31.78C77.1408 31.3267 76.5542 31.1 75.7275 31.1C75.3542 31.1 75.0208 31.1467 74.7275 31.24C74.4342 31.3333 74.1742 31.4533 73.9475 31.6C73.7342 31.7333 73.5542 31.8733 73.4075 32.02C73.2608 32.1667 73.1542 32.3 73.0875 32.42V39H70.6875V25ZM87.45 24.5L94.05 31.84L100.61 24.5V39H98.01V30.86L94.05 35.46L90.05 30.84V39H87.45V24.5ZM110.176 38.24C109.79 38.52 109.363 38.7533 108.896 38.94C108.43 39.1133 107.943 39.2 107.436 39.2C106.716 39.2 106.036 39.0667 105.396 38.8C104.756 38.52 104.203 38.1467 103.736 37.68C103.27 37.2133 102.896 36.6667 102.616 36.04C102.35 35.4 102.216 34.72 102.216 34C102.216 33.28 102.35 32.6067 102.616 31.98C102.896 31.34 103.27 30.7867 103.736 30.32C104.203 29.8533 104.756 29.4867 105.396 29.22C106.036 28.94 106.716 28.8 107.436 28.8C107.93 28.8 108.41 28.8933 108.876 29.08C109.356 29.2533 109.79 29.48 110.176 29.76V29H112.576V39H110.176V38.24ZM110.176 32.4C110.15 32.36 110.076 32.2733 109.956 32.14C109.836 31.9933 109.67 31.8467 109.456 31.7C109.243 31.5533 108.976 31.42 108.656 31.3C108.35 31.18 107.976 31.12 107.536 31.12C107.123 31.12 106.743 31.2 106.396 31.36C106.05 31.5067 105.743 31.7133 105.476 31.98C105.223 32.2333 105.023 32.5333 104.876 32.88C104.73 33.2267 104.656 33.6 104.656 34C104.656 34.4 104.73 34.7733 104.876 35.12C105.023 35.4667 105.223 35.7733 105.476 36.04C105.743 36.2933 106.05 36.5 106.396 36.66C106.743 36.8067 107.123 36.88 107.536 36.88C108.003 36.88 108.403 36.8133 108.736 36.68C109.07 36.5467 109.343 36.3933 109.556 36.22C109.796 36.0333 110.003 35.8133 110.176 35.56V32.4ZM114.574 29H116.974V29.76C117.361 29.48 117.794 29.2533 118.274 29.08C118.754 28.8933 119.248 28.8 119.754 28.8C121.181 28.8 122.268 29.22 123.014 30.06C123.761 30.8867 124.134 32.0667 124.134 33.6V39H121.694V33.6C121.694 32.84 121.521 32.2333 121.174 31.78C120.841 31.3267 120.321 31.1 119.614 31.1C119.241 31.1 118.908 31.1467 118.614 31.24C118.321 31.3333 118.061 31.4533 117.834 31.6C117.621 31.7333 117.441 31.8733 117.294 32.02C117.148 32.1667 117.041 32.3 116.974 32.42V39H114.574V29ZM133.301 38.24C132.915 38.52 132.488 38.7533 132.021 38.94C131.555 39.1133 131.068 39.2 130.561 39.2C129.841 39.2 129.161 39.0667 128.521 38.8C127.881 38.52 127.328 38.1467 126.861 37.68C126.395 37.2133 126.021 36.6667 125.741 36.04C125.475 35.4 125.341 34.72 125.341 34C125.341 33.28 125.475 32.6067 125.741 31.98C126.021 31.34 126.395 30.7867 126.861 30.32C127.328 29.8533 127.881 29.4867 128.521 29.22C129.161 28.94 129.841 28.8 130.561 28.8C131.055 28.8 131.535 28.8933 132.001 29.08C132.481 29.2533 132.915 29.48 133.301 29.76V29H135.701V39H133.301V38.24ZM133.301 32.4C133.275 32.36 133.201 32.2733 133.081 32.14C132.961 31.9933 132.795 31.8467 132.581 31.7C132.368 31.5533 132.101 31.42 131.781 31.3C131.475 31.18 131.101 31.12 130.661 31.12C130.248 31.12 129.868 31.2 129.521 31.36C129.175 31.5067 128.868 31.7133 128.601 31.98C128.348 32.2333 128.148 32.5333 128.001 32.88C127.855 33.2267 127.781 33.6 127.781 34C127.781 34.4 127.855 34.7733 128.001 35.12C128.148 35.4667 128.348 35.7733 128.601 36.04C128.868 36.2933 129.175 36.5 129.521 36.66C129.868 36.8067 130.248 36.88 130.661 36.88C131.128 36.88 131.528 36.8133 131.861 36.68C132.195 36.5467 132.468 36.3933 132.681 36.22C132.921 36.0333 133.128 35.8133 133.301 35.56V32.4ZM141.799 40.72H142.159C143.199 40.72 143.939 40.52 144.379 40.12C144.833 39.72 145.059 39.12 145.059 38.32V38.24C144.673 38.52 144.246 38.7533 143.779 38.94C143.313 39.1133 142.826 39.2 142.319 39.2C141.599 39.2 140.919 39.0667 140.279 38.8C139.639 38.52 139.086 38.1467 138.619 37.68C138.153 37.2133 137.779 36.6667 137.499 36.04C137.233 35.4 137.099 34.72 137.099 34C137.099 33.28 137.233 32.6067 137.499 31.98C137.779 31.34 138.153 30.7867 138.619 30.32C139.086 29.8533 139.639 29.4867 140.279 29.22C140.919 28.94 141.599 28.8 142.319 28.8C142.813 28.8 143.293 28.8933 143.759 29.08C144.239 29.2533 144.673 29.48 145.059 29.76V29H147.459V37.96C147.459 39.6267 147.019 40.88 146.139 41.72C145.273 42.5733 143.946 43 142.159 43H141.799V40.72ZM145.059 32.4C145.033 32.36 144.959 32.2733 144.839 32.14C144.719 31.9933 144.553 31.8467 144.339 31.7C144.126 31.5533 143.859 31.42 143.539 31.3C143.233 31.18 142.859 31.12 142.419 31.12C142.006 31.12 141.626 31.2 141.279 31.36C140.933 31.5067 140.626 31.7133 140.359 31.98C140.106 32.2333 139.906 32.5333 139.759 32.88C139.613 33.2267 139.539 33.6 139.539 34C139.539 34.4 139.613 34.7733 139.759 35.12C139.906 35.4667 140.106 35.7733 140.359 36.04C140.626 36.2933 140.933 36.5 141.279 36.66C141.626 36.8067 142.006 36.88 142.419 36.88C142.886 36.88 143.286 36.8133 143.619 36.68C143.953 36.5467 144.226 36.3933 144.439 36.22C144.679 36.0333 144.886 35.8133 145.059 35.56V32.4ZM159.157 36C158.93 36.5333 158.637 37 158.277 37.4C157.917 37.8 157.517 38.1333 157.077 38.4C156.637 38.6667 156.164 38.8667 155.657 39C155.164 39.1333 154.67 39.2 154.177 39.2C153.457 39.2 152.784 39.0667 152.157 38.8C151.53 38.52 150.984 38.1467 150.517 37.68C150.064 37.2133 149.704 36.6667 149.437 36.04C149.184 35.4 149.057 34.72 149.057 34C149.057 33.28 149.184 32.6067 149.437 31.98C149.704 31.34 150.064 30.7867 150.517 30.32C150.984 29.8533 151.53 29.4867 152.157 29.22C152.784 28.94 153.457 28.8 154.177 28.8C154.897 28.8 155.55 28.9133 156.137 29.14C156.724 29.3533 157.23 29.66 157.657 30.06C158.084 30.4467 158.43 30.9067 158.697 31.44C158.977 31.96 159.164 32.52 159.257 33.12C159.31 33.4267 159.344 33.7333 159.357 34.04C159.37 34.3333 159.377 34.6533 159.377 35H151.577C151.617 35.2667 151.717 35.5267 151.877 35.78C152.05 36.02 152.257 36.2333 152.497 36.42C152.737 36.5933 153.004 36.7333 153.297 36.84C153.59 36.9467 153.884 37 154.177 37C154.604 37 154.957 36.9533 155.237 36.86C155.53 36.7533 155.77 36.6333 155.957 36.5C156.17 36.3533 156.344 36.1867 156.477 36H159.157ZM156.737 33.14C156.697 32.86 156.61 32.5933 156.477 32.34C156.357 32.0867 156.184 31.8667 155.957 31.68C155.744 31.48 155.484 31.3267 155.177 31.22C154.884 31.1 154.55 31.04 154.177 31.04C153.83 31.04 153.504 31.1 153.197 31.22C152.904 31.34 152.637 31.5 152.397 31.7C152.17 31.8867 151.977 32.1067 151.817 32.36C151.67 32.6 151.577 32.86 151.537 33.14H156.737ZM160.98 39V29H163.38V29.74C163.727 29.4733 164.12 29.2533 164.56 29.08C165 28.8933 165.467 28.8 165.96 28.8C167.48 28.8 168.587 29.26 169.28 30.18C169.667 29.7667 170.174 29.4333 170.8 29.18C171.427 28.9267 172.074 28.8 172.74 28.8C174.114 28.8 175.154 29.2 175.86 30C176.567 30.7867 176.92 31.92 176.92 33.4V39H174.48V33.4C174.48 32.6933 174.307 32.1333 173.96 31.72C173.627 31.3067 173.16 31.1 172.56 31.1C172.12 31.1 171.747 31.1667 171.44 31.3C171.134 31.4333 170.887 31.58 170.7 31.74C170.514 31.9 170.374 32.0533 170.28 32.2C170.187 32.3467 170.14 32.4267 170.14 32.44V39H167.7V33.4C167.7 32.6933 167.534 32.1333 167.2 31.72C166.88 31.3067 166.407 31.1 165.78 31.1C165.354 31.1 164.994 31.16 164.7 31.28C164.407 31.4 164.167 31.54 163.98 31.7C163.794 31.8467 163.647 31.9933 163.54 32.14C163.447 32.2733 163.394 32.36 163.38 32.4V39H160.98ZM188.415 36C188.188 36.5333 187.895 37 187.535 37.4C187.175 37.8 186.775 38.1333 186.335 38.4C185.895 38.6667 185.422 38.8667 184.915 39C184.422 39.1333 183.928 39.2 183.435 39.2C182.715 39.2 182.042 39.0667 181.415 38.8C180.788 38.52 180.242 38.1467 179.775 37.68C179.322 37.2133 178.962 36.6667 178.695 36.04C178.442 35.4 178.315 34.72 178.315 34C178.315 33.28 178.442 32.6067 178.695 31.98C178.962 31.34 179.322 30.7867 179.775 30.32C180.242 29.8533 180.788 29.4867 181.415 29.22C182.042 28.94 182.715 28.8 183.435 28.8C184.155 28.8 184.808 28.9133 185.395 29.14C185.982 29.3533 186.488 29.66 186.915 30.06C187.342 30.4467 187.688 30.9067 187.955 31.44C188.235 31.96 188.422 32.52 188.515 33.12C188.568 33.4267 188.602 33.7333 188.615 34.04C188.628 34.3333 188.635 34.6533 188.635 35H180.835C180.875 35.2667 180.975 35.5267 181.135 35.78C181.308 36.02 181.515 36.2333 181.755 36.42C181.995 36.5933 182.262 36.7333 182.555 36.84C182.848 36.9467 183.142 37 183.435 37C183.862 37 184.215 36.9533 184.495 36.86C184.788 36.7533 185.028 36.6333 185.215 36.5C185.428 36.3533 185.602 36.1867 185.735 36H188.415ZM185.995 33.14C185.955 32.86 185.868 32.5933 185.735 32.34C185.615 32.0867 185.442 31.8667 185.215 31.68C185.002 31.48 184.742 31.3267 184.435 31.22C184.142 31.1 183.808 31.04 183.435 31.04C183.088 31.04 182.762 31.1 182.455 31.22C182.162 31.34 181.895 31.5 181.655 31.7C181.428 31.8867 181.235 32.1067 181.075 32.36C180.928 32.6 180.835 32.86 180.795 33.14H185.995ZM190.238 29H192.638V29.76C193.025 29.48 193.458 29.2533 193.938 29.08C194.418 28.8933 194.912 28.8 195.418 28.8C196.845 28.8 197.932 29.22 198.678 30.06C199.425 30.8867 199.798 32.0667 199.798 33.6V39H197.358V33.6C197.358 32.84 197.185 32.2333 196.838 31.78C196.505 31.3267 195.985 31.1 195.278 31.1C194.905 31.1 194.572 31.1467 194.278 31.24C193.985 31.3333 193.725 31.4533 193.498 31.6C193.285 31.7333 193.105 31.8733 192.958 32.02C192.812 32.1667 192.705 32.3 192.638 32.42V39H190.238V29ZM202.285 26.38H204.685V29H206.285V31.28H204.685V35.48C204.685 36.3067 205.079 36.72 205.865 36.72H206.685V39H205.545C204.532 39 203.732 38.74 203.145 38.22C202.572 37.7 202.285 36.8133 202.285 35.56V31.28H200.805V29H202.285V26.38Z" fill="white"/>
</svg>