<svg width="21" height="20" viewBox="0 0 21 20" fill="none" xmlns="http://www.w3.org/2000/svg">
<g clip-path="url(#clip0_762_57)">
<path d="M10.6666 1.80078C13.3385 1.80078 13.6549 1.8125 14.7057 1.85937C15.6823 1.90234 16.2096 2.06641 16.5612 2.20312C17.026 2.38281 17.3619 2.60156 17.7096 2.94922C18.0612 3.30078 18.276 3.63281 18.4557 4.09766C18.5924 4.44922 18.7565 4.98047 18.7994 5.95312C18.8463 7.00781 18.858 7.32422 18.858 9.99219C18.858 12.6641 18.8463 12.9805 18.7994 14.0312C18.7565 15.0078 18.5924 15.5352 18.4557 15.8867C18.276 16.3516 18.0572 16.6875 17.7096 17.0352C17.358 17.3867 17.026 17.6016 16.5612 17.7812C16.2096 17.918 15.6783 18.082 14.7057 18.125C13.651 18.1719 13.3346 18.1836 10.6666 18.1836C7.99475 18.1836 7.67834 18.1719 6.62756 18.125C5.651 18.082 5.12366 17.918 4.77209 17.7812C4.30725 17.6016 3.97131 17.3828 3.62366 17.0352C3.27209 16.6836 3.05725 16.3516 2.87756 15.8867C2.74084 15.5352 2.57678 15.0039 2.53381 14.0312C2.48694 12.9766 2.47522 12.6602 2.47522 9.99219C2.47522 7.32031 2.48694 7.00391 2.53381 5.95312C2.57678 4.97656 2.74084 4.44922 2.87756 4.09766C3.05725 3.63281 3.276 3.29687 3.62366 2.94922C3.97522 2.59766 4.30725 2.38281 4.77209 2.20312C5.12366 2.06641 5.65491 1.90234 6.62756 1.85937C7.67834 1.8125 7.99475 1.80078 10.6666 1.80078ZM10.6666 0C7.95178 0 7.61194 0.0117187 6.54553 0.0585937C5.48303 0.105469 4.75256 0.277344 4.11975 0.523437C3.45959 0.78125 2.901 1.12109 2.34631 1.67969C1.78772 2.23437 1.44788 2.79297 1.19006 3.44922C0.94397 4.08594 0.772095 4.8125 0.72522 5.875C0.678345 6.94531 0.666626 7.28516 0.666626 10C0.666626 12.7148 0.678345 13.0547 0.72522 14.1211C0.772095 15.1836 0.94397 15.9141 1.19006 16.5469C1.44788 17.207 1.78772 17.7656 2.34631 18.3203C2.901 18.875 3.45959 19.2187 4.11584 19.4727C4.75256 19.7187 5.47913 19.8906 6.54163 19.9375C7.60803 19.9844 7.94788 19.9961 10.6627 19.9961C13.3776 19.9961 13.7174 19.9844 14.7838 19.9375C15.8463 19.8906 16.5768 19.7187 17.2096 19.4727C17.8658 19.2187 18.4244 18.875 18.9791 18.3203C19.5338 17.7656 19.8776 17.207 20.1315 16.5508C20.3776 15.9141 20.5494 15.1875 20.5963 14.125C20.6432 13.0586 20.6549 12.7187 20.6549 10.0039C20.6549 7.28906 20.6432 6.94922 20.5963 5.88281C20.5494 4.82031 20.3776 4.08984 20.1315 3.45703C19.8854 2.79297 19.5455 2.23437 18.9869 1.67969C18.4323 1.125 17.8737 0.78125 17.2174 0.527344C16.5807 0.28125 15.8541 0.109375 14.7916 0.0625C13.7213 0.0117188 13.3815 0 10.6666 0Z" fill="#00549B"/>
<path d="M10.6666 4.86328C7.83069 4.86328 5.52991 7.16406 5.52991 10C5.52991 12.8359 7.83069 15.1367 10.6666 15.1367C13.5026 15.1367 15.8033 12.8359 15.8033 10C15.8033 7.16406 13.5026 4.86328 10.6666 4.86328ZM10.6666 13.332C8.82678 13.332 7.33459 11.8398 7.33459 10C7.33459 8.16016 8.82678 6.66797 10.6666 6.66797C12.5065 6.66797 13.9987 8.16016 13.9987 10C13.9987 11.8398 12.5065 13.332 10.6666 13.332Z" fill="#00549B"/>
<path d="M17.2057 4.6601C17.2057 5.32416 16.6666 5.85932 16.0065 5.85932C15.3424 5.85932 14.8073 5.32025 14.8073 4.6601C14.8073 3.99603 15.3463 3.46088 16.0065 3.46088C16.6666 3.46088 17.2057 3.99994 17.2057 4.6601Z" fill="#00549B"/>
</g>
<defs>
<clipPath id="clip0_762_57">
<rect width="20" height="20" fill="white" transform="translate(0.666626)"/>
</clipPath>
</defs>
</svg>
