<svg width="21" height="20" viewBox="0 0 21 20" fill="none" xmlns="http://www.w3.org/2000/svg">
<g clip-path="url(#clip0_762_55)">
<path d="M6.95623 18.1256C14.5034 18.1256 18.6314 11.8728 18.6314 6.45035C18.6314 6.27275 18.6314 6.09595 18.6194 5.91995C19.4225 5.33908 20.1157 4.61986 20.6666 3.79595C19.9178 4.12795 19.1233 4.34558 18.3098 4.44155C19.1665 3.92879 19.8076 3.1222 20.1138 2.17195C19.3084 2.64996 18.4272 2.98681 17.5082 3.16795C16.8896 2.5101 16.0713 2.07449 15.1801 1.92852C14.2889 1.78256 13.3745 1.93438 12.5783 2.3605C11.7821 2.78661 11.1485 3.46326 10.7756 4.28574C10.4027 5.10822 10.3112 6.03067 10.5154 6.91035C8.88404 6.82852 7.28809 6.40455 5.83117 5.66596C4.37425 4.92737 3.08893 3.89067 2.05863 2.62315C1.5339 3.52648 1.37319 4.59584 1.60921 5.6135C1.84523 6.63117 2.46024 7.52061 3.32903 8.10075C2.67599 8.08162 2.03717 7.90545 1.46663 7.58715V7.63915C1.46689 8.58653 1.79484 9.50465 2.39485 10.2378C2.99487 10.9709 3.83001 11.474 4.75863 11.6616C4.15453 11.8263 3.52069 11.8504 2.90583 11.732C3.16814 12.5472 3.67865 13.2602 4.36599 13.7711C5.05333 14.282 5.88315 14.5654 6.73943 14.5816C5.88866 15.2503 4.91439 15.7447 3.87235 16.0366C2.83032 16.3284 1.74097 16.4119 0.666626 16.2824C2.54315 17.4865 4.72656 18.1253 6.95623 18.1224" fill="#00549B"/>
</g>
<defs>
<clipPath id="clip0_762_55">
<rect width="20" height="20" fill="white" transform="translate(0.666626)"/>
</clipPath>
</defs>
</svg>
