<svg width="21" height="16" viewBox="0 0 21 16" fill="none" xmlns="http://www.w3.org/2000/svg">
<path d="M20.4674 4.00006C20.4674 4.00006 20.2721 2.62116 19.6705 2.01569C18.9088 1.21881 18.0573 1.2149 17.6666 1.16803C14.8698 0.964905 10.6705 0.964905 10.6705 0.964905H10.6627C10.6627 0.964905 6.4635 0.964905 3.66663 1.16803C3.276 1.2149 2.42444 1.21881 1.66272 2.01569C1.06116 2.62116 0.869751 4.00006 0.869751 4.00006C0.869751 4.00006 0.666626 5.62116 0.666626 7.23834V8.75397C0.666626 10.3712 0.865845 11.9923 0.865845 11.9923C0.865845 11.9923 1.06116 13.3712 1.65881 13.9766C2.42053 14.7735 3.42053 14.7462 3.86584 14.8321C5.46741 14.9844 10.6666 15.0313 10.6666 15.0313C10.6666 15.0313 14.8698 15.0235 17.6666 14.8243C18.0573 14.7774 18.9088 14.7735 19.6705 13.9766C20.2721 13.3712 20.4674 11.9923 20.4674 11.9923C20.4674 11.9923 20.6666 10.3751 20.6666 8.75397V7.23834C20.6666 5.62116 20.4674 4.00006 20.4674 4.00006ZM8.60022 10.5938V4.97272L14.0026 7.79303L8.60022 10.5938Z" fill="#00549B"/>
</svg>
